 999
Conversion of STL file (binary) from www.cadforum.cz; drag the file into AutoCAD or load it with _DXFIN
 0
SECTION
 2
ENTITIES
 0
3DFACE
 8
STL2DXF
 10
-9.06751537322998
 20
-9.31558704376221
 30
5.87747175411144E-39
 11
-9.92589092254639
 21
-9.88014793395996
 31
5.87747175411144E-39
 12
-10.4405708312988
 22
-9.33461856842041
 32
5.87747175411144E-39
 13
-10.4405708312988
 23
-9.33461856842041
 33
5.87747175411144E-39
 0
3DFACE
 8
STL2DXF
 10
4.44626188278198
 20
12.2160034179688
 30
5.87747175411144E-39
 11
5.33455991744995
 21
11.8550615310669
 31
5.87747175411144E-39
 12
8.77259635925293
 22
9.59382820129395
 32
5.87747175411144E-39
 13
8.77259635925293
 23
9.59382820129395
 33
5.87747175411144E-39
 0
3DFACE
 8
STL2DXF
 10
-11.4536590576172
 20
8.05942440032959
 30
5.87747175411144E-39
 11
-11.0057897567749
 21
8.6610164642334
 31
5.87747175411144E-39
 12
-10.7486190795898
 22
7.31212568283081
 32
5.87747175411144E-39
 13
-10.7486190795898
 23
7.31212568283081
 33
5.87747175411144E-39
 0
3DFACE
 8
STL2DXF
 10
-11.0057897567749
 20
8.6610164642334
 30
5.87747175411144E-39
 11
-10.0876779556274
 21
8.19992351531982
 31
5.87747175411144E-39
 12
-10.7486190795898
 22
7.31212568283081
 32
5.87747175411144E-39
 13
-10.7486190795898
 23
7.31212568283081
 33
5.87747175411144E-39
 0
3DFACE
 8
STL2DXF
 10
2.45680069923401
 20
12.7657403945923
 30
5.87747175411144E-39
 11
2.86373019218445
 21
13.7091093063354
 31
5.87747175411144E-39
 12
3.59351396560669
 22
13.5361471176147
 32
5.87747175411144E-39
 13
3.59351396560669
 23
13.5361471176147
 33
5.87747175411144E-39
 0
3DFACE
 8
STL2DXF
 10
-10.9714221954346
 20
-6.97337055206299
 30
5.87747175411144E-39
 11
-11.9368553161621
 21
-7.3247594833374
 31
5.87747175411144E-39
 12
-12.3118553161621
 22
-6.6752405166626
 32
5.87747175411144E-39
 13
-12.3118553161621
 23
-6.6752405166626
 33
5.87747175411144E-39
 0
3DFACE
 8
STL2DXF
 10
9.82705497741699
 20
-8.51052284240723
 30
5.87747175411144E-39
 11
10.4405708312988
 21
-9.33461856842041
 31
5.87747175411144E-39
 12
9.92589092254639
 22
-9.88014793395996
 32
5.87747175411144E-39
 13
9.92589092254639
 23
-9.88014793395996
 33
5.87747175411144E-39
 0
3DFACE
 8
STL2DXF
 10
-6.67477798461914
 20
-11.1555967330933
 30
5.87747175411144E-39
 11
-7.37981796264648
 21
-11.9028949737549
 31
5.87747175411144E-39
 12
-8.00643348693848
 22
-11.4907627105713
 32
5.87747175411144E-39
 13
-8.00643348693848
 23
-11.4907627105713
 33
5.87747175411144E-39
 0
3DFACE
 8
STL2DXF
 10
4.44626188278198
 20
12.2160034179688
 30
5.87747175411144E-39
 11
8.77259635925293
 21
9.59382820129395
 31
5.87747175411144E-39
 12
3.53377628326416
 22
12.5104923248291
 32
5.87747175411144E-39
 13
3.53377628326416
 23
12.5104923248291
 33
5.87747175411144E-39
 0
3DFACE
 8
STL2DXF
 10
8.35623836517334
 20
-9.95857715606689
 30
5.87747175411144E-39
 11
7.59950399398804
 21
-10.5473947525024
 31
5.87747175411144E-39
 12
-9.82705497741699
 22
-8.51052284240723
 32
5.87747175411144E-39
 13
-9.82705497741699
 23
-8.51052284240723
 33
5.87747175411144E-39
 0
3DFACE
 8
STL2DXF
 10
8.71175956726074
 20
10.9656677246094
 30
5.87747175411144E-39
 11
9.28629302978516
 21
10.4835767745972
 31
5.87747175411144E-39
 12
7.92473077774048
 22
10.305272102356
 32
5.87747175411144E-39
 13
7.92473077774048
 23
10.305272102356
 33
5.87747175411144E-39
 0
3DFACE
 8
STL2DXF
 10
9.28629302978516
 20
10.4835767745972
 30
5.87747175411144E-39
 11
8.77259635925293
 21
9.59382820129395
 31
5.87747175411144E-39
 12
7.92473077774048
 22
10.305272102356
 32
5.87747175411144E-39
 13
7.92473077774048
 23
10.305272102356
 33
5.87747175411144E-39
 0
3DFACE
 8
STL2DXF
 10
11.7067966461182
 20
5.65251493453979
 30
5.87747175411144E-39
 11
12.7064962387085
 21
5.8894476890564
 31
5.87747175411144E-39
 12
13.0035552978516
 22
5.20078563690186
 32
5.87747175411144E-39
 13
13.0035552978516
 23
5.20078563690186
 33
5.87747175411144E-39
 0
3DFACE
 8
STL2DXF
 10
-12.8869924545288
 20
1.71038258075714
 30
5.87747175411144E-39
 11
-10.7486190795898
 21
7.31212568283081
 31
5.87747175411144E-39
 12
-10.9714221954346
 22
-6.97337055206299
 32
5.87747175411144E-39
 13
-10.9714221954346
 23
-6.97337055206299
 33
5.87747175411144E-39
 0
3DFACE
 8
STL2DXF
 10
8.35623836517334
 20
-9.95857715606689
 30
5.87747175411144E-39
 11
-9.82705497741699
 21
-8.51052284240723
 31
5.87747175411144E-39
 12
9.06751537322998
 22
-9.31558704376221
 32
5.87747175411144E-39
 13
9.06751537322998
 23
-9.31558704376221
 33
5.87747175411144E-39
 0
3DFACE
 8
STL2DXF
 10
-4.43589735031128
 20
-13.283953666687
 30
5.87747175411144E-39
 11
-5.14066696166992
 21
-13.0274391174316
 31
5.87747175411144E-39
 12
-3.92220067977905
 22
-12.3942060470581
 32
5.87747175411144E-39
 13
-3.92220067977905
 23
-12.3942060470581
 33
5.87747175411144E-39
 0
3DFACE
 8
STL2DXF
 10
-5.14066696166992
 20
-13.0274391174316
 30
5.87747175411144E-39
 11
-4.96226167678833
 21
-12.0156545639038
 31
5.87747175411144E-39
 12
-3.92220067977905
 22
-12.3942060470581
 32
5.87747175411144E-39
 13
-3.92220067977905
 23
-12.3942060470581
 33
5.87747175411144E-39
 0
3DFACE
 8
STL2DXF
 10
-9.28629302978516
 20
10.4835767745972
 30
5.87747175411144E-39
 11
-8.71175956726074
 21
10.9656677246094
 31
5.87747175411144E-39
 12
-8.77259635925293
 22
9.59382820129395
 32
5.87747175411144E-39
 13
-8.77259635925293
 23
9.59382820129395
 33
5.87747175411144E-39
 0
3DFACE
 8
STL2DXF
 10
-8.71175956726074
 20
10.9656677246094
 30
5.87747175411144E-39
 11
-7.92473077774048
 21
10.305272102356
 31
5.87747175411144E-39
 12
-8.77259635925293
 22
9.59382820129395
 32
5.87747175411144E-39
 13
-8.77259635925293
 23
9.59382820129395
 33
5.87747175411144E-39
 0
3DFACE
 8
STL2DXF
 10
-8.77259635925293
 20
9.59382820129395
 30
5.87747175411144E-39
 11
-7.92473077774048
 21
10.305272102356
 31
5.87747175411144E-39
 12
-9.45585823059082
 22
8.92114162445068
 32
5.87747175411144E-39
 13
-9.45585823059082
 23
8.92114162445068
 33
5.87747175411144E-39
 0
3DFACE
 8
STL2DXF
 10
-7.92473077774048
 20
10.305272102356
 30
5.87747175411144E-39
 11
-10.0876779556274
 21
8.19992351531982
 31
5.87747175411144E-39
 12
-9.45585823059082
 22
8.92114162445068
 32
5.87747175411144E-39
 13
-9.45585823059082
 23
8.92114162445068
 33
5.87747175411144E-39
 0
3DFACE
 8
STL2DXF
 10
5.9480767250061
 20
12.6791572570801
 30
5.87747175411144E-39
 11
6.6183009147644
 21
12.3425569534302
 31
5.87747175411144E-39
 12
5.33455991744995
 22
11.8550615310669
 32
5.87747175411144E-39
 13
5.33455991744995
 23
11.8550615310669
 33
5.87747175411144E-39
 0
3DFACE
 8
STL2DXF
 10
6.6183009147644
 20
12.3425569534302
 30
5.87747175411144E-39
 11
6.32364130020142
 21
11.3583250045776
 31
5.87747175411144E-39
 12
5.33455991744995
 22
11.8550615310669
 32
5.87747175411144E-39
 13
5.33455991744995
 23
11.8550615310669
 33
5.87747175411144E-39
 0
3DFACE
 8
STL2DXF
 10
5.33455991744995
 20
11.8550615310669
 30
5.87747175411144E-39
 11
6.32364130020142
 21
11.3583250045776
 31
5.87747175411144E-39
 12
8.77259635925293
 22
9.59382820129395
 32
5.87747175411144E-39
 13
8.77259635925293
 23
9.59382820129395
 33
5.87747175411144E-39
 0
3DFACE
 8
STL2DXF
 10
6.32364130020142
 20
11.3583250045776
 30
5.87747175411144E-39
 11
7.14361667633057
 21
10.8613414764404
 31
5.87747175411144E-39
 12
8.77259635925293
 22
9.59382820129395
 32
5.87747175411144E-39
 13
8.77259635925293
 23
9.59382820129395
 33
5.87747175411144E-39
 0
3DFACE
 8
STL2DXF
 10
8.77259635925293
 20
9.59382820129395
 30
5.87747175411144E-39
 11
7.14361667633057
 21
10.8613414764404
 31
5.87747175411144E-39
 12
7.92473077774048
 22
10.305272102356
 32
5.87747175411144E-39
 13
7.92473077774048
 23
10.305272102356
 33
5.87747175411144E-39
 0
3DFACE
 8
STL2DXF
 10
3.59351396560669
 20
13.5361471176147
 30
5.87747175411144E-39
 11
3.53377628326416
 21
12.5104923248291
 31
5.87747175411144E-39
 12
2.45680069923401
 22
12.7657403945923
 32
5.87747175411144E-39
 13
2.45680069923401
 23
12.7657403945923
 33
5.87747175411144E-39
 0
3DFACE
 8
STL2DXF
 10
3.53377628326416
 20
12.5104923248291
 30
5.87747175411144E-39
 11
8.77259635925293
 21
9.59382820129395
 31
5.87747175411144E-39
 12
2.45680069923401
 22
12.7657403945923
 32
5.87747175411144E-39
 13
2.45680069923401
 23
12.7657403945923
 33
5.87747175411144E-39
 0
3DFACE
 8
STL2DXF
 10
2.45680069923401
 20
12.7657403945923
 30
5.87747175411144E-39
 11
8.77259635925293
 21
9.59382820129395
 31
5.87747175411144E-39
 12
-10.7486190795898
 22
7.31212568283081
 32
5.87747175411144E-39
 13
-10.7486190795898
 23
7.31212568283081
 33
5.87747175411144E-39
 0
3DFACE
 8
STL2DXF
 10
8.77259635925293
 20
9.59382820129395
 30
5.87747175411144E-39
 11
9.45585823059082
 21
8.92114162445068
 31
5.87747175411144E-39
 12
-10.7486190795898
 22
7.31212568283081
 32
5.87747175411144E-39
 13
-10.7486190795898
 23
7.31212568283081
 33
5.87747175411144E-39
 0
3DFACE
 8
STL2DXF
 10
-10.7486190795898
 20
7.31212568283081
 30
5.87747175411144E-39
 11
9.45585823059082
 21
8.92114162445068
 31
5.87747175411144E-39
 12
10.0876779556274
 22
8.19992351531982
 32
5.87747175411144E-39
 13
10.0876779556274
 23
8.19992351531982
 33
5.87747175411144E-39
 0
3DFACE
 8
STL2DXF
 10
-7.59950399398804
 20
-10.5473947525024
 30
5.87747175411144E-39
 11
-8.35623836517334
 21
-9.95857715606689
 31
5.87747175411144E-39
 12
-3.92220067977905
 22
-12.3942060470581
 32
5.87747175411144E-39
 13
-3.92220067977905
 23
-12.3942060470581
 33
5.87747175411144E-39
 0
3DFACE
 8
STL2DXF
 10
-8.35623836517334
 20
-9.95857715606689
 30
5.87747175411144E-39
 11
-9.06751537322998
 21
-9.31558704376221
 31
5.87747175411144E-39
 12
-3.92220067977905
 22
-12.3942060470581
 32
5.87747175411144E-39
 13
-3.92220067977905
 23
-12.3942060470581
 33
5.87747175411144E-39
 0
3DFACE
 8
STL2DXF
 10
-3.92220067977905
 20
-12.3942060470581
 30
5.87747175411144E-39
 11
-9.06751537322998
 21
-9.31558704376221
 31
5.87747175411144E-39
 12
-9.82705497741699
 22
-8.51052284240723
 32
5.87747175411144E-39
 13
-9.82705497741699
 23
-8.51052284240723
 33
5.87747175411144E-39
 0
3DFACE
 8
STL2DXF
 10
-9.06751537322998
 20
-9.31558704376221
 30
5.87747175411144E-39
 11
-10.4405708312988
 21
-9.33461856842041
 31
5.87747175411144E-39
 12
-9.82705497741699
 22
-8.51052284240723
 32
5.87747175411144E-39
 13
-9.82705497741699
 23
-8.51052284240723
 33
5.87747175411144E-39
 0
3DFACE
 8
STL2DXF
 10
-10.0876779556274
 20
8.19992351531982
 30
5.87747175411144E-39
 11
-7.92473077774048
 21
10.305272102356
 31
5.87747175411144E-39
 12
-10.7486190795898
 22
7.31212568283081
 32
5.87747175411144E-39
 13
-10.7486190795898
 23
7.31212568283081
 33
5.87747175411144E-39
 0
3DFACE
 8
STL2DXF
 10
-7.92473077774048
 20
10.305272102356
 30
5.87747175411144E-39
 11
-7.14361667633057
 21
10.8613414764404
 31
5.87747175411144E-39
 12
-10.7486190795898
 22
7.31212568283081
 32
5.87747175411144E-39
 13
-10.7486190795898
 23
7.31212568283081
 33
5.87747175411144E-39
 0
3DFACE
 8
STL2DXF
 10
-10.7486190795898
 20
7.31212568283081
 30
5.87747175411144E-39
 11
-7.14361667633057
 21
10.8613414764404
 31
5.87747175411144E-39
 12
-6.32364130020142
 22
11.3583250045776
 32
5.87747175411144E-39
 13
-6.32364130020142
 23
11.3583250045776
 33
5.87747175411144E-39
 0
3DFACE
 8
STL2DXF
 10
-0.375
 20
14
 30
5.87747175411144E-39
 11
0.375
 21
14
 31
5.87747175411144E-39
 12
-0.553404927253723
 22
12.9882154464722
 32
5.87747175411144E-39
 13
-0.553404927253723
 23
12.9882154464722
 33
5.87747175411144E-39
 0
3DFACE
 8
STL2DXF
 10
0.375
 20
14
 30
5.87747175411144E-39
 11
0.553404927253723
 21
12.9882154464722
 31
5.87747175411144E-39
 12
-0.553404927253723
 22
12.9882154464722
 32
5.87747175411144E-39
 13
-0.553404927253723
 23
12.9882154464722
 33
5.87747175411144E-39
 0
3DFACE
 8
STL2DXF
 10
-0.553404927253723
 20
12.9882154464722
 30
5.87747175411144E-39
 11
0.553404927253723
 21
12.9882154464722
 31
5.87747175411144E-39
 12
-10.7486190795898
 22
7.31212568283081
 32
5.87747175411144E-39
 13
-10.7486190795898
 23
7.31212568283081
 33
5.87747175411144E-39
 0
3DFACE
 8
STL2DXF
 10
0.553404927253723
 20
12.9882154464722
 30
5.87747175411144E-39
 11
1.50920784473419
 21
12.9120979309082
 31
5.87747175411144E-39
 12
-10.7486190795898
 22
7.31212568283081
 32
5.87747175411144E-39
 13
-10.7486190795898
 23
7.31212568283081
 33
5.87747175411144E-39
 0
3DFACE
 8
STL2DXF
 10
-10.7486190795898
 20
7.31212568283081
 30
5.87747175411144E-39
 11
1.50920784473419
 21
12.9120979309082
 31
5.87747175411144E-39
 12
2.45680069923401
 22
12.7657403945923
 32
5.87747175411144E-39
 13
2.45680069923401
 23
12.7657403945923
 33
5.87747175411144E-39
 0
3DFACE
 8
STL2DXF
 10
10.0876779556274
 20
8.19992351531982
 30
5.87747175411144E-39
 11
12.1451816558838
 21
4.63622379302979
 31
5.87747175411144E-39
 12
12.4538631439209
 22
3.72844219207764
 32
5.87747175411144E-39
 13
12.4538631439209
 23
3.72844219207764
 33
5.87747175411144E-39
 0
3DFACE
 8
STL2DXF
 10
13.7221908569336
 20
2.800377368927
 30
5.87747175411144E-39
 11
13.8524265289307
 21
2.06177163124084
 31
5.87747175411144E-39
 12
12.6947975158691
 22
2.800377368927
 32
5.87747175411144E-39
 13
12.6947975158691
 23
2.800377368927
 33
5.87747175411144E-39
 0
3DFACE
 8
STL2DXF
 10
13.8524265289307
 20
2.06177163124084
 30
5.87747175411144E-39
 11
12.8869924545288
 21
1.71038258075714
 31
5.87747175411144E-39
 12
12.6947975158691
 22
2.800377368927
 32
5.87747175411144E-39
 13
12.6947975158691
 23
2.800377368927
 33
5.87747175411144E-39
 0
3DFACE
 8
STL2DXF
 10
11.9368085861206
 20
-5.14903688430786
 30
5.87747175411144E-39
 11
12.8869924545288
 21
1.71038258075714
 31
5.87747175411144E-39
 12
12.2838563919067
 22
-4.25521850585938
 32
5.87747175411144E-39
 13
12.2838563919067
 23
-4.25521850585938
 33
5.87747175411144E-39
 0
3DFACE
 8
STL2DXF
 10
12.8869924545288
 20
1.71038258075714
 30
5.87747175411144E-39
 11
12.978006362915
 21
0.755882740020752
 31
5.87747175411144E-39
 12
12.2838563919067
 22
-4.25521850585938
 32
5.87747175411144E-39
 13
12.2838563919067
 23
-4.25521850585938
 33
5.87747175411144E-39
 0
3DFACE
 8
STL2DXF
 10
12.2838563919067
 20
-4.25521850585938
 30
5.87747175411144E-39
 11
12.978006362915
 21
0.755882740020752
 31
5.87747175411144E-39
 12
12.9984188079834
 22
-0.202728942036629
 32
5.87747175411144E-39
 13
12.9984188079834
 23
-0.202728942036629
 33
5.87747175411144E-39
 0
3DFACE
 8
STL2DXF
 10
12.3118553161621
 20
-6.6752405166626
 30
5.87747175411144E-39
 11
11.9368553161621
 21
-7.3247594833374
 31
5.87747175411144E-39
 12
11.524827003479
 22
-6.01484489440918
 32
5.87747175411144E-39
 13
11.524827003479
 23
-6.01484489440918
 33
5.87747175411144E-39
 0
3DFACE
 8
STL2DXF
 10
11.9368553161621
 20
-7.3247594833374
 30
5.87747175411144E-39
 11
10.9714221954346
 21
-6.97337055206299
 31
5.87747175411144E-39
 12
11.524827003479
 22
-6.01484489440918
 32
5.87747175411144E-39
 13
11.524827003479
 23
-6.01484489440918
 33
5.87747175411144E-39
 0
3DFACE
 8
STL2DXF
 10
-13.9545097351074
 20
-1.1883932352066
 30
5.87747175411144E-39
 11
-13.9981184005737
 21
-0.439662039279938
 31
5.87747175411144E-39
 12
-12.934063911438
 22
-1.30766618251801
 32
5.87747175411144E-39
 13
-12.934063911438
 23
-1.30766618251801
 33
5.87747175411144E-39
 0
3DFACE
 8
STL2DXF
 10
-13.9981184005737
 20
-0.439662039279938
 30
5.87747175411144E-39
 11
-12.9984188079834
 21
-0.202728942036629
 31
5.87747175411144E-39
 12
-12.934063911438
 22
-1.30766618251801
 32
5.87747175411144E-39
 13
-12.934063911438
 23
-1.30766618251801
 33
5.87747175411144E-39
 0
3DFACE
 8
STL2DXF
 10
-12.934063911438
 20
-1.30766618251801
 30
5.87747175411144E-39
 11
-12.9984188079834
 21
-0.202728942036629
 31
5.87747175411144E-39
 12
-10.9714221954346
 22
-6.97337055206299
 32
5.87747175411144E-39
 13
-10.9714221954346
 23
-6.97337055206299
 33
5.87747175411144E-39
 0
3DFACE
 8
STL2DXF
 10
-12.9984188079834
 20
-0.202728942036629
 30
5.87747175411144E-39
 11
-12.978006362915
 21
0.755882740020752
 31
5.87747175411144E-39
 12
-10.9714221954346
 22
-6.97337055206299
 32
5.87747175411144E-39
 13
-10.9714221954346
 23
-6.97337055206299
 33
5.87747175411144E-39
 0
3DFACE
 8
STL2DXF
 10
-10.9714221954346
 20
-6.97337055206299
 30
5.87747175411144E-39
 11
-12.978006362915
 21
0.755882740020752
 31
5.87747175411144E-39
 12
-12.8869924545288
 22
1.71038258075714
 32
5.87747175411144E-39
 13
-12.8869924545288
 23
1.71038258075714
 33
5.87747175411144E-39
 0
3DFACE
 8
STL2DXF
 10
-12.1451816558838
 20
4.63622379302979
 30
5.87747175411144E-39
 11
-13.0035552978516
 21
5.20078563690186
 31
5.87747175411144E-39
 12
-12.7064962387085
 22
5.8894476890564
 32
5.87747175411144E-39
 13
-12.7064962387085
 23
5.8894476890564
 33
5.87747175411144E-39
 0
3DFACE
 8
STL2DXF
 10
5.14066696166992
 20
-13.0274391174316
 30
5.87747175411144E-39
 11
4.43589735031128
 21
-13.283953666687
 31
5.87747175411144E-39
 12
4.96226167678833
 22
-12.0156545639038
 32
5.87747175411144E-39
 13
4.96226167678833
 23
-12.0156545639038
 33
5.87747175411144E-39
 0
3DFACE
 8
STL2DXF
 10
4.43589735031128
 20
-13.283953666687
 30
5.87747175411144E-39
 11
3.92220067977905
 21
-12.3942060470581
 31
5.87747175411144E-39
 12
4.96226167678833
 22
-12.0156545639038
 32
5.87747175411144E-39
 13
4.96226167678833
 23
-12.0156545639038
 33
5.87747175411144E-39
 0
3DFACE
 8
STL2DXF
 10
-4.96226167678833
 20
-12.0156545639038
 30
5.87747175411144E-39
 11
-5.83438968658447
 21
-11.6172246932983
 31
5.87747175411144E-39
 12
-3.92220067977905
 22
-12.3942060470581
 32
5.87747175411144E-39
 13
-3.92220067977905
 23
-12.3942060470581
 33
5.87747175411144E-39
 0
3DFACE
 8
STL2DXF
 10
-5.83438968658447
 20
-11.6172246932983
 30
5.87747175411144E-39
 11
-6.67477798461914
 21
-11.1555967330933
 31
5.87747175411144E-39
 12
-3.92220067977905
 22
-12.3942060470581
 32
5.87747175411144E-39
 13
-3.92220067977905
 23
-12.3942060470581
 33
5.87747175411144E-39
 0
3DFACE
 8
STL2DXF
 10
-3.92220067977905
 20
-12.3942060470581
 30
5.87747175411144E-39
 11
-6.67477798461914
 21
-11.1555967330933
 31
5.87747175411144E-39
 12
-7.59950399398804
 22
-10.5473947525024
 32
5.87747175411144E-39
 13
-7.59950399398804
 23
-10.5473947525024
 33
5.87747175411144E-39
 0
3DFACE
 8
STL2DXF
 10
-6.67477798461914
 20
-11.1555967330933
 30
5.87747175411144E-39
 11
-8.00643348693848
 21
-11.4907627105713
 31
5.87747175411144E-39
 12
-7.59950399398804
 22
-10.5473947525024
 32
5.87747175411144E-39
 13
-7.59950399398804
 23
-10.5473947525024
 33
5.87747175411144E-39
 0
3DFACE
 8
STL2DXF
 10
-6.6183009147644
 20
12.3425569534302
 30
5.87747175411144E-39
 11
-5.9480767250061
 21
12.6791572570801
 31
5.87747175411144E-39
 12
-6.32364130020142
 22
11.3583250045776
 32
5.87747175411144E-39
 13
-6.32364130020142
 23
11.3583250045776
 33
5.87747175411144E-39
 0
3DFACE
 8
STL2DXF
 10
-5.9480767250061
 20
12.6791572570801
 30
5.87747175411144E-39
 11
-5.33455991744995
 21
11.8550615310669
 31
5.87747175411144E-39
 12
-6.32364130020142
 22
11.3583250045776
 32
5.87747175411144E-39
 13
-6.32364130020142
 23
11.3583250045776
 33
5.87747175411144E-39
 0
3DFACE
 8
STL2DXF
 10
-6.32364130020142
 20
11.3583250045776
 30
5.87747175411144E-39
 11
-5.33455991744995
 21
11.8550615310669
 31
5.87747175411144E-39
 12
-10.7486190795898
 22
7.31212568283081
 32
5.87747175411144E-39
 13
-10.7486190795898
 23
7.31212568283081
 33
5.87747175411144E-39
 0
3DFACE
 8
STL2DXF
 10
-5.33455991744995
 20
11.8550615310669
 30
5.87747175411144E-39
 11
-4.44626188278198
 21
12.2160034179688
 31
5.87747175411144E-39
 12
-10.7486190795898
 22
7.31212568283081
 32
5.87747175411144E-39
 13
-10.7486190795898
 23
7.31212568283081
 33
5.87747175411144E-39
 0
3DFACE
 8
STL2DXF
 10
-10.7486190795898
 20
7.31212568283081
 30
5.87747175411144E-39
 11
-4.44626188278198
 21
12.2160034179688
 31
5.87747175411144E-39
 12
-3.53377628326416
 22
12.5104923248291
 32
5.87747175411144E-39
 13
-3.53377628326416
 23
12.5104923248291
 33
5.87747175411144E-39
 0
3DFACE
 8
STL2DXF
 10
-3.59351396560669
 20
13.5361471176147
 30
5.87747175411144E-39
 11
-2.86373019218445
 21
13.7091093063354
 31
5.87747175411144E-39
 12
-3.53377628326416
 22
12.5104923248291
 32
5.87747175411144E-39
 13
-3.53377628326416
 23
12.5104923248291
 33
5.87747175411144E-39
 0
3DFACE
 8
STL2DXF
 10
-2.86373019218445
 20
13.7091093063354
 30
5.87747175411144E-39
 11
-2.45680069923401
 21
12.7657403945923
 31
5.87747175411144E-39
 12
-3.53377628326416
 22
12.5104923248291
 32
5.87747175411144E-39
 13
-3.53377628326416
 23
12.5104923248291
 33
5.87747175411144E-39
 0
3DFACE
 8
STL2DXF
 10
-3.53377628326416
 20
12.5104923248291
 30
5.87747175411144E-39
 11
-2.45680069923401
 21
12.7657403945923
 31
5.87747175411144E-39
 12
-10.7486190795898
 22
7.31212568283081
 32
5.87747175411144E-39
 13
-10.7486190795898
 23
7.31212568283081
 33
5.87747175411144E-39
 0
3DFACE
 8
STL2DXF
 10
-2.45680069923401
 20
12.7657403945923
 30
5.87747175411144E-39
 11
-1.50920784473419
 21
12.9120979309082
 31
5.87747175411144E-39
 12
-10.7486190795898
 22
7.31212568283081
 32
5.87747175411144E-39
 13
-10.7486190795898
 23
7.31212568283081
 33
5.87747175411144E-39
 0
3DFACE
 8
STL2DXF
 10
-10.7486190795898
 20
7.31212568283081
 30
5.87747175411144E-39
 11
-1.50920784473419
 21
12.9120979309082
 31
5.87747175411144E-39
 12
-0.553404927253723
 22
12.9882154464722
 32
5.87747175411144E-39
 13
-0.553404927253723
 23
12.9882154464722
 33
5.87747175411144E-39
 0
3DFACE
 8
STL2DXF
 10
11.0057897567749
 20
8.6610164642334
 30
5.87747175411144E-39
 11
11.4536590576172
 21
8.05942440032959
 31
5.87747175411144E-39
 12
10.0876779556274
 22
8.19992351531982
 32
5.87747175411144E-39
 13
10.0876779556274
 23
8.19992351531982
 33
5.87747175411144E-39
 0
3DFACE
 8
STL2DXF
 10
11.4536590576172
 20
8.05942440032959
 30
5.87747175411144E-39
 11
10.7486190795898
 21
7.31212568283081
 31
5.87747175411144E-39
 12
10.0876779556274
 22
8.19992351531982
 32
5.87747175411144E-39
 13
10.0876779556274
 23
8.19992351531982
 33
5.87747175411144E-39
 0
3DFACE
 8
STL2DXF
 10
12.4538631439209
 20
3.72844219207764
 30
5.87747175411144E-39
 11
12.6947975158691
 21
2.800377368927
 31
5.87747175411144E-39
 12
10.0876779556274
 22
8.19992351531982
 32
5.87747175411144E-39
 13
10.0876779556274
 23
8.19992351531982
 33
5.87747175411144E-39
 0
3DFACE
 8
STL2DXF
 10
12.6947975158691
 20
2.800377368927
 30
5.87747175411144E-39
 11
12.8869924545288
 21
1.71038258075714
 31
5.87747175411144E-39
 12
10.0876779556274
 22
8.19992351531982
 32
5.87747175411144E-39
 13
10.0876779556274
 23
8.19992351531982
 33
5.87747175411144E-39
 0
3DFACE
 8
STL2DXF
 10
10.0876779556274
 20
8.19992351531982
 30
5.87747175411144E-39
 11
12.8869924545288
 21
1.71038258075714
 31
5.87747175411144E-39
 12
-10.7486190795898
 22
7.31212568283081
 32
5.87747175411144E-39
 13
-10.7486190795898
 23
7.31212568283081
 33
5.87747175411144E-39
 0
3DFACE
 8
STL2DXF
 10
12.8869924545288
 20
1.71038258075714
 30
5.87747175411144E-39
 11
-10.42760181427
 21
-7.7630615234375
 31
5.87747175411144E-39
 12
-10.7486190795898
 22
7.31212568283081
 32
5.87747175411144E-39
 13
-10.7486190795898
 23
7.31212568283081
 33
5.87747175411144E-39
 0
3DFACE
 8
STL2DXF
 10
-10.7486190795898
 20
7.31212568283081
 30
5.87747175411144E-39
 11
-10.42760181427
 21
-7.7630615234375
 31
5.87747175411144E-39
 12
-10.9714221954346
 22
-6.97337055206299
 32
5.87747175411144E-39
 13
-10.9714221954346
 23
-6.97337055206299
 33
5.87747175411144E-39
 0
3DFACE
 8
STL2DXF
 10
9.92589092254639
 20
-9.88014793395996
 30
5.87747175411144E-39
 11
9.06751537322998
 21
-9.31558704376221
 31
5.87747175411144E-39
 12
9.82705497741699
 22
-8.51052284240723
 32
5.87747175411144E-39
 13
9.82705497741699
 23
-8.51052284240723
 33
5.87747175411144E-39
 0
3DFACE
 8
STL2DXF
 10
9.06751537322998
 20
-9.31558704376221
 30
5.87747175411144E-39
 11
-9.82705497741699
 21
-8.51052284240723
 31
5.87747175411144E-39
 12
9.82705497741699
 22
-8.51052284240723
 32
5.87747175411144E-39
 13
9.82705497741699
 23
-8.51052284240723
 33
5.87747175411144E-39
 0
3DFACE
 8
STL2DXF
 10
9.82705497741699
 20
-8.51052284240723
 30
5.87747175411144E-39
 11
-9.82705497741699
 21
-8.51052284240723
 31
5.87747175411144E-39
 12
10.42760181427
 22
-7.7630615234375
 32
5.87747175411144E-39
 13
10.42760181427
 23
-7.7630615234375
 33
5.87747175411144E-39
 0
3DFACE
 8
STL2DXF
 10
-9.82705497741699
 20
-8.51052284240723
 30
5.87747175411144E-39
 11
-10.42760181427
 21
-7.7630615234375
 31
5.87747175411144E-39
 12
10.42760181427
 22
-7.7630615234375
 32
5.87747175411144E-39
 13
10.42760181427
 23
-7.7630615234375
 33
5.87747175411144E-39
 0
3DFACE
 8
STL2DXF
 10
10.42760181427
 20
-7.7630615234375
 30
5.87747175411144E-39
 11
-10.42760181427
 21
-7.7630615234375
 31
5.87747175411144E-39
 12
10.9714221954346
 22
-6.97337055206299
 32
5.87747175411144E-39
 13
10.9714221954346
 23
-6.97337055206299
 33
5.87747175411144E-39
 0
3DFACE
 8
STL2DXF
 10
-10.42760181427
 20
-7.7630615234375
 30
5.87747175411144E-39
 11
12.8869924545288
 21
1.71038258075714
 31
5.87747175411144E-39
 12
10.9714221954346
 22
-6.97337055206299
 32
5.87747175411144E-39
 13
10.9714221954346
 23
-6.97337055206299
 33
5.87747175411144E-39
 0
3DFACE
 8
STL2DXF
 10
10.9714221954346
 20
-6.97337055206299
 30
5.87747175411144E-39
 11
12.8869924545288
 21
1.71038258075714
 31
5.87747175411144E-39
 12
11.524827003479
 22
-6.01484489440918
 32
5.87747175411144E-39
 13
11.524827003479
 23
-6.01484489440918
 33
5.87747175411144E-39
 0
3DFACE
 8
STL2DXF
 10
12.8869924545288
 20
1.71038258075714
 30
5.87747175411144E-39
 11
11.9368085861206
 21
-5.14903688430786
 31
5.87747175411144E-39
 12
11.524827003479
 22
-6.01484489440918
 32
5.87747175411144E-39
 13
11.524827003479
 23
-6.01484489440918
 33
5.87747175411144E-39
 0
3DFACE
 8
STL2DXF
 10
-12.3118553161621
 20
-6.6752405166626
 30
5.87747175411144E-39
 11
-11.524827003479
 21
-6.01484489440918
 31
5.87747175411144E-39
 12
-10.9714221954346
 22
-6.97337055206299
 32
5.87747175411144E-39
 13
-10.9714221954346
 23
-6.97337055206299
 33
5.87747175411144E-39
 0
3DFACE
 8
STL2DXF
 10
-11.524827003479
 20
-6.01484489440918
 30
5.87747175411144E-39
 11
-11.9368085861206
 21
-5.14903688430786
 31
5.87747175411144E-39
 12
-10.9714221954346
 22
-6.97337055206299
 32
5.87747175411144E-39
 13
-10.9714221954346
 23
-6.97337055206299
 33
5.87747175411144E-39
 0
3DFACE
 8
STL2DXF
 10
-10.9714221954346
 20
-6.97337055206299
 30
5.87747175411144E-39
 11
-11.9368085861206
 21
-5.14903688430786
 31
5.87747175411144E-39
 12
-12.2838563919067
 22
-4.25521850585938
 32
5.87747175411144E-39
 13
-12.2838563919067
 23
-4.25521850585938
 33
5.87747175411144E-39
 0
3DFACE
 8
STL2DXF
 10
-13.3043012619019
 20
-4.37449169158936
 30
5.87747175411144E-39
 11
-13.5194044113159
 21
-3.65599918365479
 31
5.87747175411144E-39
 12
-12.2838563919067
 22
-4.25521850585938
 32
5.87747175411144E-39
 13
-12.2838563919067
 23
-4.25521850585938
 33
5.87747175411144E-39
 0
3DFACE
 8
STL2DXF
 10
-13.5194044113159
 20
-3.65599918365479
 30
5.87747175411144E-39
 11
-12.6012926101685
 21
-3.19490599632263
 31
5.87747175411144E-39
 12
-12.2838563919067
 22
-4.25521850585938
 32
5.87747175411144E-39
 13
-12.2838563919067
 23
-4.25521850585938
 33
5.87747175411144E-39
 0
3DFACE
 8
STL2DXF
 10
-12.2838563919067
 20
-4.25521850585938
 30
5.87747175411144E-39
 11
-12.6012926101685
 21
-3.19490599632263
 31
5.87747175411144E-39
 12
-10.9714221954346
 22
-6.97337055206299
 32
5.87747175411144E-39
 13
-10.9714221954346
 23
-6.97337055206299
 33
5.87747175411144E-39
 0
3DFACE
 8
STL2DXF
 10
-12.6012926101685
 20
-3.19490599632263
 30
5.87747175411144E-39
 11
-12.8025016784668
 21
-2.25742626190186
 31
5.87747175411144E-39
 12
-10.9714221954346
 22
-6.97337055206299
 32
5.87747175411144E-39
 13
-10.9714221954346
 23
-6.97337055206299
 33
5.87747175411144E-39
 0
3DFACE
 8
STL2DXF
 10
-10.9714221954346
 20
-6.97337055206299
 30
5.87747175411144E-39
 11
-12.8025016784668
 21
-2.25742626190186
 31
5.87747175411144E-39
 12
-12.934063911438
 22
-1.30766618251801
 32
5.87747175411144E-39
 13
-12.934063911438
 23
-1.30766618251801
 33
5.87747175411144E-39
 0
3DFACE
 8
STL2DXF
 10
-12.7064962387085
 20
5.8894476890564
 30
5.87747175411144E-39
 11
-11.7067966461182
 21
5.65251493453979
 31
5.87747175411144E-39
 12
-12.1451816558838
 22
4.63622379302979
 32
5.87747175411144E-39
 13
-12.1451816558838
 23
4.63622379302979
 33
5.87747175411144E-39
 0
3DFACE
 8
STL2DXF
 10
-11.7067966461182
 20
5.65251493453979
 30
5.87747175411144E-39
 11
-11.2583303451538
 21
6.5
 31
5.87747175411144E-39
 12
-12.1451816558838
 22
4.63622379302979
 32
5.87747175411144E-39
 13
-12.1451816558838
 23
4.63622379302979
 33
5.87747175411144E-39
 0
3DFACE
 8
STL2DXF
 10
-12.1451816558838
 20
4.63622379302979
 30
5.87747175411144E-39
 11
-11.2583303451538
 21
6.5
 31
5.87747175411144E-39
 12
-10.7486190795898
 22
7.31212568283081
 32
5.87747175411144E-39
 13
-10.7486190795898
 23
7.31212568283081
 33
5.87747175411144E-39
 0
3DFACE
 8
STL2DXF
 10
8.00643348693848
 20
-11.4907627105713
 30
5.87747175411144E-39
 11
7.37981796264648
 21
-11.9028949737549
 31
5.87747175411144E-39
 12
7.59950399398804
 22
-10.5473947525024
 32
5.87747175411144E-39
 13
7.59950399398804
 23
-10.5473947525024
 33
5.87747175411144E-39
 0
3DFACE
 8
STL2DXF
 10
7.37981796264648
 20
-11.9028949737549
 30
5.87747175411144E-39
 11
6.67477798461914
 21
-11.1555967330933
 31
5.87747175411144E-39
 12
7.59950399398804
 22
-10.5473947525024
 32
5.87747175411144E-39
 13
7.59950399398804
 23
-10.5473947525024
 33
5.87747175411144E-39
 0
3DFACE
 8
STL2DXF
 10
7.59950399398804
 20
-10.5473947525024
 30
5.87747175411144E-39
 11
6.67477798461914
 21
-11.1555967330933
 31
5.87747175411144E-39
 12
5.83438968658447
 22
-11.6172246932983
 32
5.87747175411144E-39
 13
5.83438968658447
 23
-11.6172246932983
 33
5.87747175411144E-39
 0
3DFACE
 8
STL2DXF
 10
10.7486190795898
 20
7.31212568283081
 30
5.87747175411144E-39
 11
11.2583303451538
 21
6.5
 31
5.87747175411144E-39
 12
10.0876779556274
 22
8.19992351531982
 32
5.87747175411144E-39
 13
10.0876779556274
 23
8.19992351531982
 33
5.87747175411144E-39
 0
3DFACE
 8
STL2DXF
 10
11.2583303451538
 20
6.5
 30
5.87747175411144E-39
 11
11.7067966461182
 21
5.65251493453979
 31
5.87747175411144E-39
 12
10.0876779556274
 22
8.19992351531982
 32
5.87747175411144E-39
 13
10.0876779556274
 23
8.19992351531982
 33
5.87747175411144E-39
 0
3DFACE
 8
STL2DXF
 10
10.0876779556274
 20
8.19992351531982
 30
5.87747175411144E-39
 11
11.7067966461182
 21
5.65251493453979
 31
5.87747175411144E-39
 12
12.1451816558838
 22
4.63622379302979
 32
5.87747175411144E-39
 13
12.1451816558838
 23
4.63622379302979
 33
5.87747175411144E-39
 0
3DFACE
 8
STL2DXF
 10
11.7067966461182
 20
5.65251493453979
 30
5.87747175411144E-39
 11
13.0035552978516
 21
5.20078563690186
 31
5.87747175411144E-39
 12
12.1451816558838
 22
4.63622379302979
 32
5.87747175411144E-39
 13
12.1451816558838
 23
4.63622379302979
 33
5.87747175411144E-39
 0
3DFACE
 8
STL2DXF
 10
13.5194044113159
 20
-3.65599918365479
 30
5.87747175411144E-39
 11
13.3043012619019
 21
-4.37449169158936
 31
5.87747175411144E-39
 12
12.6012926101685
 22
-3.19490599632263
 32
5.87747175411144E-39
 13
12.6012926101685
 23
-3.19490599632263
 33
5.87747175411144E-39
 0
3DFACE
 8
STL2DXF
 10
13.3043012619019
 20
-4.37449169158936
 30
5.87747175411144E-39
 11
12.2838563919067
 21
-4.25521850585938
 31
5.87747175411144E-39
 12
12.6012926101685
 22
-3.19490599632263
 32
5.87747175411144E-39
 13
12.6012926101685
 23
-3.19490599632263
 33
5.87747175411144E-39
 0
3DFACE
 8
STL2DXF
 10
-13.8524265289307
 20
2.06177163124084
 30
5.87747175411144E-39
 11
-13.7221908569336
 21
2.800377368927
 31
5.87747175411144E-39
 12
-12.8869924545288
 22
1.71038258075714
 32
5.87747175411144E-39
 13
-12.8869924545288
 23
1.71038258075714
 33
5.87747175411144E-39
 0
3DFACE
 8
STL2DXF
 10
-13.7221908569336
 20
2.800377368927
 30
5.87747175411144E-39
 11
-12.6947975158691
 21
2.800377368927
 31
5.87747175411144E-39
 12
-12.8869924545288
 22
1.71038258075714
 32
5.87747175411144E-39
 13
-12.8869924545288
 23
1.71038258075714
 33
5.87747175411144E-39
 0
3DFACE
 8
STL2DXF
 10
-12.8869924545288
 20
1.71038258075714
 30
5.87747175411144E-39
 11
-12.6947975158691
 21
2.800377368927
 31
5.87747175411144E-39
 12
-10.7486190795898
 22
7.31212568283081
 32
5.87747175411144E-39
 13
-10.7486190795898
 23
7.31212568283081
 33
5.87747175411144E-39
 0
3DFACE
 8
STL2DXF
 10
-12.6947975158691
 20
2.800377368927
 30
5.87747175411144E-39
 11
-12.4538631439209
 21
3.72844219207764
 31
5.87747175411144E-39
 12
-10.7486190795898
 22
7.31212568283081
 32
5.87747175411144E-39
 13
-10.7486190795898
 23
7.31212568283081
 33
5.87747175411144E-39
 0
3DFACE
 8
STL2DXF
 10
-10.7486190795898
 20
7.31212568283081
 30
5.87747175411144E-39
 11
-12.4538631439209
 21
3.72844219207764
 31
5.87747175411144E-39
 12
-12.1451816558838
 22
4.63622379302979
 32
5.87747175411144E-39
 13
-12.1451816558838
 23
4.63622379302979
 33
5.87747175411144E-39
 0
3DFACE
 8
STL2DXF
 10
5.83438968658447
 20
-11.6172246932983
 30
5.87747175411144E-39
 11
4.96226167678833
 21
-12.0156545639038
 31
5.87747175411144E-39
 12
7.59950399398804
 22
-10.5473947525024
 32
5.87747175411144E-39
 13
7.59950399398804
 23
-10.5473947525024
 33
5.87747175411144E-39
 0
3DFACE
 8
STL2DXF
 10
4.96226167678833
 20
-12.0156545639038
 30
5.87747175411144E-39
 11
3.92220067977905
 21
-12.3942060470581
 31
5.87747175411144E-39
 12
7.59950399398804
 22
-10.5473947525024
 32
5.87747175411144E-39
 13
7.59950399398804
 23
-10.5473947525024
 33
5.87747175411144E-39
 0
3DFACE
 8
STL2DXF
 10
7.59950399398804
 20
-10.5473947525024
 30
5.87747175411144E-39
 11
3.92220067977905
 21
-12.3942060470581
 31
5.87747175411144E-39
 12
-9.82705497741699
 22
-8.51052284240723
 32
5.87747175411144E-39
 13
-9.82705497741699
 23
-8.51052284240723
 33
5.87747175411144E-39
 0
3DFACE
 8
STL2DXF
 10
3.92220067977905
 20
-12.3942060470581
 30
5.87747175411144E-39
 11
2.99800634384155
 21
-12.6495838165283
 31
5.87747175411144E-39
 12
-9.82705497741699
 22
-8.51052284240723
 32
5.87747175411144E-39
 13
-9.82705497741699
 23
-8.51052284240723
 33
5.87747175411144E-39
 0
3DFACE
 8
STL2DXF
 10
-9.82705497741699
 20
-8.51052284240723
 30
5.87747175411144E-39
 11
2.99800634384155
 21
-12.6495838165283
 31
5.87747175411144E-39
 12
2.05750274658203
 22
-12.8361473083496
 32
5.87747175411144E-39
 13
2.05750274658203
 23
-12.8361473083496
 33
5.87747175411144E-39
 0
3DFACE
 8
STL2DXF
 10
13.9981184005737
 20
-0.439662039279938
 30
5.87747175411144E-39
 11
13.9545097351074
 21
-1.1883932352066
 31
5.87747175411144E-39
 12
12.9984188079834
 22
-0.202728942036629
 32
5.87747175411144E-39
 13
12.9984188079834
 23
-0.202728942036629
 33
5.87747175411144E-39
 0
3DFACE
 8
STL2DXF
 10
13.9545097351074
 20
-1.1883932352066
 30
5.87747175411144E-39
 11
12.934063911438
 21
-1.30766618251801
 31
5.87747175411144E-39
 12
12.9984188079834
 22
-0.202728942036629
 32
5.87747175411144E-39
 13
12.9984188079834
 23
-0.202728942036629
 33
5.87747175411144E-39
 0
3DFACE
 8
STL2DXF
 10
12.9984188079834
 20
-0.202728942036629
 30
5.87747175411144E-39
 11
12.934063911438
 21
-1.30766618251801
 31
5.87747175411144E-39
 12
12.2838563919067
 22
-4.25521850585938
 32
5.87747175411144E-39
 13
12.2838563919067
 23
-4.25521850585938
 33
5.87747175411144E-39
 0
3DFACE
 8
STL2DXF
 10
12.934063911438
 20
-1.30766618251801
 30
5.87747175411144E-39
 11
12.8025016784668
 21
-2.25742626190186
 31
5.87747175411144E-39
 12
12.2838563919067
 22
-4.25521850585938
 32
5.87747175411144E-39
 13
12.2838563919067
 23
-4.25521850585938
 33
5.87747175411144E-39
 0
3DFACE
 8
STL2DXF
 10
12.2838563919067
 20
-4.25521850585938
 30
5.87747175411144E-39
 11
12.8025016784668
 21
-2.25742626190186
 31
5.87747175411144E-39
 12
12.6012926101685
 22
-3.19490599632263
 32
5.87747175411144E-39
 13
12.6012926101685
 23
-3.19490599632263
 33
5.87747175411144E-39
 0
3DFACE
 8
STL2DXF
 10
1.99776518344879
 20
-13.8618021011353
 30
5.87747175411144E-39
 11
1.25283646583557
 21
-13.9488716125488
 31
5.87747175411144E-39
 12
2.05750274658203
 22
-12.8361473083496
 32
5.87747175411144E-39
 13
2.05750274658203
 23
-12.8361473083496
 33
5.87747175411144E-39
 0
3DFACE
 8
STL2DXF
 10
1.25283646583557
 20
-13.9488716125488
 30
5.87747175411144E-39
 11
0.958176791667938
 21
-12.9646396636963
 31
5.87747175411144E-39
 12
2.05750274658203
 22
-12.8361473083496
 32
5.87747175411144E-39
 13
2.05750274658203
 23
-12.8361473083496
 33
5.87747175411144E-39
 0
3DFACE
 8
STL2DXF
 10
2.05750274658203
 20
-12.8361473083496
 30
5.87747175411144E-39
 11
0.958176791667938
 21
-12.9646396636963
 31
5.87747175411144E-39
 12
-9.82705497741699
 22
-8.51052284240723
 32
5.87747175411144E-39
 13
-9.82705497741699
 23
-8.51052284240723
 33
5.87747175411144E-39
 0
3DFACE
 8
STL2DXF
 10
0.958176791667938
 20
-12.9646396636963
 30
5.87747175411144E-39
 11
-5.20048668164281E-15
 21
-13
 31
5.87747175411144E-39
 12
-9.82705497741699
 22
-8.51052284240723
 32
5.87747175411144E-39
 13
-9.82705497741699
 23
-8.51052284240723
 33
5.87747175411144E-39
 0
3DFACE
 8
STL2DXF
 10
-9.82705497741699
 20
-8.51052284240723
 30
5.87747175411144E-39
 11
-5.20048668164281E-15
 21
-13
 31
5.87747175411144E-39
 12
-0.958176791667938
 22
-12.9646396636963
 32
5.87747175411144E-39
 13
-0.958176791667938
 23
-12.9646396636963
 33
5.87747175411144E-39
 0
3DFACE
 8
STL2DXF
 10
-1.25283646583557
 20
-13.9488716125488
 30
5.87747175411144E-39
 11
-1.99776518344879
 21
-13.8618021011353
 31
5.87747175411144E-39
 12
-0.958176791667938
 22
-12.9646396636963
 32
5.87747175411144E-39
 13
-0.958176791667938
 23
-12.9646396636963
 33
5.87747175411144E-39
 0
3DFACE
 8
STL2DXF
 10
-1.99776518344879
 20
-13.8618021011353
 30
5.87747175411144E-39
 11
-2.05750274658203
 21
-12.8361473083496
 31
5.87747175411144E-39
 12
-0.958176791667938
 22
-12.9646396636963
 32
5.87747175411144E-39
 13
-0.958176791667938
 23
-12.9646396636963
 33
5.87747175411144E-39
 0
3DFACE
 8
STL2DXF
 10
-0.958176791667938
 20
-12.9646396636963
 30
5.87747175411144E-39
 11
-2.05750274658203
 21
-12.8361473083496
 31
5.87747175411144E-39
 12
-9.82705497741699
 22
-8.51052284240723
 32
5.87747175411144E-39
 13
-9.82705497741699
 23
-8.51052284240723
 33
5.87747175411144E-39
 0
3DFACE
 8
STL2DXF
 10
-2.05750274658203
 20
-12.8361473083496
 30
5.87747175411144E-39
 11
-2.99800634384155
 21
-12.6495838165283
 31
5.87747175411144E-39
 12
-9.82705497741699
 22
-8.51052284240723
 32
5.87747175411144E-39
 13
-9.82705497741699
 23
-8.51052284240723
 33
5.87747175411144E-39
 0
3DFACE
 8
STL2DXF
 10
-9.82705497741699
 20
-8.51052284240723
 30
5.87747175411144E-39
 11
-2.99800634384155
 21
-12.6495838165283
 31
5.87747175411144E-39
 12
-3.92220067977905
 22
-12.3942060470581
 32
5.87747175411144E-39
 13
-3.92220067977905
 23
-12.3942060470581
 33
5.87747175411144E-39
 0
3DFACE
 8
STL2DXF
 10
-12.7064962387085
 20
5.8894476890564
 30
10
 11
-11.7067966461182
 21
5.65251493453979
 31
10
 12
-12.7064962387085
 22
5.8894476890564
 32
5.87747175411144E-39
 13
-12.7064962387085
 23
5.8894476890564
 33
5.87747175411144E-39
 0
3DFACE
 8
STL2DXF
 10
-11.7067966461182
 20
5.65251493453979
 30
10
 11
-11.7067966461182
 21
5.65251493453979
 31
5.87747175411144E-39
 12
-12.7064962387085
 22
5.8894476890564
 32
5.87747175411144E-39
 13
-12.7064962387085
 23
5.8894476890564
 33
5.87747175411144E-39
 0
3DFACE
 8
STL2DXF
 10
-10.7486190795898
 20
7.31212568283081
 30
10
 11
-10.7486190795898
 21
7.31212568283081
 31
5.87747175411144E-39
 12
-11.2583303451538
 22
6.5
 32
5.87747175411144E-39
 13
-11.2583303451538
 23
6.5
 33
5.87747175411144E-39
 0
3DFACE
 8
STL2DXF
 10
-10.7486190795898
 20
7.31212568283081
 30
10
 11
-11.2583303451538
 21
6.5
 31
5.87747175411144E-39
 12
-11.2583303451538
 22
6.5
 32
10
 13
-11.2583303451538
 23
6.5
 33
10
 0
3DFACE
 8
STL2DXF
 10
-11.2583303451538
 20
6.5
 30
5.87747175411144E-39
 11
-11.7067966461182
 21
5.65251493453979
 31
5.87747175411144E-39
 12
-11.2583303451538
 22
6.5
 32
10
 13
-11.2583303451538
 23
6.5
 33
10
 0
3DFACE
 8
STL2DXF
 10
-11.2583303451538
 20
6.5
 30
10
 11
-11.7067966461182
 21
5.65251493453979
 31
5.87747175411144E-39
 12
-11.7067966461182
 22
5.65251493453979
 32
10
 13
-11.7067966461182
 23
5.65251493453979
 33
10
 0
3DFACE
 8
STL2DXF
 10
-10.7486190795898
 20
7.31212568283081
 30
10
 11
-11.4536590576172
 21
8.05942440032959
 31
10
 12
-10.7486190795898
 22
7.31212568283081
 32
5.87747175411144E-39
 13
-10.7486190795898
 23
7.31212568283081
 33
5.87747175411144E-39
 0
3DFACE
 8
STL2DXF
 10
-11.4536590576172
 20
8.05942440032959
 30
10
 11
-11.4536590576172
 21
8.05942440032959
 31
5.87747175411144E-39
 12
-10.7486190795898
 22
7.31212568283081
 32
5.87747175411144E-39
 13
-10.7486190795898
 23
7.31212568283081
 33
5.87747175411144E-39
 0
3DFACE
 8
STL2DXF
 10
-11.4536590576172
 20
8.05942440032959
 30
10
 11
-11.0057897567749
 21
8.6610164642334
 31
10
 12
-11.4536590576172
 22
8.05942440032959
 32
5.87747175411144E-39
 13
-11.4536590576172
 23
8.05942440032959
 33
5.87747175411144E-39
 0
3DFACE
 8
STL2DXF
 10
-11.0057897567749
 20
8.6610164642334
 30
10
 11
-11.0057897567749
 21
8.6610164642334
 31
5.87747175411144E-39
 12
-11.4536590576172
 22
8.05942440032959
 32
5.87747175411144E-39
 13
-11.4536590576172
 23
8.05942440032959
 33
5.87747175411144E-39
 0
3DFACE
 8
STL2DXF
 10
-11.0057897567749
 20
8.6610164642334
 30
10
 11
-10.0876779556274
 21
8.19992351531982
 31
10
 12
-11.0057897567749
 22
8.6610164642334
 32
5.87747175411144E-39
 13
-11.0057897567749
 23
8.6610164642334
 33
5.87747175411144E-39
 0
3DFACE
 8
STL2DXF
 10
-10.0876779556274
 20
8.19992351531982
 30
10
 11
-10.0876779556274
 21
8.19992351531982
 31
5.87747175411144E-39
 12
-11.0057897567749
 22
8.6610164642334
 32
5.87747175411144E-39
 13
-11.0057897567749
 23
8.6610164642334
 33
5.87747175411144E-39
 0
3DFACE
 8
STL2DXF
 10
-8.77259635925293
 20
9.59382820129395
 30
10
 11
-8.77259635925293
 21
9.59382820129395
 31
5.87747175411144E-39
 12
-9.45585823059082
 22
8.92114162445068
 32
5.87747175411144E-39
 13
-9.45585823059082
 23
8.92114162445068
 33
5.87747175411144E-39
 0
3DFACE
 8
STL2DXF
 10
-8.77259635925293
 20
9.59382820129395
 30
10
 11
-9.45585823059082
 21
8.92114162445068
 31
5.87747175411144E-39
 12
-9.45585823059082
 22
8.92114162445068
 32
10
 13
-9.45585823059082
 23
8.92114162445068
 33
10
 0
3DFACE
 8
STL2DXF
 10
-9.45585823059082
 20
8.92114162445068
 30
5.87747175411144E-39
 11
-10.0876779556274
 21
8.19992351531982
 31
5.87747175411144E-39
 12
-9.45585823059082
 22
8.92114162445068
 32
10
 13
-9.45585823059082
 23
8.92114162445068
 33
10
 0
3DFACE
 8
STL2DXF
 10
-9.45585823059082
 20
8.92114162445068
 30
10
 11
-10.0876779556274
 21
8.19992351531982
 31
5.87747175411144E-39
 12
-10.0876779556274
 22
8.19992351531982
 32
10
 13
-10.0876779556274
 23
8.19992351531982
 33
10
 0
3DFACE
 8
STL2DXF
 10
-8.77259635925293
 20
9.59382820129395
 30
10
 11
-9.28629302978516
 21
10.4835767745972
 31
10
 12
-8.77259635925293
 22
9.59382820129395
 32
5.87747175411144E-39
 13
-8.77259635925293
 23
9.59382820129395
 33
5.87747175411144E-39
 0
3DFACE
 8
STL2DXF
 10
-9.28629302978516
 20
10.4835767745972
 30
10
 11
-9.28629302978516
 21
10.4835767745972
 31
5.87747175411144E-39
 12
-8.77259635925293
 22
9.59382820129395
 32
5.87747175411144E-39
 13
-8.77259635925293
 23
9.59382820129395
 33
5.87747175411144E-39
 0
3DFACE
 8
STL2DXF
 10
-9.28629302978516
 20
10.4835767745972
 30
10
 11
-8.71175956726074
 21
10.9656677246094
 31
10
 12
-9.28629302978516
 22
10.4835767745972
 32
5.87747175411144E-39
 13
-9.28629302978516
 23
10.4835767745972
 33
5.87747175411144E-39
 0
3DFACE
 8
STL2DXF
 10
-8.71175956726074
 20
10.9656677246094
 30
10
 11
-8.71175956726074
 21
10.9656677246094
 31
5.87747175411144E-39
 12
-9.28629302978516
 22
10.4835767745972
 32
5.87747175411144E-39
 13
-9.28629302978516
 23
10.4835767745972
 33
5.87747175411144E-39
 0
3DFACE
 8
STL2DXF
 10
-8.71175956726074
 20
10.9656677246094
 30
10
 11
-7.92473077774048
 21
10.305272102356
 31
10
 12
-8.71175956726074
 22
10.9656677246094
 32
5.87747175411144E-39
 13
-8.71175956726074
 23
10.9656677246094
 33
5.87747175411144E-39
 0
3DFACE
 8
STL2DXF
 10
-7.92473077774048
 20
10.305272102356
 30
10
 11
-7.92473077774048
 21
10.305272102356
 31
5.87747175411144E-39
 12
-8.71175956726074
 22
10.9656677246094
 32
5.87747175411144E-39
 13
-8.71175956726074
 23
10.9656677246094
 33
5.87747175411144E-39
 0
3DFACE
 8
STL2DXF
 10
-6.32364130020142
 20
11.3583250045776
 30
10
 11
-6.32364130020142
 21
11.3583250045776
 31
5.87747175411144E-39
 12
-7.14361667633057
 22
10.8613414764404
 32
5.87747175411144E-39
 13
-7.14361667633057
 23
10.8613414764404
 33
5.87747175411144E-39
 0
3DFACE
 8
STL2DXF
 10
-6.32364130020142
 20
11.3583250045776
 30
10
 11
-7.14361667633057
 21
10.8613414764404
 31
5.87747175411144E-39
 12
-7.14361667633057
 22
10.8613414764404
 32
10
 13
-7.14361667633057
 23
10.8613414764404
 33
10
 0
3DFACE
 8
STL2DXF
 10
-7.14361667633057
 20
10.8613414764404
 30
5.87747175411144E-39
 11
-7.92473077774048
 21
10.305272102356
 31
5.87747175411144E-39
 12
-7.14361667633057
 22
10.8613414764404
 32
10
 13
-7.14361667633057
 23
10.8613414764404
 33
10
 0
3DFACE
 8
STL2DXF
 10
-7.14361667633057
 20
10.8613414764404
 30
10
 11
-7.92473077774048
 21
10.305272102356
 31
5.87747175411144E-39
 12
-7.92473077774048
 22
10.305272102356
 32
10
 13
-7.92473077774048
 23
10.305272102356
 33
10
 0
3DFACE
 8
STL2DXF
 10
-6.32364130020142
 20
11.3583250045776
 30
10
 11
-6.6183009147644
 21
12.3425569534302
 31
10
 12
-6.32364130020142
 22
11.3583250045776
 32
5.87747175411144E-39
 13
-6.32364130020142
 23
11.3583250045776
 33
5.87747175411144E-39
 0
3DFACE
 8
STL2DXF
 10
-6.6183009147644
 20
12.3425569534302
 30
10
 11
-6.6183009147644
 21
12.3425569534302
 31
5.87747175411144E-39
 12
-6.32364130020142
 22
11.3583250045776
 32
5.87747175411144E-39
 13
-6.32364130020142
 23
11.3583250045776
 33
5.87747175411144E-39
 0
3DFACE
 8
STL2DXF
 10
-6.6183009147644
 20
12.3425569534302
 30
10
 11
-5.9480767250061
 21
12.6791572570801
 31
10
 12
-6.6183009147644
 22
12.3425569534302
 32
5.87747175411144E-39
 13
-6.6183009147644
 23
12.3425569534302
 33
5.87747175411144E-39
 0
3DFACE
 8
STL2DXF
 10
-5.9480767250061
 20
12.6791572570801
 30
10
 11
-5.9480767250061
 21
12.6791572570801
 31
5.87747175411144E-39
 12
-6.6183009147644
 22
12.3425569534302
 32
5.87747175411144E-39
 13
-6.6183009147644
 23
12.3425569534302
 33
5.87747175411144E-39
 0
3DFACE
 8
STL2DXF
 10
-5.9480767250061
 20
12.6791572570801
 30
10
 11
-5.33455991744995
 21
11.8550615310669
 31
10
 12
-5.9480767250061
 22
12.6791572570801
 32
5.87747175411144E-39
 13
-5.9480767250061
 23
12.6791572570801
 33
5.87747175411144E-39
 0
3DFACE
 8
STL2DXF
 10
-5.33455991744995
 20
11.8550615310669
 30
10
 11
-5.33455991744995
 21
11.8550615310669
 31
5.87747175411144E-39
 12
-5.9480767250061
 22
12.6791572570801
 32
5.87747175411144E-39
 13
-5.9480767250061
 23
12.6791572570801
 33
5.87747175411144E-39
 0
3DFACE
 8
STL2DXF
 10
-3.53377628326416
 20
12.5104923248291
 30
10
 11
-3.53377628326416
 21
12.5104923248291
 31
5.87747175411144E-39
 12
-4.44626188278198
 22
12.2160034179688
 32
5.87747175411144E-39
 13
-4.44626188278198
 23
12.2160034179688
 33
5.87747175411144E-39
 0
3DFACE
 8
STL2DXF
 10
-3.53377628326416
 20
12.5104923248291
 30
10
 11
-4.44626188278198
 21
12.2160034179688
 31
5.87747175411144E-39
 12
-4.44626188278198
 22
12.2160034179688
 32
10
 13
-4.44626188278198
 23
12.2160034179688
 33
10
 0
3DFACE
 8
STL2DXF
 10
-4.44626188278198
 20
12.2160034179688
 30
5.87747175411144E-39
 11
-5.33455991744995
 21
11.8550615310669
 31
5.87747175411144E-39
 12
-4.44626188278198
 22
12.2160034179688
 32
10
 13
-4.44626188278198
 23
12.2160034179688
 33
10
 0
3DFACE
 8
STL2DXF
 10
-4.44626188278198
 20
12.2160034179688
 30
10
 11
-5.33455991744995
 21
11.8550615310669
 31
5.87747175411144E-39
 12
-5.33455991744995
 22
11.8550615310669
 32
10
 13
-5.33455991744995
 23
11.8550615310669
 33
10
 0
3DFACE
 8
STL2DXF
 10
-3.53377628326416
 20
12.5104923248291
 30
10
 11
-3.59351396560669
 21
13.5361471176147
 31
10
 12
-3.53377628326416
 22
12.5104923248291
 32
5.87747175411144E-39
 13
-3.53377628326416
 23
12.5104923248291
 33
5.87747175411144E-39
 0
3DFACE
 8
STL2DXF
 10
-3.59351396560669
 20
13.5361471176147
 30
10
 11
-3.59351396560669
 21
13.5361471176147
 31
5.87747175411144E-39
 12
-3.53377628326416
 22
12.5104923248291
 32
5.87747175411144E-39
 13
-3.53377628326416
 23
12.5104923248291
 33
5.87747175411144E-39
 0
3DFACE
 8
STL2DXF
 10
-3.59351396560669
 20
13.5361471176147
 30
10
 11
-2.86373019218445
 21
13.7091093063354
 31
10
 12
-3.59351396560669
 22
13.5361471176147
 32
5.87747175411144E-39
 13
-3.59351396560669
 23
13.5361471176147
 33
5.87747175411144E-39
 0
3DFACE
 8
STL2DXF
 10
-2.86373019218445
 20
13.7091093063354
 30
10
 11
-2.86373019218445
 21
13.7091093063354
 31
5.87747175411144E-39
 12
-3.59351396560669
 22
13.5361471176147
 32
5.87747175411144E-39
 13
-3.59351396560669
 23
13.5361471176147
 33
5.87747175411144E-39
 0
3DFACE
 8
STL2DXF
 10
-2.86373019218445
 20
13.7091093063354
 30
10
 11
-2.45680069923401
 21
12.7657403945923
 31
10
 12
-2.86373019218445
 22
13.7091093063354
 32
5.87747175411144E-39
 13
-2.86373019218445
 23
13.7091093063354
 33
5.87747175411144E-39
 0
3DFACE
 8
STL2DXF
 10
-2.45680069923401
 20
12.7657403945923
 30
10
 11
-2.45680069923401
 21
12.7657403945923
 31
5.87747175411144E-39
 12
-2.86373019218445
 22
13.7091093063354
 32
5.87747175411144E-39
 13
-2.86373019218445
 23
13.7091093063354
 33
5.87747175411144E-39
 0
3DFACE
 8
STL2DXF
 10
-0.553404927253723
 20
12.9882154464722
 30
10
 11
-0.553404927253723
 21
12.9882154464722
 31
5.87747175411144E-39
 12
-1.50920784473419
 22
12.9120979309082
 32
5.87747175411144E-39
 13
-1.50920784473419
 23
12.9120979309082
 33
5.87747175411144E-39
 0
3DFACE
 8
STL2DXF
 10
-0.553404927253723
 20
12.9882154464722
 30
10
 11
-1.50920784473419
 21
12.9120979309082
 31
5.87747175411144E-39
 12
-1.50920784473419
 22
12.9120979309082
 32
10
 13
-1.50920784473419
 23
12.9120979309082
 33
10
 0
3DFACE
 8
STL2DXF
 10
-1.50920784473419
 20
12.9120979309082
 30
5.87747175411144E-39
 11
-2.45680069923401
 21
12.7657403945923
 31
5.87747175411144E-39
 12
-1.50920784473419
 22
12.9120979309082
 32
10
 13
-1.50920784473419
 23
12.9120979309082
 33
10
 0
3DFACE
 8
STL2DXF
 10
-1.50920784473419
 20
12.9120979309082
 30
10
 11
-2.45680069923401
 21
12.7657403945923
 31
5.87747175411144E-39
 12
-2.45680069923401
 22
12.7657403945923
 32
10
 13
-2.45680069923401
 23
12.7657403945923
 33
10
 0
3DFACE
 8
STL2DXF
 10
-0.553404927253723
 20
12.9882154464722
 30
10
 11
-0.375
 21
14
 31
10
 12
-0.553404927253723
 22
12.9882154464722
 32
5.87747175411144E-39
 13
-0.553404927253723
 23
12.9882154464722
 33
5.87747175411144E-39
 0
3DFACE
 8
STL2DXF
 10
-0.375
 20
14
 30
10
 11
-0.375
 21
14
 31
5.87747175411144E-39
 12
-0.553404927253723
 22
12.9882154464722
 32
5.87747175411144E-39
 13
-0.553404927253723
 23
12.9882154464722
 33
5.87747175411144E-39
 0
3DFACE
 8
STL2DXF
 10
-0.375
 20
14
 30
10
 11
0.375
 21
14
 31
10
 12
-0.375
 22
14
 32
5.87747175411144E-39
 13
-0.375
 23
14
 33
5.87747175411144E-39
 0
3DFACE
 8
STL2DXF
 10
0.375
 20
14
 30
10
 11
0.375
 21
14
 31
5.87747175411144E-39
 12
-0.375
 22
14
 32
5.87747175411144E-39
 13
-0.375
 23
14
 33
5.87747175411144E-39
 0
3DFACE
 8
STL2DXF
 10
0.375
 20
14
 30
10
 11
0.553404927253723
 21
12.9882154464722
 31
10
 12
0.375
 22
14
 32
5.87747175411144E-39
 13
0.375
 23
14
 33
5.87747175411144E-39
 0
3DFACE
 8
STL2DXF
 10
0.553404927253723
 20
12.9882154464722
 30
10
 11
0.553404927253723
 21
12.9882154464722
 31
5.87747175411144E-39
 12
0.375
 22
14
 32
5.87747175411144E-39
 13
0.375
 23
14
 33
5.87747175411144E-39
 0
3DFACE
 8
STL2DXF
 10
2.45680069923401
 20
12.7657403945923
 30
10
 11
2.45680069923401
 21
12.7657403945923
 31
5.87747175411144E-39
 12
1.50920784473419
 22
12.9120979309082
 32
5.87747175411144E-39
 13
1.50920784473419
 23
12.9120979309082
 33
5.87747175411144E-39
 0
3DFACE
 8
STL2DXF
 10
2.45680069923401
 20
12.7657403945923
 30
10
 11
1.50920784473419
 21
12.9120979309082
 31
5.87747175411144E-39
 12
1.50920784473419
 22
12.9120979309082
 32
10
 13
1.50920784473419
 23
12.9120979309082
 33
10
 0
3DFACE
 8
STL2DXF
 10
1.50920784473419
 20
12.9120979309082
 30
5.87747175411144E-39
 11
0.553404927253723
 21
12.9882154464722
 31
5.87747175411144E-39
 12
1.50920784473419
 22
12.9120979309082
 32
10
 13
1.50920784473419
 23
12.9120979309082
 33
10
 0
3DFACE
 8
STL2DXF
 10
1.50920784473419
 20
12.9120979309082
 30
10
 11
0.553404927253723
 21
12.9882154464722
 31
5.87747175411144E-39
 12
0.553404927253723
 22
12.9882154464722
 32
10
 13
0.553404927253723
 23
12.9882154464722
 33
10
 0
3DFACE
 8
STL2DXF
 10
2.45680069923401
 20
12.7657403945923
 30
10
 11
2.86373019218445
 21
13.7091093063354
 31
10
 12
2.45680069923401
 22
12.7657403945923
 32
5.87747175411144E-39
 13
2.45680069923401
 23
12.7657403945923
 33
5.87747175411144E-39
 0
3DFACE
 8
STL2DXF
 10
2.86373019218445
 20
13.7091093063354
 30
10
 11
2.86373019218445
 21
13.7091093063354
 31
5.87747175411144E-39
 12
2.45680069923401
 22
12.7657403945923
 32
5.87747175411144E-39
 13
2.45680069923401
 23
12.7657403945923
 33
5.87747175411144E-39
 0
3DFACE
 8
STL2DXF
 10
2.86373019218445
 20
13.7091093063354
 30
10
 11
3.59351396560669
 21
13.5361471176147
 31
10
 12
2.86373019218445
 22
13.7091093063354
 32
5.87747175411144E-39
 13
2.86373019218445
 23
13.7091093063354
 33
5.87747175411144E-39
 0
3DFACE
 8
STL2DXF
 10
3.59351396560669
 20
13.5361471176147
 30
10
 11
3.59351396560669
 21
13.5361471176147
 31
5.87747175411144E-39
 12
2.86373019218445
 22
13.7091093063354
 32
5.87747175411144E-39
 13
2.86373019218445
 23
13.7091093063354
 33
5.87747175411144E-39
 0
3DFACE
 8
STL2DXF
 10
3.59351396560669
 20
13.5361471176147
 30
10
 11
3.53377628326416
 21
12.5104923248291
 31
10
 12
3.59351396560669
 22
13.5361471176147
 32
5.87747175411144E-39
 13
3.59351396560669
 23
13.5361471176147
 33
5.87747175411144E-39
 0
3DFACE
 8
STL2DXF
 10
3.53377628326416
 20
12.5104923248291
 30
10
 11
3.53377628326416
 21
12.5104923248291
 31
5.87747175411144E-39
 12
3.59351396560669
 22
13.5361471176147
 32
5.87747175411144E-39
 13
3.59351396560669
 23
13.5361471176147
 33
5.87747175411144E-39
 0
3DFACE
 8
STL2DXF
 10
5.33455991744995
 20
11.8550615310669
 30
10
 11
5.33455991744995
 21
11.8550615310669
 31
5.87747175411144E-39
 12
4.44626188278198
 22
12.2160034179688
 32
5.87747175411144E-39
 13
4.44626188278198
 23
12.2160034179688
 33
5.87747175411144E-39
 0
3DFACE
 8
STL2DXF
 10
5.33455991744995
 20
11.8550615310669
 30
10
 11
4.44626188278198
 21
12.2160034179688
 31
5.87747175411144E-39
 12
4.44626188278198
 22
12.2160034179688
 32
10
 13
4.44626188278198
 23
12.2160034179688
 33
10
 0
3DFACE
 8
STL2DXF
 10
4.44626188278198
 20
12.2160034179688
 30
5.87747175411144E-39
 11
3.53377628326416
 21
12.5104923248291
 31
5.87747175411144E-39
 12
4.44626188278198
 22
12.2160034179688
 32
10
 13
4.44626188278198
 23
12.2160034179688
 33
10
 0
3DFACE
 8
STL2DXF
 10
4.44626188278198
 20
12.2160034179688
 30
10
 11
3.53377628326416
 21
12.5104923248291
 31
5.87747175411144E-39
 12
3.53377628326416
 22
12.5104923248291
 32
10
 13
3.53377628326416
 23
12.5104923248291
 33
10
 0
3DFACE
 8
STL2DXF
 10
5.33455991744995
 20
11.8550615310669
 30
10
 11
5.9480767250061
 21
12.6791572570801
 31
10
 12
5.33455991744995
 22
11.8550615310669
 32
5.87747175411144E-39
 13
5.33455991744995
 23
11.8550615310669
 33
5.87747175411144E-39
 0
3DFACE
 8
STL2DXF
 10
5.9480767250061
 20
12.6791572570801
 30
10
 11
5.9480767250061
 21
12.6791572570801
 31
5.87747175411144E-39
 12
5.33455991744995
 22
11.8550615310669
 32
5.87747175411144E-39
 13
5.33455991744995
 23
11.8550615310669
 33
5.87747175411144E-39
 0
3DFACE
 8
STL2DXF
 10
5.9480767250061
 20
12.6791572570801
 30
10
 11
6.6183009147644
 21
12.3425569534302
 31
10
 12
5.9480767250061
 22
12.6791572570801
 32
5.87747175411144E-39
 13
5.9480767250061
 23
12.6791572570801
 33
5.87747175411144E-39
 0
3DFACE
 8
STL2DXF
 10
6.6183009147644
 20
12.3425569534302
 30
10
 11
6.6183009147644
 21
12.3425569534302
 31
5.87747175411144E-39
 12
5.9480767250061
 22
12.6791572570801
 32
5.87747175411144E-39
 13
5.9480767250061
 23
12.6791572570801
 33
5.87747175411144E-39
 0
3DFACE
 8
STL2DXF
 10
6.6183009147644
 20
12.3425569534302
 30
10
 11
6.32364130020142
 21
11.3583250045776
 31
10
 12
6.6183009147644
 22
12.3425569534302
 32
5.87747175411144E-39
 13
6.6183009147644
 23
12.3425569534302
 33
5.87747175411144E-39
 0
3DFACE
 8
STL2DXF
 10
6.32364130020142
 20
11.3583250045776
 30
10
 11
6.32364130020142
 21
11.3583250045776
 31
5.87747175411144E-39
 12
6.6183009147644
 22
12.3425569534302
 32
5.87747175411144E-39
 13
6.6183009147644
 23
12.3425569534302
 33
5.87747175411144E-39
 0
3DFACE
 8
STL2DXF
 10
7.92473077774048
 20
10.305272102356
 30
10
 11
7.92473077774048
 21
10.305272102356
 31
5.87747175411144E-39
 12
7.14361667633057
 22
10.8613414764404
 32
5.87747175411144E-39
 13
7.14361667633057
 23
10.8613414764404
 33
5.87747175411144E-39
 0
3DFACE
 8
STL2DXF
 10
7.92473077774048
 20
10.305272102356
 30
10
 11
7.14361667633057
 21
10.8613414764404
 31
5.87747175411144E-39
 12
7.14361667633057
 22
10.8613414764404
 32
10
 13
7.14361667633057
 23
10.8613414764404
 33
10
 0
3DFACE
 8
STL2DXF
 10
7.14361667633057
 20
10.8613414764404
 30
5.87747175411144E-39
 11
6.32364130020142
 21
11.3583250045776
 31
5.87747175411144E-39
 12
7.14361667633057
 22
10.8613414764404
 32
10
 13
7.14361667633057
 23
10.8613414764404
 33
10
 0
3DFACE
 8
STL2DXF
 10
7.14361667633057
 20
10.8613414764404
 30
10
 11
6.32364130020142
 21
11.3583250045776
 31
5.87747175411144E-39
 12
6.32364130020142
 22
11.3583250045776
 32
10
 13
6.32364130020142
 23
11.3583250045776
 33
10
 0
3DFACE
 8
STL2DXF
 10
1.25283646583557
 20
-13.9488716125488
 30
10
 11
0.958176791667938
 21
-12.9646396636963
 31
10
 12
1.25283646583557
 22
-13.9488716125488
 32
5.87747175411144E-39
 13
1.25283646583557
 23
-13.9488716125488
 33
5.87747175411144E-39
 0
3DFACE
 8
STL2DXF
 10
0.958176791667938
 20
-12.9646396636963
 30
10
 11
0.958176791667938
 21
-12.9646396636963
 31
5.87747175411144E-39
 12
1.25283646583557
 22
-13.9488716125488
 32
5.87747175411144E-39
 13
1.25283646583557
 23
-13.9488716125488
 33
5.87747175411144E-39
 0
3DFACE
 8
STL2DXF
 10
-0.958176791667938
 20
-12.9646396636963
 30
10
 11
-1.25283646583557
 21
-13.9488716125488
 31
10
 12
-0.958176791667938
 22
-12.9646396636963
 32
5.87747175411144E-39
 13
-0.958176791667938
 23
-12.9646396636963
 33
5.87747175411144E-39
 0
3DFACE
 8
STL2DXF
 10
-1.25283646583557
 20
-13.9488716125488
 30
10
 11
-1.25283646583557
 21
-13.9488716125488
 31
5.87747175411144E-39
 12
-0.958176791667938
 22
-12.9646396636963
 32
5.87747175411144E-39
 13
-0.958176791667938
 23
-12.9646396636963
 33
5.87747175411144E-39
 0
3DFACE
 8
STL2DXF
 10
-1.25283646583557
 20
-13.9488716125488
 30
10
 11
-1.99776518344879
 21
-13.8618021011353
 31
10
 12
-1.25283646583557
 22
-13.9488716125488
 32
5.87747175411144E-39
 13
-1.25283646583557
 23
-13.9488716125488
 33
5.87747175411144E-39
 0
3DFACE
 8
STL2DXF
 10
-1.99776518344879
 20
-13.8618021011353
 30
10
 11
-1.99776518344879
 21
-13.8618021011353
 31
5.87747175411144E-39
 12
-1.25283646583557
 22
-13.9488716125488
 32
5.87747175411144E-39
 13
-1.25283646583557
 23
-13.9488716125488
 33
5.87747175411144E-39
 0
3DFACE
 8
STL2DXF
 10
-1.99776518344879
 20
-13.8618021011353
 30
10
 11
-2.05750274658203
 21
-12.8361473083496
 31
10
 12
-1.99776518344879
 22
-13.8618021011353
 32
5.87747175411144E-39
 13
-1.99776518344879
 23
-13.8618021011353
 33
5.87747175411144E-39
 0
3DFACE
 8
STL2DXF
 10
-2.05750274658203
 20
-12.8361473083496
 30
10
 11
-2.05750274658203
 21
-12.8361473083496
 31
5.87747175411144E-39
 12
-1.99776518344879
 22
-13.8618021011353
 32
5.87747175411144E-39
 13
-1.99776518344879
 23
-13.8618021011353
 33
5.87747175411144E-39
 0
3DFACE
 8
STL2DXF
 10
-3.92220067977905
 20
-12.3942060470581
 30
10
 11
-4.43589735031128
 21
-13.283953666687
 31
10
 12
-3.92220067977905
 22
-12.3942060470581
 32
5.87747175411144E-39
 13
-3.92220067977905
 23
-12.3942060470581
 33
5.87747175411144E-39
 0
3DFACE
 8
STL2DXF
 10
-4.43589735031128
 20
-13.283953666687
 30
10
 11
-4.43589735031128
 21
-13.283953666687
 31
5.87747175411144E-39
 12
-3.92220067977905
 22
-12.3942060470581
 32
5.87747175411144E-39
 13
-3.92220067977905
 23
-12.3942060470581
 33
5.87747175411144E-39
 0
3DFACE
 8
STL2DXF
 10
-4.43589735031128
 20
-13.283953666687
 30
10
 11
-5.14066696166992
 21
-13.0274391174316
 31
10
 12
-4.43589735031128
 22
-13.283953666687
 32
5.87747175411144E-39
 13
-4.43589735031128
 23
-13.283953666687
 33
5.87747175411144E-39
 0
3DFACE
 8
STL2DXF
 10
-5.14066696166992
 20
-13.0274391174316
 30
10
 11
-5.14066696166992
 21
-13.0274391174316
 31
5.87747175411144E-39
 12
-4.43589735031128
 22
-13.283953666687
 32
5.87747175411144E-39
 13
-4.43589735031128
 23
-13.283953666687
 33
5.87747175411144E-39
 0
3DFACE
 8
STL2DXF
 10
-5.14066696166992
 20
-13.0274391174316
 30
10
 11
-4.96226167678833
 21
-12.0156545639038
 31
10
 12
-5.14066696166992
 22
-13.0274391174316
 32
5.87747175411144E-39
 13
-5.14066696166992
 23
-13.0274391174316
 33
5.87747175411144E-39
 0
3DFACE
 8
STL2DXF
 10
-4.96226167678833
 20
-12.0156545639038
 30
10
 11
-4.96226167678833
 21
-12.0156545639038
 31
5.87747175411144E-39
 12
-5.14066696166992
 22
-13.0274391174316
 32
5.87747175411144E-39
 13
-5.14066696166992
 23
-13.0274391174316
 33
5.87747175411144E-39
 0
3DFACE
 8
STL2DXF
 10
-6.67477798461914
 20
-11.1555967330933
 30
10
 11
-7.37981796264648
 21
-11.9028949737549
 31
10
 12
-6.67477798461914
 22
-11.1555967330933
 32
5.87747175411144E-39
 13
-6.67477798461914
 23
-11.1555967330933
 33
5.87747175411144E-39
 0
3DFACE
 8
STL2DXF
 10
-7.37981796264648
 20
-11.9028949737549
 30
10
 11
-7.37981796264648
 21
-11.9028949737549
 31
5.87747175411144E-39
 12
-6.67477798461914
 22
-11.1555967330933
 32
5.87747175411144E-39
 13
-6.67477798461914
 23
-11.1555967330933
 33
5.87747175411144E-39
 0
3DFACE
 8
STL2DXF
 10
-7.37981796264648
 20
-11.9028949737549
 30
10
 11
-8.00643348693848
 21
-11.4907627105713
 31
10
 12
-7.37981796264648
 22
-11.9028949737549
 32
5.87747175411144E-39
 13
-7.37981796264648
 23
-11.9028949737549
 33
5.87747175411144E-39
 0
3DFACE
 8
STL2DXF
 10
-8.00643348693848
 20
-11.4907627105713
 30
10
 11
-8.00643348693848
 21
-11.4907627105713
 31
5.87747175411144E-39
 12
-7.37981796264648
 22
-11.9028949737549
 32
5.87747175411144E-39
 13
-7.37981796264648
 23
-11.9028949737549
 33
5.87747175411144E-39
 0
3DFACE
 8
STL2DXF
 10
-8.00643348693848
 20
-11.4907627105713
 30
10
 11
-7.59950399398804
 21
-10.5473947525024
 31
10
 12
-8.00643348693848
 22
-11.4907627105713
 32
5.87747175411144E-39
 13
-8.00643348693848
 23
-11.4907627105713
 33
5.87747175411144E-39
 0
3DFACE
 8
STL2DXF
 10
-7.59950399398804
 20
-10.5473947525024
 30
10
 11
-7.59950399398804
 21
-10.5473947525024
 31
5.87747175411144E-39
 12
-8.00643348693848
 22
-11.4907627105713
 32
5.87747175411144E-39
 13
-8.00643348693848
 23
-11.4907627105713
 33
5.87747175411144E-39
 0
3DFACE
 8
STL2DXF
 10
-0.958176791667938
 20
-12.9646396636963
 30
10
 11
-0.958176791667938
 21
-12.9646396636963
 31
5.87747175411144E-39
 12
-5.20048668164281E-15
 22
-13
 32
5.87747175411144E-39
 13
-5.20048668164281E-15
 23
-13
 33
5.87747175411144E-39
 0
3DFACE
 8
STL2DXF
 10
-0.958176791667938
 20
-12.9646396636963
 30
10
 11
-5.20048668164281E-15
 21
-13
 31
5.87747175411144E-39
 12
-5.20048668164281E-15
 22
-13
 32
10
 13
-5.20048668164281E-15
 23
-13
 33
10
 0
3DFACE
 8
STL2DXF
 10
-5.20048668164281E-15
 20
-13
 30
5.87747175411144E-39
 11
0.958176791667938
 21
-12.9646396636963
 31
5.87747175411144E-39
 12
-5.20048668164281E-15
 22
-13
 32
10
 13
-5.20048668164281E-15
 23
-13
 33
10
 0
3DFACE
 8
STL2DXF
 10
-5.20048668164281E-15
 20
-13
 30
10
 11
0.958176791667938
 21
-12.9646396636963
 31
5.87747175411144E-39
 12
0.958176791667938
 22
-12.9646396636963
 32
10
 13
0.958176791667938
 23
-12.9646396636963
 33
10
 0
3DFACE
 8
STL2DXF
 10
7.92473077774048
 20
10.305272102356
 30
10
 11
8.71175956726074
 21
10.9656677246094
 31
10
 12
7.92473077774048
 22
10.305272102356
 32
5.87747175411144E-39
 13
7.92473077774048
 23
10.305272102356
 33
5.87747175411144E-39
 0
3DFACE
 8
STL2DXF
 10
8.71175956726074
 20
10.9656677246094
 30
10
 11
8.71175956726074
 21
10.9656677246094
 31
5.87747175411144E-39
 12
7.92473077774048
 22
10.305272102356
 32
5.87747175411144E-39
 13
7.92473077774048
 23
10.305272102356
 33
5.87747175411144E-39
 0
3DFACE
 8
STL2DXF
 10
-9.06751537322998
 20
-9.31558704376221
 30
10
 11
-9.92589092254639
 21
-9.88014793395996
 31
10
 12
-9.06751537322998
 22
-9.31558704376221
 32
5.87747175411144E-39
 13
-9.06751537322998
 23
-9.31558704376221
 33
5.87747175411144E-39
 0
3DFACE
 8
STL2DXF
 10
-9.92589092254639
 20
-9.88014793395996
 30
10
 11
-9.92589092254639
 21
-9.88014793395996
 31
5.87747175411144E-39
 12
-9.06751537322998
 22
-9.31558704376221
 32
5.87747175411144E-39
 13
-9.06751537322998
 23
-9.31558704376221
 33
5.87747175411144E-39
 0
3DFACE
 8
STL2DXF
 10
-9.92589092254639
 20
-9.88014793395996
 30
10
 11
-10.4405708312988
 21
-9.33461856842041
 31
10
 12
-9.92589092254639
 22
-9.88014793395996
 32
5.87747175411144E-39
 13
-9.92589092254639
 23
-9.88014793395996
 33
5.87747175411144E-39
 0
3DFACE
 8
STL2DXF
 10
-10.4405708312988
 20
-9.33461856842041
 30
10
 11
-10.4405708312988
 21
-9.33461856842041
 31
5.87747175411144E-39
 12
-9.92589092254639
 22
-9.88014793395996
 32
5.87747175411144E-39
 13
-9.92589092254639
 23
-9.88014793395996
 33
5.87747175411144E-39
 0
3DFACE
 8
STL2DXF
 10
-10.4405708312988
 20
-9.33461856842041
 30
10
 11
-9.82705497741699
 21
-8.51052284240723
 31
10
 12
-10.4405708312988
 22
-9.33461856842041
 32
5.87747175411144E-39
 13
-10.4405708312988
 23
-9.33461856842041
 33
5.87747175411144E-39
 0
3DFACE
 8
STL2DXF
 10
-9.82705497741699
 20
-8.51052284240723
 30
10
 11
-9.82705497741699
 21
-8.51052284240723
 31
5.87747175411144E-39
 12
-10.4405708312988
 22
-9.33461856842041
 32
5.87747175411144E-39
 13
-10.4405708312988
 23
-9.33461856842041
 33
5.87747175411144E-39
 0
3DFACE
 8
STL2DXF
 10
-9.06751537322998
 20
-9.31558704376221
 30
10
 11
-9.06751537322998
 21
-9.31558704376221
 31
5.87747175411144E-39
 12
-8.35623836517334
 22
-9.95857715606689
 32
5.87747175411144E-39
 13
-8.35623836517334
 23
-9.95857715606689
 33
5.87747175411144E-39
 0
3DFACE
 8
STL2DXF
 10
-9.06751537322998
 20
-9.31558704376221
 30
10
 11
-8.35623836517334
 21
-9.95857715606689
 31
5.87747175411144E-39
 12
-8.35623836517334
 22
-9.95857715606689
 32
10
 13
-8.35623836517334
 23
-9.95857715606689
 33
10
 0
3DFACE
 8
STL2DXF
 10
-8.35623836517334
 20
-9.95857715606689
 30
5.87747175411144E-39
 11
-7.59950399398804
 21
-10.5473947525024
 31
5.87747175411144E-39
 12
-8.35623836517334
 22
-9.95857715606689
 32
10
 13
-8.35623836517334
 23
-9.95857715606689
 33
10
 0
3DFACE
 8
STL2DXF
 10
-8.35623836517334
 20
-9.95857715606689
 30
10
 11
-7.59950399398804
 21
-10.5473947525024
 31
5.87747175411144E-39
 12
-7.59950399398804
 22
-10.5473947525024
 32
10
 13
-7.59950399398804
 23
-10.5473947525024
 33
10
 0
3DFACE
 8
STL2DXF
 10
10.0876779556274
 20
8.19992351531982
 30
10
 11
11.0057897567749
 21
8.6610164642334
 31
10
 12
10.0876779556274
 22
8.19992351531982
 32
5.87747175411144E-39
 13
10.0876779556274
 23
8.19992351531982
 33
5.87747175411144E-39
 0
3DFACE
 8
STL2DXF
 10
11.0057897567749
 20
8.6610164642334
 30
10
 11
11.0057897567749
 21
8.6610164642334
 31
5.87747175411144E-39
 12
10.0876779556274
 22
8.19992351531982
 32
5.87747175411144E-39
 13
10.0876779556274
 23
8.19992351531982
 33
5.87747175411144E-39
 0
3DFACE
 8
STL2DXF
 10
-10.9714221954346
 20
-6.97337055206299
 30
10
 11
-11.9368553161621
 21
-7.3247594833374
 31
10
 12
-10.9714221954346
 22
-6.97337055206299
 32
5.87747175411144E-39
 13
-10.9714221954346
 23
-6.97337055206299
 33
5.87747175411144E-39
 0
3DFACE
 8
STL2DXF
 10
-11.9368553161621
 20
-7.3247594833374
 30
10
 11
-11.9368553161621
 21
-7.3247594833374
 31
5.87747175411144E-39
 12
-10.9714221954346
 22
-6.97337055206299
 32
5.87747175411144E-39
 13
-10.9714221954346
 23
-6.97337055206299
 33
5.87747175411144E-39
 0
3DFACE
 8
STL2DXF
 10
-6.67477798461914
 20
-11.1555967330933
 30
10
 11
-6.67477798461914
 21
-11.1555967330933
 31
5.87747175411144E-39
 12
-5.83438968658447
 22
-11.6172246932983
 32
5.87747175411144E-39
 13
-5.83438968658447
 23
-11.6172246932983
 33
5.87747175411144E-39
 0
3DFACE
 8
STL2DXF
 10
-6.67477798461914
 20
-11.1555967330933
 30
10
 11
-5.83438968658447
 21
-11.6172246932983
 31
5.87747175411144E-39
 12
-5.83438968658447
 22
-11.6172246932983
 32
10
 13
-5.83438968658447
 23
-11.6172246932983
 33
10
 0
3DFACE
 8
STL2DXF
 10
-5.83438968658447
 20
-11.6172246932983
 30
5.87747175411144E-39
 11
-4.96226167678833
 21
-12.0156545639038
 31
5.87747175411144E-39
 12
-5.83438968658447
 22
-11.6172246932983
 32
10
 13
-5.83438968658447
 23
-11.6172246932983
 33
10
 0
3DFACE
 8
STL2DXF
 10
-5.83438968658447
 20
-11.6172246932983
 30
10
 11
-4.96226167678833
 21
-12.0156545639038
 31
5.87747175411144E-39
 12
-4.96226167678833
 22
-12.0156545639038
 32
10
 13
-4.96226167678833
 23
-12.0156545639038
 33
10
 0
3DFACE
 8
STL2DXF
 10
11.0057897567749
 20
8.6610164642334
 30
10
 11
11.4536590576172
 21
8.05942440032959
 31
10
 12
11.0057897567749
 22
8.6610164642334
 32
5.87747175411144E-39
 13
11.0057897567749
 23
8.6610164642334
 33
5.87747175411144E-39
 0
3DFACE
 8
STL2DXF
 10
11.4536590576172
 20
8.05942440032959
 30
10
 11
11.4536590576172
 21
8.05942440032959
 31
5.87747175411144E-39
 12
11.0057897567749
 22
8.6610164642334
 32
5.87747175411144E-39
 13
11.0057897567749
 23
8.6610164642334
 33
5.87747175411144E-39
 0
3DFACE
 8
STL2DXF
 10
-11.9368553161621
 20
-7.3247594833374
 30
10
 11
-12.3118553161621
 21
-6.6752405166626
 31
10
 12
-11.9368553161621
 22
-7.3247594833374
 32
5.87747175411144E-39
 13
-11.9368553161621
 23
-7.3247594833374
 33
5.87747175411144E-39
 0
3DFACE
 8
STL2DXF
 10
-12.3118553161621
 20
-6.6752405166626
 30
10
 11
-12.3118553161621
 21
-6.6752405166626
 31
5.87747175411144E-39
 12
-11.9368553161621
 22
-7.3247594833374
 32
5.87747175411144E-39
 13
-11.9368553161621
 23
-7.3247594833374
 33
5.87747175411144E-39
 0
3DFACE
 8
STL2DXF
 10
-12.8869924545288
 20
1.71038258075714
 30
10
 11
-13.8524265289307
 21
2.06177163124084
 31
10
 12
-12.8869924545288
 22
1.71038258075714
 32
5.87747175411144E-39
 13
-12.8869924545288
 23
1.71038258075714
 33
5.87747175411144E-39
 0
3DFACE
 8
STL2DXF
 10
-13.8524265289307
 20
2.06177163124084
 30
10
 11
-13.8524265289307
 21
2.06177163124084
 31
5.87747175411144E-39
 12
-12.8869924545288
 22
1.71038258075714
 32
5.87747175411144E-39
 13
-12.8869924545288
 23
1.71038258075714
 33
5.87747175411144E-39
 0
3DFACE
 8
STL2DXF
 10
-13.8524265289307
 20
2.06177163124084
 30
10
 11
-13.7221908569336
 21
2.800377368927
 31
10
 12
-13.8524265289307
 22
2.06177163124084
 32
5.87747175411144E-39
 13
-13.8524265289307
 23
2.06177163124084
 33
5.87747175411144E-39
 0
3DFACE
 8
STL2DXF
 10
-13.7221908569336
 20
2.800377368927
 30
10
 11
-13.7221908569336
 21
2.800377368927
 31
5.87747175411144E-39
 12
-13.8524265289307
 22
2.06177163124084
 32
5.87747175411144E-39
 13
-13.8524265289307
 23
2.06177163124084
 33
5.87747175411144E-39
 0
3DFACE
 8
STL2DXF
 10
-13.7221908569336
 20
2.800377368927
 30
10
 11
-12.6947975158691
 21
2.800377368927
 31
10
 12
-13.7221908569336
 22
2.800377368927
 32
5.87747175411144E-39
 13
-13.7221908569336
 23
2.800377368927
 33
5.87747175411144E-39
 0
3DFACE
 8
STL2DXF
 10
-12.6947975158691
 20
2.800377368927
 30
10
 11
-12.6947975158691
 21
2.800377368927
 31
5.87747175411144E-39
 12
-13.7221908569336
 22
2.800377368927
 32
5.87747175411144E-39
 13
-13.7221908569336
 23
2.800377368927
 33
5.87747175411144E-39
 0
3DFACE
 8
STL2DXF
 10
-13.0035552978516
 20
5.20078563690186
 30
10
 11
-12.7064962387085
 21
5.8894476890564
 31
10
 12
-13.0035552978516
 22
5.20078563690186
 32
5.87747175411144E-39
 13
-13.0035552978516
 23
5.20078563690186
 33
5.87747175411144E-39
 0
3DFACE
 8
STL2DXF
 10
-12.7064962387085
 20
5.8894476890564
 30
10
 11
-12.7064962387085
 21
5.8894476890564
 31
5.87747175411144E-39
 12
-13.0035552978516
 22
5.20078563690186
 32
5.87747175411144E-39
 13
-13.0035552978516
 23
5.20078563690186
 33
5.87747175411144E-39
 0
3DFACE
 8
STL2DXF
 10
-12.1451816558838
 20
4.63622379302979
 30
10
 11
-13.0035552978516
 21
5.20078563690186
 31
10
 12
-12.1451816558838
 22
4.63622379302979
 32
5.87747175411144E-39
 13
-12.1451816558838
 23
4.63622379302979
 33
5.87747175411144E-39
 0
3DFACE
 8
STL2DXF
 10
-13.0035552978516
 20
5.20078563690186
 30
10
 11
-13.0035552978516
 21
5.20078563690186
 31
5.87747175411144E-39
 12
-12.1451816558838
 22
4.63622379302979
 32
5.87747175411144E-39
 13
-12.1451816558838
 23
4.63622379302979
 33
5.87747175411144E-39
 0
3DFACE
 8
STL2DXF
 10
-12.8869924545288
 20
1.71038258075714
 30
10
 11
-12.8869924545288
 21
1.71038258075714
 31
5.87747175411144E-39
 12
-12.978006362915
 22
0.755882740020752
 32
5.87747175411144E-39
 13
-12.978006362915
 23
0.755882740020752
 33
5.87747175411144E-39
 0
3DFACE
 8
STL2DXF
 10
-12.8869924545288
 20
1.71038258075714
 30
10
 11
-12.978006362915
 21
0.755882740020752
 31
5.87747175411144E-39
 12
-12.978006362915
 22
0.755882740020752
 32
10
 13
-12.978006362915
 23
0.755882740020752
 33
10
 0
3DFACE
 8
STL2DXF
 10
-12.978006362915
 20
0.755882740020752
 30
5.87747175411144E-39
 11
-12.9984188079834
 21
-0.202728942036629
 31
5.87747175411144E-39
 12
-12.978006362915
 22
0.755882740020752
 32
10
 13
-12.978006362915
 23
0.755882740020752
 33
10
 0
3DFACE
 8
STL2DXF
 10
-12.978006362915
 20
0.755882740020752
 30
10
 11
-12.9984188079834
 21
-0.202728942036629
 31
5.87747175411144E-39
 12
-12.9984188079834
 22
-0.202728942036629
 32
10
 13
-12.9984188079834
 23
-0.202728942036629
 33
10
 0
3DFACE
 8
STL2DXF
 10
13.8524265289307
 20
2.06177163124084
 30
10
 11
12.8869924545288
 21
1.71038258075714
 31
10
 12
13.8524265289307
 22
2.06177163124084
 32
5.87747175411144E-39
 13
13.8524265289307
 23
2.06177163124084
 33
5.87747175411144E-39
 0
3DFACE
 8
STL2DXF
 10
12.8869924545288
 20
1.71038258075714
 30
10
 11
12.8869924545288
 21
1.71038258075714
 31
5.87747175411144E-39
 12
13.8524265289307
 22
2.06177163124084
 32
5.87747175411144E-39
 13
13.8524265289307
 23
2.06177163124084
 33
5.87747175411144E-39
 0
3DFACE
 8
STL2DXF
 10
10.7486190795898
 20
7.31212568283081
 30
10
 11
11.4536590576172
 21
8.05942440032959
 31
10
 12
11.0057897567749
 22
8.6610164642334
 32
10
 13
11.0057897567749
 23
8.6610164642334
 33
10
 0
3DFACE
 8
STL2DXF
 10
9.92589092254639
 20
-9.88014793395996
 30
10
 11
10.4405708312988
 21
-9.33461856842041
 31
10
 12
9.06751537322998
 22
-9.31558704376221
 32
10
 13
9.06751537322998
 23
-9.31558704376221
 33
10
 0
3DFACE
 8
STL2DXF
 10
10.4405708312988
 20
-9.33461856842041
 30
10
 11
9.82705497741699
 21
-8.51052284240723
 31
10
 12
9.06751537322998
 22
-9.31558704376221
 32
10
 13
9.06751537322998
 23
-9.31558704376221
 33
10
 0
3DFACE
 8
STL2DXF
 10
8.77259635925293
 20
9.59382820129395
 30
10
 11
9.28629302978516
 21
10.4835767745972
 31
10
 12
8.71175956726074
 22
10.9656677246094
 32
10
 13
8.71175956726074
 23
10.9656677246094
 33
10
 0
3DFACE
 8
STL2DXF
 10
-11.524827003479
 20
-6.01484489440918
 30
10
 11
-12.3118553161621
 21
-6.6752405166626
 31
10
 12
-11.9368553161621
 22
-7.3247594833374
 32
10
 13
-11.9368553161621
 23
-7.3247594833374
 33
10
 0
3DFACE
 8
STL2DXF
 10
10.9714221954346
 20
-6.97337055206299
 30
10
 11
8.94724178314209
 21
-0.973071157932281
 31
10
 12
8.78958511352539
 22
-1.93473398685455
 32
10
 13
8.78958511352539
 23
-1.93473398685455
 33
10
 0
3DFACE
 8
STL2DXF
 10
12.8869924545288
 20
1.71038258075714
 30
10
 11
8.78958511352539
 21
1.93473398685455
 31
10
 12
8.94724178314209
 22
0.973071157932281
 32
10
 13
8.94724178314209
 23
0.973071157932281
 33
10
 0
3DFACE
 8
STL2DXF
 10
12.1451816558838
 20
4.63622379302979
 30
10
 11
13.0035552978516
 21
5.20078563690186
 31
10
 12
12.7064962387085
 22
5.8894476890564
 32
10
 13
12.7064962387085
 23
5.8894476890564
 33
10
 0
3DFACE
 8
STL2DXF
 10
10.9714221954346
 20
-6.97337055206299
 30
10
 11
11.9368553161621
 21
-7.3247594833374
 31
10
 12
12.3118553161621
 22
-6.6752405166626
 32
10
 13
12.3118553161621
 23
-6.6752405166626
 33
10
 0
3DFACE
 8
STL2DXF
 10
12.8869924545288
 20
1.71038258075714
 30
10
 11
8.94724178314209
 21
0.973071157932281
 31
10
 12
12.978006362915
 22
0.755882740020752
 32
10
 13
12.978006362915
 23
0.755882740020752
 33
10
 0
3DFACE
 8
STL2DXF
 10
8.94724178314209
 20
0.973071157932281
 30
10
 11
9
 21
-1.15786464685336E-14
 31
10
 12
12.978006362915
 22
0.755882740020752
 32
10
 13
12.978006362915
 23
0.755882740020752
 33
10
 0
3DFACE
 8
STL2DXF
 10
12.978006362915
 20
0.755882740020752
 30
10
 11
9
 21
-1.15786464685336E-14
 31
10
 12
12.9984188079834
 22
-0.202728942036629
 32
10
 13
12.9984188079834
 23
-0.202728942036629
 33
10
 0
3DFACE
 8
STL2DXF
 10
1.45603799819946
 20
8.88143825531006
 30
10
 11
8.77259635925293
 21
9.59382820129395
 31
10
 12
0.487250179052353
 22
8.98680114746094
 32
10
 13
0.487250179052353
 23
8.98680114746094
 33
10
 0
3DFACE
 8
STL2DXF
 10
8.77259635925293
 20
9.59382820129395
 30
10
 11
-0.487250179052353
 21
8.98680114746094
 31
10
 12
0.487250179052353
 22
8.98680114746094
 32
10
 13
0.487250179052353
 23
8.98680114746094
 33
10
 0
3DFACE
 8
STL2DXF
 10
-10.0876779556274
 20
8.19992351531982
 30
10
 11
-11.0057897567749
 21
8.6610164642334
 31
10
 12
-11.4536590576172
 22
8.05942440032959
 32
10
 13
-11.4536590576172
 23
8.05942440032959
 33
10
 0
3DFACE
 8
STL2DXF
 10
-2.05750274658203
 20
-12.8361473083496
 30
10
 11
-1.99776518344879
 21
-13.8618021011353
 31
10
 12
-1.25283646583557
 22
-13.9488716125488
 32
10
 13
-1.25283646583557
 23
-13.9488716125488
 33
10
 0
3DFACE
 8
STL2DXF
 10
10.9714221954346
 20
-6.97337055206299
 30
10
 11
8.78958511352539
 21
-1.93473398685455
 31
10
 12
10.42760181427
 22
-7.7630615234375
 32
10
 13
10.42760181427
 23
-7.7630615234375
 33
10
 0
3DFACE
 8
STL2DXF
 10
8.78958511352539
 20
-1.93473398685455
 30
10
 11
8.52887916564941
 21
-2.87371373176575
 31
10
 12
10.42760181427
 22
-7.7630615234375
 32
10
 13
10.42760181427
 23
-7.7630615234375
 33
10
 0
3DFACE
 8
STL2DXF
 10
10.42760181427
 20
-7.7630615234375
 30
10
 11
8.52887916564941
 21
-2.87371373176575
 31
10
 12
9.82705497741699
 22
-8.51052284240723
 32
10
 13
9.82705497741699
 23
-8.51052284240723
 33
10
 0
3DFACE
 8
STL2DXF
 10
8.78958511352539
 20
1.93473398685455
 30
10
 11
12.8869924545288
 21
1.71038258075714
 31
10
 12
12.6947975158691
 22
2.800377368927
 32
10
 13
12.6947975158691
 23
2.800377368927
 33
10
 0
3DFACE
 8
STL2DXF
 10
12.8869924545288
 20
1.71038258075714
 30
10
 11
13.8524265289307
 21
2.06177163124084
 31
10
 12
12.6947975158691
 22
2.800377368927
 32
10
 13
12.6947975158691
 23
2.800377368927
 33
10
 0
3DFACE
 8
STL2DXF
 10
12.6947975158691
 20
2.800377368927
 30
10
 11
13.8524265289307
 21
2.06177163124084
 31
10
 12
13.7221908569336
 22
2.800377368927
 32
10
 13
13.7221908569336
 23
2.800377368927
 33
10
 0
3DFACE
 8
STL2DXF
 10
13.3043012619019
 20
-4.37449169158936
 30
10
 11
13.5194044113159
 21
-3.65599918365479
 31
10
 12
12.2838563919067
 22
-4.25521850585938
 32
10
 13
12.2838563919067
 23
-4.25521850585938
 33
10
 0
3DFACE
 8
STL2DXF
 10
13.5194044113159
 20
-3.65599918365479
 30
10
 11
12.6012926101685
 21
-3.19490599632263
 31
10
 12
12.2838563919067
 22
-4.25521850585938
 32
10
 13
12.2838563919067
 23
-4.25521850585938
 33
10
 0
3DFACE
 8
STL2DXF
 10
12.2838563919067
 20
-4.25521850585938
 30
10
 11
12.6012926101685
 21
-3.19490599632263
 31
10
 12
11.9368085861206
 22
-5.14903688430786
 32
10
 13
11.9368085861206
 23
-5.14903688430786
 33
10
 0
3DFACE
 8
STL2DXF
 10
12.6012926101685
 20
-3.19490599632263
 30
10
 11
11.524827003479
 21
-6.01484489440918
 31
10
 12
11.9368085861206
 22
-5.14903688430786
 32
10
 13
11.9368085861206
 23
-5.14903688430786
 33
10
 0
3DFACE
 8
STL2DXF
 10
11.7067966461182
 20
5.65251493453979
 30
10
 11
11.2583303451538
 21
6.5
 31
10
 12
8.78958511352539
 22
1.93473398685455
 32
10
 13
8.78958511352539
 23
1.93473398685455
 33
10
 0
3DFACE
 8
STL2DXF
 10
11.2583303451538
 20
6.5
 30
10
 11
10.7486190795898
 21
7.31212568283081
 31
10
 12
8.78958511352539
 22
1.93473398685455
 32
10
 13
8.78958511352539
 23
1.93473398685455
 33
10
 0
3DFACE
 8
STL2DXF
 10
8.78958511352539
 20
1.93473398685455
 30
10
 11
10.7486190795898
 21
7.31212568283081
 31
10
 12
10.0876779556274
 22
8.19992351531982
 32
10
 13
10.0876779556274
 23
8.19992351531982
 33
10
 0
3DFACE
 8
STL2DXF
 10
10.7486190795898
 20
7.31212568283081
 30
10
 11
11.0057897567749
 21
8.6610164642334
 31
10
 12
10.0876779556274
 22
8.19992351531982
 32
10
 13
10.0876779556274
 23
8.19992351531982
 33
10
 0
3DFACE
 8
STL2DXF
 10
1.45603799819946
 20
8.88143825531006
 30
10
 11
2.40775489807129
 21
8.67194938659668
 31
10
 12
8.77259635925293
 22
9.59382820129395
 32
10
 13
8.77259635925293
 23
9.59382820129395
 33
10
 0
3DFACE
 8
STL2DXF
 10
2.40775489807129
 20
8.67194938659668
 30
10
 11
3.33124327659607
 21
8.36079025268555
 31
10
 12
8.77259635925293
 22
9.59382820129395
 32
10
 13
8.77259635925293
 23
9.59382820129395
 33
10
 0
3DFACE
 8
STL2DXF
 10
8.77259635925293
 20
9.59382820129395
 30
10
 11
3.33124327659607
 21
8.36079025268555
 31
10
 12
4.21567583084106
 22
7.95160865783691
 32
10
 13
4.21567583084106
 23
7.95160865783691
 33
10
 0
3DFACE
 8
STL2DXF
 10
-12.6947975158691
 20
2.800377368927
 30
10
 11
-10.9714221954346
 21
-6.97337055206299
 31
10
 12
-12.4538631439209
 22
3.72844219207764
 32
10
 13
-12.4538631439209
 23
3.72844219207764
 33
10
 0
3DFACE
 8
STL2DXF
 10
-10.9714221954346
 20
-6.97337055206299
 30
10
 11
-12.1451816558838
 21
4.63622379302979
 31
10
 12
-12.4538631439209
 22
3.72844219207764
 32
10
 13
-12.4538631439209
 23
3.72844219207764
 33
10
 0
3DFACE
 8
STL2DXF
 10
-13.5194044113159
 20
-3.65599918365479
 30
10
 11
-13.3043012619019
 21
-4.37449169158936
 31
10
 12
-12.6012926101685
 22
-3.19490599632263
 32
10
 13
-12.6012926101685
 23
-3.19490599632263
 33
10
 0
3DFACE
 8
STL2DXF
 10
-13.3043012619019
 20
-4.37449169158936
 30
10
 11
-12.2838563919067
 21
-4.25521850585938
 31
10
 12
-12.6012926101685
 22
-3.19490599632263
 32
10
 13
-12.6012926101685
 23
-3.19490599632263
 33
10
 0
3DFACE
 8
STL2DXF
 10
-10.4405708312988
 20
-9.33461856842041
 30
10
 11
-9.92589092254639
 21
-9.88014793395996
 31
10
 12
-9.82705497741699
 22
-8.51052284240723
 32
10
 13
-9.82705497741699
 23
-8.51052284240723
 33
10
 0
3DFACE
 8
STL2DXF
 10
-9.92589092254639
 20
-9.88014793395996
 30
10
 11
-9.06751537322998
 21
-9.31558704376221
 31
10
 12
-9.82705497741699
 22
-8.51052284240723
 32
10
 13
-9.82705497741699
 23
-8.51052284240723
 33
10
 0
3DFACE
 8
STL2DXF
 10
-9.06751537322998
 20
-9.31558704376221
 30
10
 11
-7.16483783721924
 21
-5.44656801223755
 31
10
 12
-7.71171474456787
 22
-4.63998460769653
 32
10
 13
-7.71171474456787
 23
-4.63998460769653
 33
10
 0
3DFACE
 8
STL2DXF
 10
-4.96226167678833
 20
-12.0156545639038
 30
10
 11
-5.14066696166992
 21
-13.0274391174316
 31
10
 12
-4.43589735031128
 22
-13.283953666687
 32
10
 13
-4.43589735031128
 23
-13.283953666687
 33
10
 0
3DFACE
 8
STL2DXF
 10
12.3118553161621
 20
-6.6752405166626
 30
10
 11
11.524827003479
 21
-6.01484489440918
 31
10
 12
10.9714221954346
 22
-6.97337055206299
 32
10
 13
10.9714221954346
 23
-6.97337055206299
 33
10
 0
3DFACE
 8
STL2DXF
 10
11.524827003479
 20
-6.01484489440918
 30
10
 11
12.6012926101685
 21
-3.19490599632263
 31
10
 12
10.9714221954346
 22
-6.97337055206299
 32
10
 13
10.9714221954346
 23
-6.97337055206299
 33
10
 0
3DFACE
 8
STL2DXF
 10
10.9714221954346
 20
-6.97337055206299
 30
10
 11
12.6012926101685
 21
-3.19490599632263
 31
10
 12
8.94724178314209
 22
-0.973071157932281
 32
10
 13
8.94724178314209
 23
-0.973071157932281
 33
10
 0
3DFACE
 8
STL2DXF
 10
12.6012926101685
 20
-3.19490599632263
 30
10
 11
12.8025016784668
 21
-2.25742626190186
 31
10
 12
8.94724178314209
 22
-0.973071157932281
 32
10
 13
8.94724178314209
 23
-0.973071157932281
 33
10
 0
3DFACE
 8
STL2DXF
 10
8.94724178314209
 20
-0.973071157932281
 30
10
 11
12.8025016784668
 21
-2.25742626190186
 31
10
 12
9
 22
-1.15786464685336E-14
 32
10
 13
9
 23
-1.15786464685336E-14
 33
10
 0
3DFACE
 8
STL2DXF
 10
12.8025016784668
 20
-2.25742626190186
 30
10
 11
12.934063911438
 21
-1.30766618251801
 31
10
 12
9
 22
-1.15786464685336E-14
 32
10
 13
9
 23
-1.15786464685336E-14
 33
10
 0
3DFACE
 8
STL2DXF
 10
9
 20
-1.15786464685336E-14
 30
10
 11
12.934063911438
 21
-1.30766618251801
 31
10
 12
12.9984188079834
 22
-0.202728942036629
 32
10
 13
12.9984188079834
 23
-0.202728942036629
 33
10
 0
3DFACE
 8
STL2DXF
 10
12.934063911438
 20
-1.30766618251801
 30
10
 11
13.9545097351074
 21
-1.1883932352066
 31
10
 12
12.9984188079834
 22
-0.202728942036629
 32
10
 13
12.9984188079834
 23
-0.202728942036629
 33
10
 0
3DFACE
 8
STL2DXF
 10
12.9984188079834
 20
-0.202728942036629
 30
10
 11
13.9545097351074
 21
-1.1883932352066
 31
10
 12
13.9981184005737
 22
-0.439662039279938
 32
10
 13
13.9981184005737
 23
-0.439662039279938
 33
10
 0
3DFACE
 8
STL2DXF
 10
12.6947975158691
 20
2.800377368927
 30
10
 11
12.4538631439209
 21
3.72844219207764
 31
10
 12
8.78958511352539
 22
1.93473398685455
 32
10
 13
8.78958511352539
 23
1.93473398685455
 33
10
 0
3DFACE
 8
STL2DXF
 10
12.4538631439209
 20
3.72844219207764
 30
10
 11
12.1451816558838
 21
4.63622379302979
 31
10
 12
8.78958511352539
 22
1.93473398685455
 32
10
 13
8.78958511352539
 23
1.93473398685455
 33
10
 0
3DFACE
 8
STL2DXF
 10
8.78958511352539
 20
1.93473398685455
 30
10
 11
12.1451816558838
 21
4.63622379302979
 31
10
 12
11.7067966461182
 22
5.65251493453979
 32
10
 13
11.7067966461182
 23
5.65251493453979
 33
10
 0
3DFACE
 8
STL2DXF
 10
12.1451816558838
 20
4.63622379302979
 30
10
 11
12.7064962387085
 21
5.8894476890564
 31
10
 12
11.7067966461182
 22
5.65251493453979
 32
10
 13
11.7067966461182
 23
5.65251493453979
 33
10
 0
3DFACE
 8
STL2DXF
 10
4.21567583084106
 20
7.95160865783691
 30
10
 11
5.05068349838257
 21
7.44920063018799
 31
10
 12
8.77259635925293
 22
9.59382820129395
 32
10
 13
8.77259635925293
 23
9.59382820129395
 33
10
 0
3DFACE
 8
STL2DXF
 10
5.05068349838257
 20
7.44920063018799
 30
10
 11
5.82647657394409
 21
6.85945844650269
 31
10
 12
8.77259635925293
 22
9.59382820129395
 32
10
 13
8.77259635925293
 23
9.59382820129395
 33
10
 0
3DFACE
 8
STL2DXF
 10
8.77259635925293
 20
9.59382820129395
 30
10
 11
5.82647657394409
 21
6.85945844650269
 31
10
 12
9.45585823059082
 22
8.92114162445068
 32
10
 13
9.45585823059082
 23
8.92114162445068
 33
10
 0
3DFACE
 8
STL2DXF
 10
5.82647657394409
 20
6.85945844650269
 30
10
 11
6.53395938873291
 21
6.18929529190063
 31
10
 12
9.45585823059082
 22
8.92114162445068
 32
10
 13
9.45585823059082
 23
8.92114162445068
 33
10
 0
3DFACE
 8
STL2DXF
 10
9.45585823059082
 20
8.92114162445068
 30
10
 11
6.53395938873291
 21
6.18929529190063
 31
10
 12
10.0876779556274
 22
8.19992351531982
 32
10
 13
10.0876779556274
 23
8.19992351531982
 33
10
 0
3DFACE
 8
STL2DXF
 10
6.53395938873291
 20
6.18929529190063
 30
10
 11
7.16483783721924
 21
5.44656801223755
 31
10
 12
10.0876779556274
 22
8.19992351531982
 32
10
 13
10.0876779556274
 23
8.19992351531982
 33
10
 0
3DFACE
 8
STL2DXF
 10
10.0876779556274
 20
8.19992351531982
 30
10
 11
7.16483783721924
 21
5.44656801223755
 31
10
 12
7.71171474456787
 22
4.63998460769653
 32
10
 13
7.71171474456787
 23
4.63998460769653
 33
10
 0
3DFACE
 8
STL2DXF
 10
3.59351396560669
 20
13.5361471176147
 30
10
 11
2.86373019218445
 21
13.7091093063354
 31
10
 12
3.53377628326416
 22
12.5104923248291
 32
10
 13
3.53377628326416
 23
12.5104923248291
 33
10
 0
3DFACE
 8
STL2DXF
 10
2.86373019218445
 20
13.7091093063354
 30
10
 11
2.45680069923401
 21
12.7657403945923
 31
10
 12
3.53377628326416
 22
12.5104923248291
 32
10
 13
3.53377628326416
 23
12.5104923248291
 33
10
 0
3DFACE
 8
STL2DXF
 10
0.553404927253723
 20
12.9882154464722
 30
10
 11
-4.21567583084106
 21
7.95160865783691
 31
10
 12
-3.33124327659607
 22
8.36079025268555
 32
10
 13
-3.33124327659607
 23
8.36079025268555
 33
10
 0
3DFACE
 8
STL2DXF
 10
-1.50920784473419
 20
12.9120979309082
 30
10
 11
-2.45680069923401
 21
12.7657403945923
 31
10
 12
-6.32364130020142
 22
11.3583250045776
 32
10
 13
-6.32364130020142
 23
11.3583250045776
 33
10
 0
3DFACE
 8
STL2DXF
 10
-11.4536590576172
 20
8.05942440032959
 30
10
 11
-10.7486190795898
 21
7.31212568283081
 31
10
 12
-10.0876779556274
 22
8.19992351531982
 32
10
 13
-10.0876779556274
 23
8.19992351531982
 33
10
 0
3DFACE
 8
STL2DXF
 10
-10.7486190795898
 20
7.31212568283081
 30
10
 11
-11.2583303451538
 21
6.5
 31
10
 12
-10.0876779556274
 22
8.19992351531982
 32
10
 13
-10.0876779556274
 23
8.19992351531982
 33
10
 0
3DFACE
 8
STL2DXF
 10
-10.0876779556274
 20
8.19992351531982
 30
10
 11
-11.2583303451538
 21
6.5
 31
10
 12
-11.7067966461182
 22
5.65251493453979
 32
10
 13
-11.7067966461182
 23
5.65251493453979
 33
10
 0
3DFACE
 8
STL2DXF
 10
-12.2838563919067
 20
-4.25521850585938
 30
10
 11
-11.9368085861206
 21
-5.14903688430786
 31
10
 12
-12.6012926101685
 22
-3.19490599632263
 32
10
 13
-12.6012926101685
 23
-3.19490599632263
 33
10
 0
3DFACE
 8
STL2DXF
 10
-11.9368085861206
 20
-5.14903688430786
 30
10
 11
-11.524827003479
 21
-6.01484489440918
 31
10
 12
-12.6012926101685
 22
-3.19490599632263
 32
10
 13
-12.6012926101685
 23
-3.19490599632263
 33
10
 0
3DFACE
 8
STL2DXF
 10
-12.6012926101685
 20
-3.19490599632263
 30
10
 11
-11.524827003479
 21
-6.01484489440918
 31
10
 12
-10.9714221954346
 22
-6.97337055206299
 32
10
 13
-10.9714221954346
 23
-6.97337055206299
 33
10
 0
3DFACE
 8
STL2DXF
 10
-11.524827003479
 20
-6.01484489440918
 30
10
 11
-11.9368553161621
 21
-7.3247594833374
 31
10
 12
-10.9714221954346
 22
-6.97337055206299
 32
10
 13
-10.9714221954346
 23
-6.97337055206299
 33
10
 0
3DFACE
 8
STL2DXF
 10
-7.59950399398804
 20
-10.5473947525024
 30
10
 11
-0.958176791667938
 21
-12.9646396636963
 31
10
 12
-5.20048668164281E-15
 22
-13
 32
10
 13
-5.20048668164281E-15
 23
-13
 33
10
 0
3DFACE
 8
STL2DXF
 10
1.25283646583557
 20
-13.9488716125488
 30
10
 11
1.99776518344879
 21
-13.8618021011353
 31
10
 12
0.958176791667938
 22
-12.9646396636963
 32
10
 13
0.958176791667938
 23
-12.9646396636963
 33
10
 0
3DFACE
 8
STL2DXF
 10
1.99776518344879
 20
-13.8618021011353
 30
10
 11
2.05750274658203
 21
-12.8361473083496
 31
10
 12
0.958176791667938
 22
-12.9646396636963
 32
10
 13
0.958176791667938
 23
-12.9646396636963
 33
10
 0
3DFACE
 8
STL2DXF
 10
7.71171474456787
 20
4.63998460769653
 30
10
 11
8.16817855834961
 21
3.77900195121765
 31
10
 12
10.0876779556274
 22
8.19992351531982
 32
10
 13
10.0876779556274
 23
8.19992351531982
 33
10
 0
3DFACE
 8
STL2DXF
 10
8.16817855834961
 20
3.77900195121765
 30
10
 11
8.52887916564941
 21
2.87371373176575
 31
10
 12
10.0876779556274
 22
8.19992351531982
 32
10
 13
10.0876779556274
 23
8.19992351531982
 33
10
 0
3DFACE
 8
STL2DXF
 10
10.0876779556274
 20
8.19992351531982
 30
10
 11
8.52887916564941
 21
2.87371373176575
 31
10
 12
8.78958511352539
 22
1.93473398685455
 32
10
 13
8.78958511352539
 23
1.93473398685455
 33
10
 0
3DFACE
 8
STL2DXF
 10
6.6183009147644
 20
12.3425569534302
 30
10
 11
5.9480767250061
 21
12.6791572570801
 31
10
 12
6.32364130020142
 22
11.3583250045776
 32
10
 13
6.32364130020142
 23
11.3583250045776
 33
10
 0
3DFACE
 8
STL2DXF
 10
5.9480767250061
 20
12.6791572570801
 30
10
 11
5.33455991744995
 21
11.8550615310669
 31
10
 12
6.32364130020142
 22
11.3583250045776
 32
10
 13
6.32364130020142
 23
11.3583250045776
 33
10
 0
3DFACE
 8
STL2DXF
 10
6.32364130020142
 20
11.3583250045776
 30
10
 11
5.33455991744995
 21
11.8550615310669
 31
10
 12
4.44626188278198
 22
12.2160034179688
 32
10
 13
4.44626188278198
 23
12.2160034179688
 33
10
 0
3DFACE
 8
STL2DXF
 10
-3.33124327659607
 20
8.36079025268555
 30
10
 11
-2.40775489807129
 21
8.67194938659668
 31
10
 12
0.553404927253723
 22
12.9882154464722
 32
10
 13
0.553404927253723
 23
12.9882154464722
 33
10
 0
3DFACE
 8
STL2DXF
 10
-2.40775489807129
 20
8.67194938659668
 30
10
 11
-1.45603799819946
 21
8.88143825531006
 31
10
 12
0.553404927253723
 22
12.9882154464722
 32
10
 13
0.553404927253723
 23
12.9882154464722
 33
10
 0
3DFACE
 8
STL2DXF
 10
0.553404927253723
 20
12.9882154464722
 30
10
 11
-1.45603799819946
 21
8.88143825531006
 31
10
 12
-0.487250179052353
 22
8.98680114746094
 32
10
 13
-0.487250179052353
 23
8.98680114746094
 33
10
 0
3DFACE
 8
STL2DXF
 10
0.553404927253723
 20
12.9882154464722
 30
10
 11
0.375
 21
14
 31
10
 12
-0.375
 22
14
 32
10
 13
-0.375
 23
14
 33
10
 0
3DFACE
 8
STL2DXF
 10
-7.14361667633057
 20
10.8613414764404
 30
10
 11
-7.92473077774048
 21
10.305272102356
 31
10
 12
-5.82647657394409
 22
6.85945844650269
 32
10
 13
-5.82647657394409
 23
6.85945844650269
 33
10
 0
3DFACE
 8
STL2DXF
 10
-10.9714221954346
 20
-6.97337055206299
 30
10
 11
-10.42760181427
 21
-7.7630615234375
 31
10
 12
-8.52887916564941
 22
-2.87371373176575
 32
10
 13
-8.52887916564941
 23
-2.87371373176575
 33
10
 0
3DFACE
 8
STL2DXF
 10
-7.71171474456787
 20
-4.63998460769653
 30
10
 11
-8.16817855834961
 21
-3.77900195121765
 31
10
 12
-9.06751537322998
 22
-9.31558704376221
 32
10
 13
-9.06751537322998
 23
-9.31558704376221
 33
10
 0
3DFACE
 8
STL2DXF
 10
-8.16817855834961
 20
-3.77900195121765
 30
10
 11
-8.52887916564941
 21
-2.87371373176575
 31
10
 12
-9.06751537322998
 22
-9.31558704376221
 32
10
 13
-9.06751537322998
 23
-9.31558704376221
 33
10
 0
3DFACE
 8
STL2DXF
 10
-9.06751537322998
 20
-9.31558704376221
 30
10
 11
-8.52887916564941
 21
-2.87371373176575
 31
10
 12
-9.82705497741699
 22
-8.51052284240723
 32
10
 13
-9.82705497741699
 23
-8.51052284240723
 33
10
 0
3DFACE
 8
STL2DXF
 10
-8.52887916564941
 20
-2.87371373176575
 30
10
 11
-10.42760181427
 21
-7.7630615234375
 31
10
 12
-9.82705497741699
 22
-8.51052284240723
 32
10
 13
-9.82705497741699
 23
-8.51052284240723
 33
10
 0
3DFACE
 8
STL2DXF
 10
-7.59950399398804
 20
-10.5473947525024
 30
10
 11
-4.21567583084106
 21
-7.95160865783691
 31
10
 12
-5.05068349838257
 22
-7.44920063018799
 32
10
 13
-5.05068349838257
 23
-7.44920063018799
 33
10
 0
3DFACE
 8
STL2DXF
 10
-3.92220067977905
 20
-12.3942060470581
 30
10
 11
-2.99800634384155
 21
-12.6495838165283
 31
10
 12
-7.59950399398804
 22
-10.5473947525024
 32
10
 13
-7.59950399398804
 23
-10.5473947525024
 33
10
 0
3DFACE
 8
STL2DXF
 10
-2.99800634384155
 20
-12.6495838165283
 30
10
 11
-2.05750274658203
 21
-12.8361473083496
 31
10
 12
-7.59950399398804
 22
-10.5473947525024
 32
10
 13
-7.59950399398804
 23
-10.5473947525024
 33
10
 0
3DFACE
 8
STL2DXF
 10
-7.59950399398804
 20
-10.5473947525024
 30
10
 11
-2.05750274658203
 21
-12.8361473083496
 31
10
 12
-0.958176791667938
 22
-12.9646396636963
 32
10
 13
-0.958176791667938
 23
-12.9646396636963
 33
10
 0
3DFACE
 8
STL2DXF
 10
-2.05750274658203
 20
-12.8361473083496
 30
10
 11
-1.25283646583557
 21
-13.9488716125488
 31
10
 12
-0.958176791667938
 22
-12.9646396636963
 32
10
 13
-0.958176791667938
 23
-12.9646396636963
 33
10
 0
3DFACE
 8
STL2DXF
 10
7.92473077774048
 20
10.305272102356
 30
10
 11
7.14361667633057
 21
10.8613414764404
 31
10
 12
2.45680069923401
 22
12.7657403945923
 32
10
 13
2.45680069923401
 23
12.7657403945923
 33
10
 0
3DFACE
 8
STL2DXF
 10
7.14361667633057
 20
10.8613414764404
 30
10
 11
6.32364130020142
 21
11.3583250045776
 31
10
 12
2.45680069923401
 22
12.7657403945923
 32
10
 13
2.45680069923401
 23
12.7657403945923
 33
10
 0
3DFACE
 8
STL2DXF
 10
2.45680069923401
 20
12.7657403945923
 30
10
 11
6.32364130020142
 21
11.3583250045776
 31
10
 12
3.53377628326416
 22
12.5104923248291
 32
10
 13
3.53377628326416
 23
12.5104923248291
 33
10
 0
3DFACE
 8
STL2DXF
 10
6.32364130020142
 20
11.3583250045776
 30
10
 11
4.44626188278198
 21
12.2160034179688
 31
10
 12
3.53377628326416
 22
12.5104923248291
 32
10
 13
3.53377628326416
 23
12.5104923248291
 33
10
 0
3DFACE
 8
STL2DXF
 10
-1.50920784473419
 20
12.9120979309082
 30
10
 11
-6.32364130020142
 21
11.3583250045776
 31
10
 12
-0.553404927253723
 22
12.9882154464722
 32
10
 13
-0.553404927253723
 23
12.9882154464722
 33
10
 0
3DFACE
 8
STL2DXF
 10
-5.9480767250061
 20
12.6791572570801
 30
10
 11
-6.6183009147644
 21
12.3425569534302
 31
10
 12
-5.33455991744995
 22
11.8550615310669
 32
10
 13
-5.33455991744995
 23
11.8550615310669
 33
10
 0
3DFACE
 8
STL2DXF
 10
-6.6183009147644
 20
12.3425569534302
 30
10
 11
-6.32364130020142
 21
11.3583250045776
 31
10
 12
-5.33455991744995
 22
11.8550615310669
 32
10
 13
-5.33455991744995
 23
11.8550615310669
 33
10
 0
3DFACE
 8
STL2DXF
 10
-5.82647657394409
 20
6.85945844650269
 30
10
 11
-7.92473077774048
 21
10.305272102356
 31
10
 12
-8.77259635925293
 22
9.59382820129395
 32
10
 13
-8.77259635925293
 23
9.59382820129395
 33
10
 0
3DFACE
 8
STL2DXF
 10
-7.92473077774048
 20
10.305272102356
 30
10
 11
-8.71175956726074
 21
10.9656677246094
 31
10
 12
-8.77259635925293
 22
9.59382820129395
 32
10
 13
-8.77259635925293
 23
9.59382820129395
 33
10
 0
3DFACE
 8
STL2DXF
 10
-8.77259635925293
 20
9.59382820129395
 30
10
 11
-8.71175956726074
 21
10.9656677246094
 31
10
 12
-9.28629302978516
 22
10.4835767745972
 32
10
 13
-9.28629302978516
 23
10.4835767745972
 33
10
 0
3DFACE
 8
STL2DXF
 10
-13.7221908569336
 20
2.800377368927
 30
10
 11
-13.8524265289307
 21
2.06177163124084
 31
10
 12
-12.6947975158691
 22
2.800377368927
 32
10
 13
-12.6947975158691
 23
2.800377368927
 33
10
 0
3DFACE
 8
STL2DXF
 10
-13.8524265289307
 20
2.06177163124084
 30
10
 11
-12.8869924545288
 21
1.71038258075714
 31
10
 12
-12.6947975158691
 22
2.800377368927
 32
10
 13
-12.6947975158691
 23
2.800377368927
 33
10
 0
3DFACE
 8
STL2DXF
 10
-12.6947975158691
 20
2.800377368927
 30
10
 11
-12.8869924545288
 21
1.71038258075714
 31
10
 12
-10.9714221954346
 22
-6.97337055206299
 32
10
 13
-10.9714221954346
 23
-6.97337055206299
 33
10
 0
3DFACE
 8
STL2DXF
 10
-12.8869924545288
 20
1.71038258075714
 30
10
 11
-12.978006362915
 21
0.755882740020752
 31
10
 12
-10.9714221954346
 22
-6.97337055206299
 32
10
 13
-10.9714221954346
 23
-6.97337055206299
 33
10
 0
3DFACE
 8
STL2DXF
 10
-10.9714221954346
 20
-6.97337055206299
 30
10
 11
-12.978006362915
 21
0.755882740020752
 31
10
 12
-12.9984188079834
 22
-0.202728942036629
 32
10
 13
-12.9984188079834
 23
-0.202728942036629
 33
10
 0
3DFACE
 8
STL2DXF
 10
-8.94724178314209
 20
0.973071157932281
 30
10
 11
-8.78958511352539
 21
1.93473398685455
 31
10
 12
-12.1451816558838
 22
4.63622379302979
 32
10
 13
-12.1451816558838
 23
4.63622379302979
 33
10
 0
3DFACE
 8
STL2DXF
 10
-7.71171474456787
 20
4.63998460769653
 30
10
 11
-7.16483783721924
 21
5.44656801223755
 31
10
 12
-12.1451816558838
 22
4.63622379302979
 32
10
 13
-12.1451816558838
 23
4.63622379302979
 33
10
 0
3DFACE
 8
STL2DXF
 10
-7.16483783721924
 20
5.44656801223755
 30
10
 11
-6.53395938873291
 21
6.18929529190063
 31
10
 12
-12.1451816558838
 22
4.63622379302979
 32
10
 13
-12.1451816558838
 23
4.63622379302979
 33
10
 0
3DFACE
 8
STL2DXF
 10
-12.1451816558838
 20
4.63622379302979
 30
10
 11
-6.53395938873291
 21
6.18929529190063
 31
10
 12
-5.82647657394409
 22
6.85945844650269
 32
10
 13
-5.82647657394409
 23
6.85945844650269
 33
10
 0
3DFACE
 8
STL2DXF
 10
1.45603799819946
 20
-8.88143825531006
 30
10
 11
0.487250179052353
 21
-8.98680114746094
 31
10
 12
-7.59950399398804
 22
-10.5473947525024
 32
10
 13
-7.59950399398804
 23
-10.5473947525024
 33
10
 0
3DFACE
 8
STL2DXF
 10
0.487250179052353
 20
-8.98680114746094
 30
10
 11
-0.487250179052353
 21
-8.98680114746094
 31
10
 12
-7.59950399398804
 22
-10.5473947525024
 32
10
 13
-7.59950399398804
 23
-10.5473947525024
 33
10
 0
3DFACE
 8
STL2DXF
 10
-7.59950399398804
 20
-10.5473947525024
 30
10
 11
-0.487250179052353
 21
-8.98680114746094
 31
10
 12
-1.45603799819946
 22
-8.88143825531006
 32
10
 13
-1.45603799819946
 23
-8.88143825531006
 33
10
 0
3DFACE
 8
STL2DXF
 10
-7.59950399398804
 20
-10.5473947525024
 30
10
 11
-5.05068349838257
 21
-7.44920063018799
 31
10
 12
-8.35623836517334
 22
-9.95857715606689
 32
10
 13
-8.35623836517334
 23
-9.95857715606689
 33
10
 0
3DFACE
 8
STL2DXF
 10
-5.05068349838257
 20
-7.44920063018799
 30
10
 11
-5.82647657394409
 21
-6.85945844650269
 31
10
 12
-8.35623836517334
 22
-9.95857715606689
 32
10
 13
-8.35623836517334
 23
-9.95857715606689
 33
10
 0
3DFACE
 8
STL2DXF
 10
-8.35623836517334
 20
-9.95857715606689
 30
10
 11
-5.82647657394409
 21
-6.85945844650269
 31
10
 12
-9.06751537322998
 22
-9.31558704376221
 32
10
 13
-9.06751537322998
 23
-9.31558704376221
 33
10
 0
3DFACE
 8
STL2DXF
 10
-5.82647657394409
 20
-6.85945844650269
 30
10
 11
-6.53395938873291
 21
-6.18929529190063
 31
10
 12
-9.06751537322998
 22
-9.31558704376221
 32
10
 13
-9.06751537322998
 23
-9.31558704376221
 33
10
 0
3DFACE
 8
STL2DXF
 10
-9.06751537322998
 20
-9.31558704376221
 30
10
 11
-6.53395938873291
 21
-6.18929529190063
 31
10
 12
-7.16483783721924
 22
-5.44656801223755
 32
10
 13
-7.16483783721924
 23
-5.44656801223755
 33
10
 0
3DFACE
 8
STL2DXF
 10
-8.00643348693848
 20
-11.4907627105713
 30
10
 11
-7.37981796264648
 21
-11.9028949737549
 31
10
 12
-7.59950399398804
 22
-10.5473947525024
 32
10
 13
-7.59950399398804
 23
-10.5473947525024
 33
10
 0
3DFACE
 8
STL2DXF
 10
-7.37981796264648
 20
-11.9028949737549
 30
10
 11
-6.67477798461914
 21
-11.1555967330933
 31
10
 12
-7.59950399398804
 22
-10.5473947525024
 32
10
 13
-7.59950399398804
 23
-10.5473947525024
 33
10
 0
3DFACE
 8
STL2DXF
 10
-5.20048668164281E-15
 20
-13
 30
10
 11
0.958176791667938
 21
-12.9646396636963
 31
10
 12
-7.59950399398804
 22
-10.5473947525024
 32
10
 13
-7.59950399398804
 23
-10.5473947525024
 33
10
 0
3DFACE
 8
STL2DXF
 10
0.958176791667938
 20
-12.9646396636963
 30
10
 11
2.05750274658203
 21
-12.8361473083496
 31
10
 12
-7.59950399398804
 22
-10.5473947525024
 32
10
 13
-7.59950399398804
 23
-10.5473947525024
 33
10
 0
3DFACE
 8
STL2DXF
 10
-7.59950399398804
 20
-10.5473947525024
 30
10
 11
2.05750274658203
 21
-12.8361473083496
 31
10
 12
1.45603799819946
 22
-8.88143825531006
 32
10
 13
1.45603799819946
 23
-8.88143825531006
 33
10
 0
3DFACE
 8
STL2DXF
 10
2.05750274658203
 20
-12.8361473083496
 30
10
 11
2.99800634384155
 21
-12.6495838165283
 31
10
 12
1.45603799819946
 22
-8.88143825531006
 32
10
 13
1.45603799819946
 23
-8.88143825531006
 33
10
 0
3DFACE
 8
STL2DXF
 10
1.45603799819946
 20
-8.88143825531006
 30
10
 11
2.99800634384155
 21
-12.6495838165283
 31
10
 12
3.92220067977905
 22
-12.3942060470581
 32
10
 13
3.92220067977905
 23
-12.3942060470581
 33
10
 0
3DFACE
 8
STL2DXF
 10
7.37981796264648
 20
-11.9028949737549
 30
10
 11
8.00643348693848
 21
-11.4907627105713
 31
10
 12
6.67477798461914
 22
-11.1555967330933
 32
10
 13
6.67477798461914
 23
-11.1555967330933
 33
10
 0
3DFACE
 8
STL2DXF
 10
8.00643348693848
 20
-11.4907627105713
 30
10
 11
7.59950399398804
 21
-10.5473947525024
 31
10
 12
6.67477798461914
 22
-11.1555967330933
 32
10
 13
6.67477798461914
 23
-11.1555967330933
 33
10
 0
3DFACE
 8
STL2DXF
 10
6.67477798461914
 20
-11.1555967330933
 30
10
 11
7.59950399398804
 21
-10.5473947525024
 31
10
 12
1.45603799819946
 22
-8.88143825531006
 32
10
 13
1.45603799819946
 23
-8.88143825531006
 33
10
 0
3DFACE
 8
STL2DXF
 10
8.71175956726074
 20
10.9656677246094
 30
10
 11
7.92473077774048
 21
10.305272102356
 31
10
 12
8.77259635925293
 22
9.59382820129395
 32
10
 13
8.77259635925293
 23
9.59382820129395
 33
10
 0
3DFACE
 8
STL2DXF
 10
7.92473077774048
 20
10.305272102356
 30
10
 11
2.45680069923401
 21
12.7657403945923
 31
10
 12
8.77259635925293
 22
9.59382820129395
 32
10
 13
8.77259635925293
 23
9.59382820129395
 33
10
 0
3DFACE
 8
STL2DXF
 10
8.77259635925293
 20
9.59382820129395
 30
10
 11
2.45680069923401
 21
12.7657403945923
 31
10
 12
-0.487250179052353
 22
8.98680114746094
 32
10
 13
-0.487250179052353
 23
8.98680114746094
 33
10
 0
3DFACE
 8
STL2DXF
 10
2.45680069923401
 20
12.7657403945923
 30
10
 11
1.50920784473419
 21
12.9120979309082
 31
10
 12
-0.487250179052353
 22
8.98680114746094
 32
10
 13
-0.487250179052353
 23
8.98680114746094
 33
10
 0
3DFACE
 8
STL2DXF
 10
-0.487250179052353
 20
8.98680114746094
 30
10
 11
1.50920784473419
 21
12.9120979309082
 31
10
 12
0.553404927253723
 22
12.9882154464722
 32
10
 13
0.553404927253723
 23
12.9882154464722
 33
10
 0
3DFACE
 8
STL2DXF
 10
-5.82647657394409
 20
6.85945844650269
 30
10
 11
-5.05068349838257
 21
7.44920063018799
 31
10
 12
-7.14361667633057
 22
10.8613414764404
 32
10
 13
-7.14361667633057
 23
10.8613414764404
 33
10
 0
3DFACE
 8
STL2DXF
 10
-5.05068349838257
 20
7.44920063018799
 30
10
 11
-4.21567583084106
 21
7.95160865783691
 31
10
 12
-7.14361667633057
 22
10.8613414764404
 32
10
 13
-7.14361667633057
 23
10.8613414764404
 33
10
 0
3DFACE
 8
STL2DXF
 10
-7.14361667633057
 20
10.8613414764404
 30
10
 11
-4.21567583084106
 21
7.95160865783691
 31
10
 12
-6.32364130020142
 22
11.3583250045776
 32
10
 13
-6.32364130020142
 23
11.3583250045776
 33
10
 0
3DFACE
 8
STL2DXF
 10
-4.21567583084106
 20
7.95160865783691
 30
10
 11
0.553404927253723
 21
12.9882154464722
 31
10
 12
-6.32364130020142
 22
11.3583250045776
 32
10
 13
-6.32364130020142
 23
11.3583250045776
 33
10
 0
3DFACE
 8
STL2DXF
 10
-6.32364130020142
 20
11.3583250045776
 30
10
 11
0.553404927253723
 21
12.9882154464722
 31
10
 12
-0.553404927253723
 22
12.9882154464722
 32
10
 13
-0.553404927253723
 23
12.9882154464722
 33
10
 0
3DFACE
 8
STL2DXF
 10
0.553404927253723
 20
12.9882154464722
 30
10
 11
-0.375
 21
14
 31
10
 12
-0.553404927253723
 22
12.9882154464722
 32
10
 13
-0.553404927253723
 23
12.9882154464722
 33
10
 0
3DFACE
 8
STL2DXF
 10
-8.77259635925293
 20
9.59382820129395
 30
10
 11
-9.45585823059082
 21
8.92114162445068
 31
10
 12
-5.82647657394409
 22
6.85945844650269
 32
10
 13
-5.82647657394409
 23
6.85945844650269
 33
10
 0
3DFACE
 8
STL2DXF
 10
-9.45585823059082
 20
8.92114162445068
 30
10
 11
-10.0876779556274
 21
8.19992351531982
 31
10
 12
-5.82647657394409
 22
6.85945844650269
 32
10
 13
-5.82647657394409
 23
6.85945844650269
 33
10
 0
3DFACE
 8
STL2DXF
 10
-5.82647657394409
 20
6.85945844650269
 30
10
 11
-10.0876779556274
 21
8.19992351531982
 31
10
 12
-12.1451816558838
 22
4.63622379302979
 32
10
 13
-12.1451816558838
 23
4.63622379302979
 33
10
 0
3DFACE
 8
STL2DXF
 10
-10.0876779556274
 20
8.19992351531982
 30
10
 11
-11.7067966461182
 21
5.65251493453979
 31
10
 12
-12.1451816558838
 22
4.63622379302979
 32
10
 13
-12.1451816558838
 23
4.63622379302979
 33
10
 0
3DFACE
 8
STL2DXF
 10
-12.1451816558838
 20
4.63622379302979
 30
10
 11
-11.7067966461182
 21
5.65251493453979
 31
10
 12
-13.0035552978516
 22
5.20078563690186
 32
10
 13
-13.0035552978516
 23
5.20078563690186
 33
10
 0
3DFACE
 8
STL2DXF
 10
-11.7067966461182
 20
5.65251493453979
 30
10
 11
-12.7064962387085
 21
5.8894476890564
 31
10
 12
-13.0035552978516
 22
5.20078563690186
 32
10
 13
-13.0035552978516
 23
5.20078563690186
 33
10
 0
3DFACE
 8
STL2DXF
 10
-13.9981184005737
 20
-0.439662039279938
 30
10
 11
-13.9545097351074
 21
-1.1883932352066
 31
10
 12
-12.9984188079834
 22
-0.202728942036629
 32
10
 13
-12.9984188079834
 23
-0.202728942036629
 33
10
 0
3DFACE
 8
STL2DXF
 10
-13.9545097351074
 20
-1.1883932352066
 30
10
 11
-12.934063911438
 21
-1.30766618251801
 31
10
 12
-12.9984188079834
 22
-0.202728942036629
 32
10
 13
-12.9984188079834
 23
-0.202728942036629
 33
10
 0
3DFACE
 8
STL2DXF
 10
-12.9984188079834
 20
-0.202728942036629
 30
10
 11
-12.934063911438
 21
-1.30766618251801
 31
10
 12
-10.9714221954346
 22
-6.97337055206299
 32
10
 13
-10.9714221954346
 23
-6.97337055206299
 33
10
 0
3DFACE
 8
STL2DXF
 10
-12.934063911438
 20
-1.30766618251801
 30
10
 11
-12.8025016784668
 21
-2.25742626190186
 31
10
 12
-10.9714221954346
 22
-6.97337055206299
 32
10
 13
-10.9714221954346
 23
-6.97337055206299
 33
10
 0
3DFACE
 8
STL2DXF
 10
-10.9714221954346
 20
-6.97337055206299
 30
10
 11
-12.8025016784668
 21
-2.25742626190186
 31
10
 12
-12.6012926101685
 22
-3.19490599632263
 32
10
 13
-12.6012926101685
 23
-3.19490599632263
 33
10
 0
3DFACE
 8
STL2DXF
 10
-8.52887916564941
 20
-2.87371373176575
 30
10
 11
-8.78958511352539
 21
-1.93473398685455
 31
10
 12
-10.9714221954346
 22
-6.97337055206299
 32
10
 13
-10.9714221954346
 23
-6.97337055206299
 33
10
 0
3DFACE
 8
STL2DXF
 10
-8.78958511352539
 20
-1.93473398685455
 30
10
 11
-8.94724178314209
 21
-0.973071157932281
 31
10
 12
-10.9714221954346
 22
-6.97337055206299
 32
10
 13
-10.9714221954346
 23
-6.97337055206299
 33
10
 0
3DFACE
 8
STL2DXF
 10
-10.9714221954346
 20
-6.97337055206299
 30
10
 11
-8.94724178314209
 21
-0.973071157932281
 31
10
 12
-12.1451816558838
 22
4.63622379302979
 32
10
 13
-12.1451816558838
 23
4.63622379302979
 33
10
 0
3DFACE
 8
STL2DXF
 10
-8.94724178314209
 20
-0.973071157932281
 30
10
 11
-9
 21
4.7271214720368E-14
 31
10
 12
-12.1451816558838
 22
4.63622379302979
 32
10
 13
-12.1451816558838
 23
4.63622379302979
 33
10
 0
3DFACE
 8
STL2DXF
 10
-12.1451816558838
 20
4.63622379302979
 30
10
 11
-9
 21
4.7271214720368E-14
 31
10
 12
-8.94724178314209
 22
0.973071157932281
 32
10
 13
-8.94724178314209
 23
0.973071157932281
 33
10
 0
3DFACE
 8
STL2DXF
 10
-8.78958511352539
 20
1.93473398685455
 30
10
 11
-8.52887916564941
 21
2.87371373176575
 31
10
 12
-12.1451816558838
 22
4.63622379302979
 32
10
 13
-12.1451816558838
 23
4.63622379302979
 33
10
 0
3DFACE
 8
STL2DXF
 10
-8.52887916564941
 20
2.87371373176575
 30
10
 11
-8.16817855834961
 21
3.77900195121765
 31
10
 12
-12.1451816558838
 22
4.63622379302979
 32
10
 13
-12.1451816558838
 23
4.63622379302979
 33
10
 0
3DFACE
 8
STL2DXF
 10
-12.1451816558838
 20
4.63622379302979
 30
10
 11
-8.16817855834961
 21
3.77900195121765
 31
10
 12
-7.71171474456787
 22
4.63998460769653
 32
10
 13
-7.71171474456787
 23
4.63998460769653
 33
10
 0
3DFACE
 8
STL2DXF
 10
-1.45603799819946
 20
-8.88143825531006
 30
10
 11
-2.40775489807129
 21
-8.67194938659668
 31
10
 12
-7.59950399398804
 22
-10.5473947525024
 32
10
 13
-7.59950399398804
 23
-10.5473947525024
 33
10
 0
3DFACE
 8
STL2DXF
 10
-2.40775489807129
 20
-8.67194938659668
 30
10
 11
-3.33124327659607
 21
-8.36079025268555
 31
10
 12
-7.59950399398804
 22
-10.5473947525024
 32
10
 13
-7.59950399398804
 23
-10.5473947525024
 33
10
 0
3DFACE
 8
STL2DXF
 10
-7.59950399398804
 20
-10.5473947525024
 30
10
 11
-3.33124327659607
 21
-8.36079025268555
 31
10
 12
-4.21567583084106
 22
-7.95160865783691
 32
10
 13
-4.21567583084106
 23
-7.95160865783691
 33
10
 0
3DFACE
 8
STL2DXF
 10
-6.67477798461914
 20
-11.1555967330933
 30
10
 11
-5.83438968658447
 21
-11.6172246932983
 31
10
 12
-7.59950399398804
 22
-10.5473947525024
 32
10
 13
-7.59950399398804
 23
-10.5473947525024
 33
10
 0
3DFACE
 8
STL2DXF
 10
-5.83438968658447
 20
-11.6172246932983
 30
10
 11
-4.96226167678833
 21
-12.0156545639038
 31
10
 12
-7.59950399398804
 22
-10.5473947525024
 32
10
 13
-7.59950399398804
 23
-10.5473947525024
 33
10
 0
3DFACE
 8
STL2DXF
 10
-7.59950399398804
 20
-10.5473947525024
 30
10
 11
-4.96226167678833
 21
-12.0156545639038
 31
10
 12
-3.92220067977905
 22
-12.3942060470581
 32
10
 13
-3.92220067977905
 23
-12.3942060470581
 33
10
 0
3DFACE
 8
STL2DXF
 10
-4.96226167678833
 20
-12.0156545639038
 30
10
 11
-4.43589735031128
 21
-13.283953666687
 31
10
 12
-3.92220067977905
 22
-12.3942060470581
 32
10
 13
-3.92220067977905
 23
-12.3942060470581
 33
10
 0
3DFACE
 8
STL2DXF
 10
4.43589735031128
 20
-13.283953666687
 30
10
 11
5.14066696166992
 21
-13.0274391174316
 31
10
 12
3.92220067977905
 22
-12.3942060470581
 32
10
 13
3.92220067977905
 23
-12.3942060470581
 33
10
 0
3DFACE
 8
STL2DXF
 10
5.14066696166992
 20
-13.0274391174316
 30
10
 11
4.96226167678833
 21
-12.0156545639038
 31
10
 12
3.92220067977905
 22
-12.3942060470581
 32
10
 13
3.92220067977905
 23
-12.3942060470581
 33
10
 0
3DFACE
 8
STL2DXF
 10
3.92220067977905
 20
-12.3942060470581
 30
10
 11
4.96226167678833
 21
-12.0156545639038
 31
10
 12
1.45603799819946
 22
-8.88143825531006
 32
10
 13
1.45603799819946
 23
-8.88143825531006
 33
10
 0
3DFACE
 8
STL2DXF
 10
4.96226167678833
 20
-12.0156545639038
 30
10
 11
5.83438968658447
 21
-11.6172246932983
 31
10
 12
1.45603799819946
 22
-8.88143825531006
 32
10
 13
1.45603799819946
 23
-8.88143825531006
 33
10
 0
3DFACE
 8
STL2DXF
 10
1.45603799819946
 20
-8.88143825531006
 30
10
 11
5.83438968658447
 21
-11.6172246932983
 31
10
 12
6.67477798461914
 22
-11.1555967330933
 32
10
 13
6.67477798461914
 23
-11.1555967330933
 33
10
 0
3DFACE
 8
STL2DXF
 10
9.82705497741699
 20
-8.51052284240723
 30
10
 11
8.52887916564941
 21
-2.87371373176575
 31
10
 12
9.06751537322998
 22
-9.31558704376221
 32
10
 13
9.06751537322998
 23
-9.31558704376221
 33
10
 0
3DFACE
 8
STL2DXF
 10
8.52887916564941
 20
-2.87371373176575
 30
10
 11
8.16817855834961
 21
-3.77900195121765
 31
10
 12
9.06751537322998
 22
-9.31558704376221
 32
10
 13
9.06751537322998
 23
-9.31558704376221
 33
10
 0
3DFACE
 8
STL2DXF
 10
9.06751537322998
 20
-9.31558704376221
 30
10
 11
8.16817855834961
 21
-3.77900195121765
 31
10
 12
7.71171474456787
 22
-4.63998460769653
 32
10
 13
7.71171474456787
 23
-4.63998460769653
 33
10
 0
3DFACE
 8
STL2DXF
 10
4.21567583084106
 20
-7.95160865783691
 30
10
 11
3.33124327659607
 21
-8.36079025268555
 31
10
 12
7.59950399398804
 22
-10.5473947525024
 32
10
 13
7.59950399398804
 23
-10.5473947525024
 33
10
 0
3DFACE
 8
STL2DXF
 10
3.33124327659607
 20
-8.36079025268555
 30
10
 11
2.40775489807129
 21
-8.67194938659668
 31
10
 12
7.59950399398804
 22
-10.5473947525024
 32
10
 13
7.59950399398804
 23
-10.5473947525024
 33
10
 0
3DFACE
 8
STL2DXF
 10
7.59950399398804
 20
-10.5473947525024
 30
10
 11
2.40775489807129
 21
-8.67194938659668
 31
10
 12
1.45603799819946
 22
-8.88143825531006
 32
10
 13
1.45603799819946
 23
-8.88143825531006
 33
10
 0
3DFACE
 8
STL2DXF
 10
-2.86373019218445
 20
13.7091093063354
 30
10
 11
-3.59351396560669
 21
13.5361471176147
 31
10
 12
-2.45680069923401
 22
12.7657403945923
 32
10
 13
-2.45680069923401
 23
12.7657403945923
 33
10
 0
3DFACE
 8
STL2DXF
 10
-3.59351396560669
 20
13.5361471176147
 30
10
 11
-3.53377628326416
 21
12.5104923248291
 31
10
 12
-2.45680069923401
 22
12.7657403945923
 32
10
 13
-2.45680069923401
 23
12.7657403945923
 33
10
 0
3DFACE
 8
STL2DXF
 10
-2.45680069923401
 20
12.7657403945923
 30
10
 11
-3.53377628326416
 21
12.5104923248291
 31
10
 12
-6.32364130020142
 22
11.3583250045776
 32
10
 13
-6.32364130020142
 23
11.3583250045776
 33
10
 0
3DFACE
 8
STL2DXF
 10
-3.53377628326416
 20
12.5104923248291
 30
10
 11
-4.44626188278198
 21
12.2160034179688
 31
10
 12
-6.32364130020142
 22
11.3583250045776
 32
10
 13
-6.32364130020142
 23
11.3583250045776
 33
10
 0
3DFACE
 8
STL2DXF
 10
-6.32364130020142
 20
11.3583250045776
 30
10
 11
-4.44626188278198
 21
12.2160034179688
 31
10
 12
-5.33455991744995
 22
11.8550615310669
 32
10
 13
-5.33455991744995
 23
11.8550615310669
 33
10
 0
3DFACE
 8
STL2DXF
 10
7.71171474456787
 20
-4.63998460769653
 30
10
 11
7.16483783721924
 21
-5.44656801223755
 31
10
 12
9.06751537322998
 22
-9.31558704376221
 32
10
 13
9.06751537322998
 23
-9.31558704376221
 33
10
 0
3DFACE
 8
STL2DXF
 10
7.16483783721924
 20
-5.44656801223755
 30
10
 11
6.53395938873291
 21
-6.18929529190063
 31
10
 12
9.06751537322998
 22
-9.31558704376221
 32
10
 13
9.06751537322998
 23
-9.31558704376221
 33
10
 0
3DFACE
 8
STL2DXF
 10
9.06751537322998
 20
-9.31558704376221
 30
10
 11
6.53395938873291
 21
-6.18929529190063
 31
10
 12
8.35623836517334
 22
-9.95857715606689
 32
10
 13
8.35623836517334
 23
-9.95857715606689
 33
10
 0
3DFACE
 8
STL2DXF
 10
6.53395938873291
 20
-6.18929529190063
 30
10
 11
5.82647657394409
 21
-6.85945844650269
 31
10
 12
8.35623836517334
 22
-9.95857715606689
 32
10
 13
8.35623836517334
 23
-9.95857715606689
 33
10
 0
3DFACE
 8
STL2DXF
 10
8.35623836517334
 20
-9.95857715606689
 30
10
 11
5.82647657394409
 21
-6.85945844650269
 31
10
 12
7.59950399398804
 22
-10.5473947525024
 32
10
 13
7.59950399398804
 23
-10.5473947525024
 33
10
 0
3DFACE
 8
STL2DXF
 10
5.82647657394409
 20
-6.85945844650269
 30
10
 11
5.05068349838257
 21
-7.44920063018799
 31
10
 12
7.59950399398804
 22
-10.5473947525024
 32
10
 13
7.59950399398804
 23
-10.5473947525024
 33
10
 0
3DFACE
 8
STL2DXF
 10
7.59950399398804
 20
-10.5473947525024
 30
10
 11
5.05068349838257
 21
-7.44920063018799
 31
10
 12
4.21567583084106
 22
-7.95160865783691
 32
10
 13
4.21567583084106
 23
-7.95160865783691
 33
10
 0
3DFACE
 8
STL2DXF
 10
-13.9981184005737
 20
-0.439662039279938
 30
10
 11
-12.9984188079834
 21
-0.202728942036629
 31
10
 12
-13.9981184005737
 22
-0.439662039279938
 32
5.87747175411144E-39
 13
-13.9981184005737
 23
-0.439662039279938
 33
5.87747175411144E-39
 0
3DFACE
 8
STL2DXF
 10
-12.9984188079834
 20
-0.202728942036629
 30
10
 11
-12.9984188079834
 21
-0.202728942036629
 31
5.87747175411144E-39
 12
-13.9981184005737
 22
-0.439662039279938
 32
5.87747175411144E-39
 13
-13.9981184005737
 23
-0.439662039279938
 33
5.87747175411144E-39
 0
3DFACE
 8
STL2DXF
 10
-12.1451816558838
 20
4.63622379302979
 30
10
 11
-12.1451816558838
 21
4.63622379302979
 31
5.87747175411144E-39
 12
-12.4538631439209
 22
3.72844219207764
 32
5.87747175411144E-39
 13
-12.4538631439209
 23
3.72844219207764
 33
5.87747175411144E-39
 0
3DFACE
 8
STL2DXF
 10
-12.1451816558838
 20
4.63622379302979
 30
10
 11
-12.4538631439209
 21
3.72844219207764
 31
5.87747175411144E-39
 12
-12.4538631439209
 22
3.72844219207764
 32
10
 13
-12.4538631439209
 23
3.72844219207764
 33
10
 0
3DFACE
 8
STL2DXF
 10
-12.4538631439209
 20
3.72844219207764
 30
5.87747175411144E-39
 11
-12.6947975158691
 21
2.800377368927
 31
5.87747175411144E-39
 12
-12.4538631439209
 22
3.72844219207764
 32
10
 13
-12.4538631439209
 23
3.72844219207764
 33
10
 0
3DFACE
 8
STL2DXF
 10
-12.4538631439209
 20
3.72844219207764
 30
10
 11
-12.6947975158691
 21
2.800377368927
 31
5.87747175411144E-39
 12
-12.6947975158691
 22
2.800377368927
 32
10
 13
-12.6947975158691
 23
2.800377368927
 33
10
 0
3DFACE
 8
STL2DXF
 10
13.7221908569336
 20
2.800377368927
 30
10
 11
13.8524265289307
 21
2.06177163124084
 31
10
 12
13.7221908569336
 22
2.800377368927
 32
5.87747175411144E-39
 13
13.7221908569336
 23
2.800377368927
 33
5.87747175411144E-39
 0
3DFACE
 8
STL2DXF
 10
13.8524265289307
 20
2.06177163124084
 30
10
 11
13.8524265289307
 21
2.06177163124084
 31
5.87747175411144E-39
 12
13.7221908569336
 22
2.800377368927
 32
5.87747175411144E-39
 13
13.7221908569336
 23
2.800377368927
 33
5.87747175411144E-39
 0
3DFACE
 8
STL2DXF
 10
9
 20
-2.93582974771056E-14
 30
4
 11
8.94724178314209
 21
0.973071157932281
 31
4
 12
5.72458747072346E-14
 22
-3.8597597340484E-14
 32
4
 13
5.72458747072346E-14
 23
-3.8597597340484E-14
 33
4
 0
3DFACE
 8
STL2DXF
 10
8.52887916564941
 20
-2.87371373176575
 30
4
 11
8.78958511352539
 21
-1.93473398685455
 31
4
 12
5.72458747072346E-14
 22
-3.8597597340484E-14
 32
4
 13
5.72458747072346E-14
 23
-3.8597597340484E-14
 33
4
 0
3DFACE
 8
STL2DXF
 10
8.78958511352539
 20
-1.93473398685455
 30
4
 11
8.94724178314209
 21
-0.973071157932281
 31
4
 12
5.72458747072346E-14
 22
-3.8597597340484E-14
 32
4
 13
5.72458747072346E-14
 23
-3.8597597340484E-14
 33
4
 0
3DFACE
 8
STL2DXF
 10
5.72458747072346E-14
 20
-3.8597597340484E-14
 30
4
 11
8.94724178314209
 21
-0.973071157932281
 31
4
 12
9
 22
-2.93582974771056E-14
 32
4
 13
9
 23
-2.93582974771056E-14
 33
4
 0
3DFACE
 8
STL2DXF
 10
7.16483783721924
 20
-5.44656801223755
 30
4
 11
7.71171474456787
 21
-4.63998460769653
 31
4
 12
5.72458747072346E-14
 22
-3.8597597340484E-14
 32
4
 13
5.72458747072346E-14
 23
-3.8597597340484E-14
 33
4
 0
3DFACE
 8
STL2DXF
 10
7.71171474456787
 20
-4.63998460769653
 30
4
 11
8.16817855834961
 21
-3.77900195121765
 31
4
 12
5.72458747072346E-14
 22
-3.8597597340484E-14
 32
4
 13
5.72458747072346E-14
 23
-3.8597597340484E-14
 33
4
 0
3DFACE
 8
STL2DXF
 10
5.72458747072346E-14
 20
-3.8597597340484E-14
 30
4
 11
8.16817855834961
 21
-3.77900195121765
 31
4
 12
8.52887916564941
 22
-2.87371373176575
 32
4
 13
8.52887916564941
 23
-2.87371373176575
 33
4
 0
3DFACE
 8
STL2DXF
 10
5.05068349838257
 20
-7.44920063018799
 30
4
 11
5.82647657394409
 21
-6.85945844650269
 31
4
 12
5.72458747072346E-14
 22
-3.8597597340484E-14
 32
4
 13
5.72458747072346E-14
 23
-3.8597597340484E-14
 33
4
 0
3DFACE
 8
STL2DXF
 10
5.82647657394409
 20
-6.85945844650269
 30
4
 11
6.53395938873291
 21
-6.18929529190063
 31
4
 12
5.72458747072346E-14
 22
-3.8597597340484E-14
 32
4
 13
5.72458747072346E-14
 23
-3.8597597340484E-14
 33
4
 0
3DFACE
 8
STL2DXF
 10
5.72458747072346E-14
 20
-3.8597597340484E-14
 30
4
 11
6.53395938873291
 21
-6.18929529190063
 31
4
 12
7.16483783721924
 22
-5.44656801223755
 32
4
 13
7.16483783721924
 23
-5.44656801223755
 33
4
 0
3DFACE
 8
STL2DXF
 10
2.40775489807129
 20
-8.67194938659668
 30
4
 11
3.33124327659607
 21
-8.36079025268555
 31
4
 12
5.72458747072346E-14
 22
-3.8597597340484E-14
 32
4
 13
5.72458747072346E-14
 23
-3.8597597340484E-14
 33
4
 0
3DFACE
 8
STL2DXF
 10
3.33124327659607
 20
-8.36079025268555
 30
4
 11
4.21567583084106
 21
-7.95160865783691
 31
4
 12
5.72458747072346E-14
 22
-3.8597597340484E-14
 32
4
 13
5.72458747072346E-14
 23
-3.8597597340484E-14
 33
4
 0
3DFACE
 8
STL2DXF
 10
5.72458747072346E-14
 20
-3.8597597340484E-14
 30
4
 11
4.21567583084106
 21
-7.95160865783691
 31
4
 12
5.05068349838257
 22
-7.44920063018799
 32
4
 13
5.05068349838257
 23
-7.44920063018799
 33
4
 0
3DFACE
 8
STL2DXF
 10
-0.487250179052353
 20
-8.98680114746094
 30
4
 11
0.487250179052353
 21
-8.98680114746094
 31
4
 12
5.72458747072346E-14
 22
-3.8597597340484E-14
 32
4
 13
5.72458747072346E-14
 23
-3.8597597340484E-14
 33
4
 0
3DFACE
 8
STL2DXF
 10
0.487250179052353
 20
-8.98680114746094
 30
4
 11
1.45603799819946
 21
-8.88143825531006
 31
4
 12
5.72458747072346E-14
 22
-3.8597597340484E-14
 32
4
 13
5.72458747072346E-14
 23
-3.8597597340484E-14
 33
4
 0
3DFACE
 8
STL2DXF
 10
5.72458747072346E-14
 20
-3.8597597340484E-14
 30
4
 11
1.45603799819946
 21
-8.88143825531006
 31
4
 12
2.40775489807129
 22
-8.67194938659668
 32
4
 13
2.40775489807129
 23
-8.67194938659668
 33
4
 0
3DFACE
 8
STL2DXF
 10
-3.33124327659607
 20
-8.36079025268555
 30
4
 11
-2.40775489807129
 21
-8.67194938659668
 31
4
 12
5.72458747072346E-14
 22
-3.8597597340484E-14
 32
4
 13
5.72458747072346E-14
 23
-3.8597597340484E-14
 33
4
 0
3DFACE
 8
STL2DXF
 10
-2.40775489807129
 20
-8.67194938659668
 30
4
 11
-1.45603799819946
 21
-8.88143825531006
 31
4
 12
5.72458747072346E-14
 22
-3.8597597340484E-14
 32
4
 13
5.72458747072346E-14
 23
-3.8597597340484E-14
 33
4
 0
3DFACE
 8
STL2DXF
 10
5.72458747072346E-14
 20
-3.8597597340484E-14
 30
4
 11
-1.45603799819946
 21
-8.88143825531006
 31
4
 12
-0.487250179052353
 22
-8.98680114746094
 32
4
 13
-0.487250179052353
 23
-8.98680114746094
 33
4
 0
3DFACE
 8
STL2DXF
 10
-5.82647657394409
 20
-6.85945844650269
 30
4
 11
-5.05068349838257
 21
-7.44920063018799
 31
4
 12
5.72458747072346E-14
 22
-3.8597597340484E-14
 32
4
 13
5.72458747072346E-14
 23
-3.8597597340484E-14
 33
4
 0
3DFACE
 8
STL2DXF
 10
-5.05068349838257
 20
-7.44920063018799
 30
4
 11
-4.21567583084106
 21
-7.95160865783691
 31
4
 12
5.72458747072346E-14
 22
-3.8597597340484E-14
 32
4
 13
5.72458747072346E-14
 23
-3.8597597340484E-14
 33
4
 0
3DFACE
 8
STL2DXF
 10
5.72458747072346E-14
 20
-3.8597597340484E-14
 30
4
 11
-4.21567583084106
 21
-7.95160865783691
 31
4
 12
-3.33124327659607
 22
-8.36079025268555
 32
4
 13
-3.33124327659607
 23
-8.36079025268555
 33
4
 0
3DFACE
 8
STL2DXF
 10
-7.71171474456787
 20
-4.63998460769653
 30
4
 11
-7.16483783721924
 21
-5.44656801223755
 31
4
 12
5.72458747072346E-14
 22
-3.8597597340484E-14
 32
4
 13
5.72458747072346E-14
 23
-3.8597597340484E-14
 33
4
 0
3DFACE
 8
STL2DXF
 10
-7.16483783721924
 20
-5.44656801223755
 30
4
 11
-6.53395938873291
 21
-6.18929529190063
 31
4
 12
5.72458747072346E-14
 22
-3.8597597340484E-14
 32
4
 13
5.72458747072346E-14
 23
-3.8597597340484E-14
 33
4
 0
3DFACE
 8
STL2DXF
 10
5.72458747072346E-14
 20
-3.8597597340484E-14
 30
4
 11
-6.53395938873291
 21
-6.18929529190063
 31
4
 12
-5.82647657394409
 22
-6.85945844650269
 32
4
 13
-5.82647657394409
 23
-6.85945844650269
 33
4
 0
3DFACE
 8
STL2DXF
 10
-8.78958511352539
 20
-1.93473398685455
 30
4
 11
-8.52887916564941
 21
-2.87371373176575
 31
4
 12
5.72458747072346E-14
 22
-3.8597597340484E-14
 32
4
 13
5.72458747072346E-14
 23
-3.8597597340484E-14
 33
4
 0
3DFACE
 8
STL2DXF
 10
-8.52887916564941
 20
-2.87371373176575
 30
4
 11
-8.16817855834961
 21
-3.77900195121765
 31
4
 12
5.72458747072346E-14
 22
-3.8597597340484E-14
 32
4
 13
5.72458747072346E-14
 23
-3.8597597340484E-14
 33
4
 0
3DFACE
 8
STL2DXF
 10
5.72458747072346E-14
 20
-3.8597597340484E-14
 30
4
 11
-8.16817855834961
 21
-3.77900195121765
 31
4
 12
-7.71171474456787
 22
-4.63998460769653
 32
4
 13
-7.71171474456787
 23
-4.63998460769653
 33
4
 0
3DFACE
 8
STL2DXF
 10
-8.94724178314209
 20
0.973071157932281
 30
4
 11
-9
 21
4.7271214720368E-14
 31
4
 12
5.72458747072346E-14
 22
-3.8597597340484E-14
 32
4
 13
5.72458747072346E-14
 23
-3.8597597340484E-14
 33
4
 0
3DFACE
 8
STL2DXF
 10
-9
 20
4.7271214720368E-14
 30
4
 11
-8.94724178314209
 21
-0.973071157932281
 31
4
 12
5.72458747072346E-14
 22
-3.8597597340484E-14
 32
4
 13
5.72458747072346E-14
 23
-3.8597597340484E-14
 33
4
 0
3DFACE
 8
STL2DXF
 10
5.72458747072346E-14
 20
-3.8597597340484E-14
 30
4
 11
-8.94724178314209
 21
-0.973071157932281
 31
4
 12
-8.78958511352539
 22
-1.93473398685455
 32
4
 13
-8.78958511352539
 23
-1.93473398685455
 33
4
 0
3DFACE
 8
STL2DXF
 10
-8.16817855834961
 20
3.77900195121765
 30
4
 11
-8.52887916564941
 21
2.87371373176575
 31
4
 12
5.72458747072346E-14
 22
-3.8597597340484E-14
 32
4
 13
5.72458747072346E-14
 23
-3.8597597340484E-14
 33
4
 0
3DFACE
 8
STL2DXF
 10
-8.52887916564941
 20
2.87371373176575
 30
4
 11
-8.78958511352539
 21
1.93473398685455
 31
4
 12
5.72458747072346E-14
 22
-3.8597597340484E-14
 32
4
 13
5.72458747072346E-14
 23
-3.8597597340484E-14
 33
4
 0
3DFACE
 8
STL2DXF
 10
5.72458747072346E-14
 20
-3.8597597340484E-14
 30
4
 11
-8.78958511352539
 21
1.93473398685455
 31
4
 12
-8.94724178314209
 22
0.973071157932281
 32
4
 13
-8.94724178314209
 23
0.973071157932281
 33
4
 0
3DFACE
 8
STL2DXF
 10
-6.53395938873291
 20
6.18929529190063
 30
4
 11
-7.16483783721924
 21
5.44656801223755
 31
4
 12
5.72458747072346E-14
 22
-3.8597597340484E-14
 32
4
 13
5.72458747072346E-14
 23
-3.8597597340484E-14
 33
4
 0
3DFACE
 8
STL2DXF
 10
-7.16483783721924
 20
5.44656801223755
 30
4
 11
-7.71171474456787
 21
4.63998460769653
 31
4
 12
5.72458747072346E-14
 22
-3.8597597340484E-14
 32
4
 13
5.72458747072346E-14
 23
-3.8597597340484E-14
 33
4
 0
3DFACE
 8
STL2DXF
 10
5.72458747072346E-14
 20
-3.8597597340484E-14
 30
4
 11
-7.71171474456787
 21
4.63998460769653
 31
4
 12
-8.16817855834961
 22
3.77900195121765
 32
4
 13
-8.16817855834961
 23
3.77900195121765
 33
4
 0
3DFACE
 8
STL2DXF
 10
-4.21567583084106
 20
7.95160865783691
 30
4
 11
-5.05068349838257
 21
7.44920063018799
 31
4
 12
5.72458747072346E-14
 22
-3.8597597340484E-14
 32
4
 13
5.72458747072346E-14
 23
-3.8597597340484E-14
 33
4
 0
3DFACE
 8
STL2DXF
 10
-5.05068349838257
 20
7.44920063018799
 30
4
 11
-5.82647657394409
 21
6.85945844650269
 31
4
 12
5.72458747072346E-14
 22
-3.8597597340484E-14
 32
4
 13
5.72458747072346E-14
 23
-3.8597597340484E-14
 33
4
 0
3DFACE
 8
STL2DXF
 10
5.72458747072346E-14
 20
-3.8597597340484E-14
 30
4
 11
-5.82647657394409
 21
6.85945844650269
 31
4
 12
-6.53395938873291
 22
6.18929529190063
 32
4
 13
-6.53395938873291
 23
6.18929529190063
 33
4
 0
3DFACE
 8
STL2DXF
 10
-1.45603799819946
 20
8.88143825531006
 30
4
 11
-2.40775489807129
 21
8.67194938659668
 31
4
 12
5.72458747072346E-14
 22
-3.8597597340484E-14
 32
4
 13
5.72458747072346E-14
 23
-3.8597597340484E-14
 33
4
 0
3DFACE
 8
STL2DXF
 10
-2.40775489807129
 20
8.67194938659668
 30
4
 11
-3.33124327659607
 21
8.36079025268555
 31
4
 12
5.72458747072346E-14
 22
-3.8597597340484E-14
 32
4
 13
5.72458747072346E-14
 23
-3.8597597340484E-14
 33
4
 0
3DFACE
 8
STL2DXF
 10
5.72458747072346E-14
 20
-3.8597597340484E-14
 30
4
 11
-3.33124327659607
 21
8.36079025268555
 31
4
 12
-4.21567583084106
 22
7.95160865783691
 32
4
 13
-4.21567583084106
 23
7.95160865783691
 33
4
 0
3DFACE
 8
STL2DXF
 10
1.45603799819946
 20
8.88143825531006
 30
4
 11
0.487250179052353
 21
8.98680114746094
 31
4
 12
5.72458747072346E-14
 22
-3.8597597340484E-14
 32
4
 13
5.72458747072346E-14
 23
-3.8597597340484E-14
 33
4
 0
3DFACE
 8
STL2DXF
 10
0.487250179052353
 20
8.98680114746094
 30
4
 11
-0.487250179052353
 21
8.98680114746094
 31
4
 12
5.72458747072346E-14
 22
-3.8597597340484E-14
 32
4
 13
5.72458747072346E-14
 23
-3.8597597340484E-14
 33
4
 0
3DFACE
 8
STL2DXF
 10
5.72458747072346E-14
 20
-3.8597597340484E-14
 30
4
 11
-0.487250179052353
 21
8.98680114746094
 31
4
 12
-1.45603799819946
 22
8.88143825531006
 32
4
 13
-1.45603799819946
 23
8.88143825531006
 33
4
 0
3DFACE
 8
STL2DXF
 10
4.21567583084106
 20
7.95160865783691
 30
4
 11
3.33124327659607
 21
8.36079025268555
 31
4
 12
5.72458747072346E-14
 22
-3.8597597340484E-14
 32
4
 13
5.72458747072346E-14
 23
-3.8597597340484E-14
 33
4
 0
3DFACE
 8
STL2DXF
 10
3.33124327659607
 20
8.36079025268555
 30
4
 11
2.40775489807129
 21
8.67194938659668
 31
4
 12
5.72458747072346E-14
 22
-3.8597597340484E-14
 32
4
 13
5.72458747072346E-14
 23
-3.8597597340484E-14
 33
4
 0
3DFACE
 8
STL2DXF
 10
5.72458747072346E-14
 20
-3.8597597340484E-14
 30
4
 11
2.40775489807129
 21
8.67194938659668
 31
4
 12
1.45603799819946
 22
8.88143825531006
 32
4
 13
1.45603799819946
 23
8.88143825531006
 33
4
 0
3DFACE
 8
STL2DXF
 10
6.53395938873291
 20
6.18929529190063
 30
4
 11
5.82647657394409
 21
6.85945844650269
 31
4
 12
5.72458747072346E-14
 22
-3.8597597340484E-14
 32
4
 13
5.72458747072346E-14
 23
-3.8597597340484E-14
 33
4
 0
3DFACE
 8
STL2DXF
 10
5.82647657394409
 20
6.85945844650269
 30
4
 11
5.05068349838257
 21
7.44920063018799
 31
4
 12
5.72458747072346E-14
 22
-3.8597597340484E-14
 32
4
 13
5.72458747072346E-14
 23
-3.8597597340484E-14
 33
4
 0
3DFACE
 8
STL2DXF
 10
5.72458747072346E-14
 20
-3.8597597340484E-14
 30
4
 11
5.05068349838257
 21
7.44920063018799
 31
4
 12
4.21567583084106
 22
7.95160865783691
 32
4
 13
4.21567583084106
 23
7.95160865783691
 33
4
 0
3DFACE
 8
STL2DXF
 10
8.16817855834961
 20
3.77900195121765
 30
4
 11
7.71171474456787
 21
4.63998460769653
 31
4
 12
5.72458747072346E-14
 22
-3.8597597340484E-14
 32
4
 13
5.72458747072346E-14
 23
-3.8597597340484E-14
 33
4
 0
3DFACE
 8
STL2DXF
 10
7.71171474456787
 20
4.63998460769653
 30
4
 11
7.16483783721924
 21
5.44656801223755
 31
4
 12
5.72458747072346E-14
 22
-3.8597597340484E-14
 32
4
 13
5.72458747072346E-14
 23
-3.8597597340484E-14
 33
4
 0
3DFACE
 8
STL2DXF
 10
5.72458747072346E-14
 20
-3.8597597340484E-14
 30
4
 11
7.16483783721924
 21
5.44656801223755
 31
4
 12
6.53395938873291
 22
6.18929529190063
 32
4
 13
6.53395938873291
 23
6.18929529190063
 33
4
 0
3DFACE
 8
STL2DXF
 10
8.94724178314209
 20
0.973071157932281
 30
4
 11
8.78958511352539
 21
1.93473398685455
 31
4
 12
5.72458747072346E-14
 22
-3.8597597340484E-14
 32
4
 13
5.72458747072346E-14
 23
-3.8597597340484E-14
 33
4
 0
3DFACE
 8
STL2DXF
 10
8.78958511352539
 20
1.93473398685455
 30
4
 11
8.52887916564941
 21
2.87371373176575
 31
4
 12
5.72458747072346E-14
 22
-3.8597597340484E-14
 32
4
 13
5.72458747072346E-14
 23
-3.8597597340484E-14
 33
4
 0
3DFACE
 8
STL2DXF
 10
5.72458747072346E-14
 20
-3.8597597340484E-14
 30
4
 11
8.52887916564941
 21
2.87371373176575
 31
4
 12
8.16817855834961
 22
3.77900195121765
 32
4
 13
8.16817855834961
 23
3.77900195121765
 33
4
 0
3DFACE
 8
STL2DXF
 10
-13.9545097351074
 20
-1.1883932352066
 30
10
 11
-13.9981184005737
 21
-0.439662039279938
 31
10
 12
-13.9545097351074
 22
-1.1883932352066
 32
5.87747175411144E-39
 13
-13.9545097351074
 23
-1.1883932352066
 33
5.87747175411144E-39
 0
3DFACE
 8
STL2DXF
 10
-13.9981184005737
 20
-0.439662039279938
 30
10
 11
-13.9981184005737
 21
-0.439662039279938
 31
5.87747175411144E-39
 12
-13.9545097351074
 22
-1.1883932352066
 32
5.87747175411144E-39
 13
-13.9545097351074
 23
-1.1883932352066
 33
5.87747175411144E-39
 0
3DFACE
 8
STL2DXF
 10
-9
 20
4.7271214720368E-14
 30
10
 11
-9
 21
4.7271214720368E-14
 31
4
 12
-8.94724178314209
 22
0.973071157932281
 32
10
 13
-8.94724178314209
 23
0.973071157932281
 33
10
 0
3DFACE
 8
STL2DXF
 10
-9
 20
4.7271214720368E-14
 30
4
 11
-8.94724178314209
 21
0.973071157932281
 31
4
 12
-8.94724178314209
 22
0.973071157932281
 32
10
 13
-8.94724178314209
 23
0.973071157932281
 33
10
 0
3DFACE
 8
STL2DXF
 10
-8.94724178314209
 20
0.973071157932281
 30
10
 11
-8.94724178314209
 21
0.973071157932281
 31
4
 12
-8.78958511352539
 22
1.93473398685455
 32
10
 13
-8.78958511352539
 23
1.93473398685455
 33
10
 0
3DFACE
 8
STL2DXF
 10
-8.94724178314209
 20
0.973071157932281
 30
4
 11
-8.78958511352539
 21
1.93473398685455
 31
4
 12
-8.78958511352539
 22
1.93473398685455
 32
10
 13
-8.78958511352539
 23
1.93473398685455
 33
10
 0
3DFACE
 8
STL2DXF
 10
-8.78958511352539
 20
1.93473398685455
 30
10
 11
-8.78958511352539
 21
1.93473398685455
 31
4
 12
-8.52887916564941
 22
2.87371373176575
 32
10
 13
-8.52887916564941
 23
2.87371373176575
 33
10
 0
3DFACE
 8
STL2DXF
 10
-8.78958511352539
 20
1.93473398685455
 30
4
 11
-8.52887916564941
 21
2.87371373176575
 31
4
 12
-8.52887916564941
 22
2.87371373176575
 32
10
 13
-8.52887916564941
 23
2.87371373176575
 33
10
 0
3DFACE
 8
STL2DXF
 10
-8.52887916564941
 20
2.87371373176575
 30
10
 11
-8.52887916564941
 21
2.87371373176575
 31
4
 12
-8.16817855834961
 22
3.77900195121765
 32
10
 13
-8.16817855834961
 23
3.77900195121765
 33
10
 0
3DFACE
 8
STL2DXF
 10
-8.52887916564941
 20
2.87371373176575
 30
4
 11
-8.16817855834961
 21
3.77900195121765
 31
4
 12
-8.16817855834961
 22
3.77900195121765
 32
10
 13
-8.16817855834961
 23
3.77900195121765
 33
10
 0
3DFACE
 8
STL2DXF
 10
-8.16817855834961
 20
3.77900195121765
 30
10
 11
-8.16817855834961
 21
3.77900195121765
 31
4
 12
-7.71171474456787
 22
4.63998460769653
 32
10
 13
-7.71171474456787
 23
4.63998460769653
 33
10
 0
3DFACE
 8
STL2DXF
 10
-8.16817855834961
 20
3.77900195121765
 30
4
 11
-7.71171474456787
 21
4.63998460769653
 31
4
 12
-7.71171474456787
 22
4.63998460769653
 32
10
 13
-7.71171474456787
 23
4.63998460769653
 33
10
 0
3DFACE
 8
STL2DXF
 10
-7.71171474456787
 20
4.63998460769653
 30
10
 11
-7.71171474456787
 21
4.63998460769653
 31
4
 12
-7.16483783721924
 22
5.44656801223755
 32
10
 13
-7.16483783721924
 23
5.44656801223755
 33
10
 0
3DFACE
 8
STL2DXF
 10
-7.71171474456787
 20
4.63998460769653
 30
4
 11
-7.16483783721924
 21
5.44656801223755
 31
4
 12
-7.16483783721924
 22
5.44656801223755
 32
10
 13
-7.16483783721924
 23
5.44656801223755
 33
10
 0
3DFACE
 8
STL2DXF
 10
-7.16483783721924
 20
5.44656801223755
 30
10
 11
-7.16483783721924
 21
5.44656801223755
 31
4
 12
-6.53395938873291
 22
6.18929529190063
 32
10
 13
-6.53395938873291
 23
6.18929529190063
 33
10
 0
3DFACE
 8
STL2DXF
 10
-7.16483783721924
 20
5.44656801223755
 30
4
 11
-6.53395938873291
 21
6.18929529190063
 31
4
 12
-6.53395938873291
 22
6.18929529190063
 32
10
 13
-6.53395938873291
 23
6.18929529190063
 33
10
 0
3DFACE
 8
STL2DXF
 10
-6.53395938873291
 20
6.18929529190063
 30
10
 11
-6.53395938873291
 21
6.18929529190063
 31
4
 12
-5.82647657394409
 22
6.85945844650269
 32
10
 13
-5.82647657394409
 23
6.85945844650269
 33
10
 0
3DFACE
 8
STL2DXF
 10
-6.53395938873291
 20
6.18929529190063
 30
4
 11
-5.82647657394409
 21
6.85945844650269
 31
4
 12
-5.82647657394409
 22
6.85945844650269
 32
10
 13
-5.82647657394409
 23
6.85945844650269
 33
10
 0
3DFACE
 8
STL2DXF
 10
-5.82647657394409
 20
6.85945844650269
 30
10
 11
-5.82647657394409
 21
6.85945844650269
 31
4
 12
-5.05068349838257
 22
7.44920063018799
 32
10
 13
-5.05068349838257
 23
7.44920063018799
 33
10
 0
3DFACE
 8
STL2DXF
 10
-5.82647657394409
 20
6.85945844650269
 30
4
 11
-5.05068349838257
 21
7.44920063018799
 31
4
 12
-5.05068349838257
 22
7.44920063018799
 32
10
 13
-5.05068349838257
 23
7.44920063018799
 33
10
 0
3DFACE
 8
STL2DXF
 10
-5.05068349838257
 20
7.44920063018799
 30
10
 11
-5.05068349838257
 21
7.44920063018799
 31
4
 12
-4.21567583084106
 22
7.95160865783691
 32
10
 13
-4.21567583084106
 23
7.95160865783691
 33
10
 0
3DFACE
 8
STL2DXF
 10
-5.05068349838257
 20
7.44920063018799
 30
4
 11
-4.21567583084106
 21
7.95160865783691
 31
4
 12
-4.21567583084106
 22
7.95160865783691
 32
10
 13
-4.21567583084106
 23
7.95160865783691
 33
10
 0
3DFACE
 8
STL2DXF
 10
-4.21567583084106
 20
7.95160865783691
 30
10
 11
-4.21567583084106
 21
7.95160865783691
 31
4
 12
-3.33124327659607
 22
8.36079025268555
 32
10
 13
-3.33124327659607
 23
8.36079025268555
 33
10
 0
3DFACE
 8
STL2DXF
 10
-4.21567583084106
 20
7.95160865783691
 30
4
 11
-3.33124327659607
 21
8.36079025268555
 31
4
 12
-3.33124327659607
 22
8.36079025268555
 32
10
 13
-3.33124327659607
 23
8.36079025268555
 33
10
 0
3DFACE
 8
STL2DXF
 10
-3.33124327659607
 20
8.36079025268555
 30
10
 11
-3.33124327659607
 21
8.36079025268555
 31
4
 12
-2.40775489807129
 22
8.67194938659668
 32
10
 13
-2.40775489807129
 23
8.67194938659668
 33
10
 0
3DFACE
 8
STL2DXF
 10
-3.33124327659607
 20
8.36079025268555
 30
4
 11
-2.40775489807129
 21
8.67194938659668
 31
4
 12
-2.40775489807129
 22
8.67194938659668
 32
10
 13
-2.40775489807129
 23
8.67194938659668
 33
10
 0
3DFACE
 8
STL2DXF
 10
-2.40775489807129
 20
8.67194938659668
 30
10
 11
-2.40775489807129
 21
8.67194938659668
 31
4
 12
-1.45603799819946
 22
8.88143825531006
 32
10
 13
-1.45603799819946
 23
8.88143825531006
 33
10
 0
3DFACE
 8
STL2DXF
 10
-2.40775489807129
 20
8.67194938659668
 30
4
 11
-1.45603799819946
 21
8.88143825531006
 31
4
 12
-1.45603799819946
 22
8.88143825531006
 32
10
 13
-1.45603799819946
 23
8.88143825531006
 33
10
 0
3DFACE
 8
STL2DXF
 10
-1.45603799819946
 20
8.88143825531006
 30
10
 11
-1.45603799819946
 21
8.88143825531006
 31
4
 12
-0.487250179052353
 22
8.98680114746094
 32
10
 13
-0.487250179052353
 23
8.98680114746094
 33
10
 0
3DFACE
 8
STL2DXF
 10
-1.45603799819946
 20
8.88143825531006
 30
4
 11
-0.487250179052353
 21
8.98680114746094
 31
4
 12
-0.487250179052353
 22
8.98680114746094
 32
10
 13
-0.487250179052353
 23
8.98680114746094
 33
10
 0
3DFACE
 8
STL2DXF
 10
-0.487250179052353
 20
8.98680114746094
 30
10
 11
-0.487250179052353
 21
8.98680114746094
 31
4
 12
0.487250179052353
 22
8.98680114746094
 32
10
 13
0.487250179052353
 23
8.98680114746094
 33
10
 0
3DFACE
 8
STL2DXF
 10
-0.487250179052353
 20
8.98680114746094
 30
4
 11
0.487250179052353
 21
8.98680114746094
 31
4
 12
0.487250179052353
 22
8.98680114746094
 32
10
 13
0.487250179052353
 23
8.98680114746094
 33
10
 0
3DFACE
 8
STL2DXF
 10
0.487250179052353
 20
8.98680114746094
 30
10
 11
0.487250179052353
 21
8.98680114746094
 31
4
 12
1.45603799819946
 22
8.88143825531006
 32
10
 13
1.45603799819946
 23
8.88143825531006
 33
10
 0
3DFACE
 8
STL2DXF
 10
0.487250179052353
 20
8.98680114746094
 30
4
 11
1.45603799819946
 21
8.88143825531006
 31
4
 12
1.45603799819946
 22
8.88143825531006
 32
10
 13
1.45603799819946
 23
8.88143825531006
 33
10
 0
3DFACE
 8
STL2DXF
 10
1.45603799819946
 20
8.88143825531006
 30
10
 11
1.45603799819946
 21
8.88143825531006
 31
4
 12
2.40775489807129
 22
8.67194938659668
 32
10
 13
2.40775489807129
 23
8.67194938659668
 33
10
 0
3DFACE
 8
STL2DXF
 10
1.45603799819946
 20
8.88143825531006
 30
4
 11
2.40775489807129
 21
8.67194938659668
 31
4
 12
2.40775489807129
 22
8.67194938659668
 32
10
 13
2.40775489807129
 23
8.67194938659668
 33
10
 0
3DFACE
 8
STL2DXF
 10
2.40775489807129
 20
8.67194938659668
 30
10
 11
2.40775489807129
 21
8.67194938659668
 31
4
 12
3.33124327659607
 22
8.36079025268555
 32
10
 13
3.33124327659607
 23
8.36079025268555
 33
10
 0
3DFACE
 8
STL2DXF
 10
2.40775489807129
 20
8.67194938659668
 30
4
 11
3.33124327659607
 21
8.36079025268555
 31
4
 12
3.33124327659607
 22
8.36079025268555
 32
10
 13
3.33124327659607
 23
8.36079025268555
 33
10
 0
3DFACE
 8
STL2DXF
 10
3.33124327659607
 20
8.36079025268555
 30
10
 11
3.33124327659607
 21
8.36079025268555
 31
4
 12
4.21567583084106
 22
7.95160865783691
 32
10
 13
4.21567583084106
 23
7.95160865783691
 33
10
 0
3DFACE
 8
STL2DXF
 10
3.33124327659607
 20
8.36079025268555
 30
4
 11
4.21567583084106
 21
7.95160865783691
 31
4
 12
4.21567583084106
 22
7.95160865783691
 32
10
 13
4.21567583084106
 23
7.95160865783691
 33
10
 0
3DFACE
 8
STL2DXF
 10
4.21567583084106
 20
7.95160865783691
 30
10
 11
4.21567583084106
 21
7.95160865783691
 31
4
 12
5.05068349838257
 22
7.44920063018799
 32
10
 13
5.05068349838257
 23
7.44920063018799
 33
10
 0
3DFACE
 8
STL2DXF
 10
4.21567583084106
 20
7.95160865783691
 30
4
 11
5.05068349838257
 21
7.44920063018799
 31
4
 12
5.05068349838257
 22
7.44920063018799
 32
10
 13
5.05068349838257
 23
7.44920063018799
 33
10
 0
3DFACE
 8
STL2DXF
 10
5.05068349838257
 20
7.44920063018799
 30
10
 11
5.05068349838257
 21
7.44920063018799
 31
4
 12
5.82647657394409
 22
6.85945844650269
 32
10
 13
5.82647657394409
 23
6.85945844650269
 33
10
 0
3DFACE
 8
STL2DXF
 10
5.05068349838257
 20
7.44920063018799
 30
4
 11
5.82647657394409
 21
6.85945844650269
 31
4
 12
5.82647657394409
 22
6.85945844650269
 32
10
 13
5.82647657394409
 23
6.85945844650269
 33
10
 0
3DFACE
 8
STL2DXF
 10
5.82647657394409
 20
6.85945844650269
 30
10
 11
5.82647657394409
 21
6.85945844650269
 31
4
 12
6.53395938873291
 22
6.18929529190063
 32
10
 13
6.53395938873291
 23
6.18929529190063
 33
10
 0
3DFACE
 8
STL2DXF
 10
5.82647657394409
 20
6.85945844650269
 30
4
 11
6.53395938873291
 21
6.18929529190063
 31
4
 12
6.53395938873291
 22
6.18929529190063
 32
10
 13
6.53395938873291
 23
6.18929529190063
 33
10
 0
3DFACE
 8
STL2DXF
 10
6.53395938873291
 20
6.18929529190063
 30
10
 11
6.53395938873291
 21
6.18929529190063
 31
4
 12
7.16483783721924
 22
5.44656801223755
 32
10
 13
7.16483783721924
 23
5.44656801223755
 33
10
 0
3DFACE
 8
STL2DXF
 10
6.53395938873291
 20
6.18929529190063
 30
4
 11
7.16483783721924
 21
5.44656801223755
 31
4
 12
7.16483783721924
 22
5.44656801223755
 32
10
 13
7.16483783721924
 23
5.44656801223755
 33
10
 0
3DFACE
 8
STL2DXF
 10
7.16483783721924
 20
5.44656801223755
 30
10
 11
7.16483783721924
 21
5.44656801223755
 31
4
 12
7.71171474456787
 22
4.63998460769653
 32
10
 13
7.71171474456787
 23
4.63998460769653
 33
10
 0
3DFACE
 8
STL2DXF
 10
7.16483783721924
 20
5.44656801223755
 30
4
 11
7.71171474456787
 21
4.63998460769653
 31
4
 12
7.71171474456787
 22
4.63998460769653
 32
10
 13
7.71171474456787
 23
4.63998460769653
 33
10
 0
3DFACE
 8
STL2DXF
 10
7.71171474456787
 20
4.63998460769653
 30
10
 11
7.71171474456787
 21
4.63998460769653
 31
4
 12
8.16817855834961
 22
3.77900195121765
 32
10
 13
8.16817855834961
 23
3.77900195121765
 33
10
 0
3DFACE
 8
STL2DXF
 10
7.71171474456787
 20
4.63998460769653
 30
4
 11
8.16817855834961
 21
3.77900195121765
 31
4
 12
8.16817855834961
 22
3.77900195121765
 32
10
 13
8.16817855834961
 23
3.77900195121765
 33
10
 0
3DFACE
 8
STL2DXF
 10
8.16817855834961
 20
3.77900195121765
 30
10
 11
8.16817855834961
 21
3.77900195121765
 31
4
 12
8.52887916564941
 22
2.87371373176575
 32
10
 13
8.52887916564941
 23
2.87371373176575
 33
10
 0
3DFACE
 8
STL2DXF
 10
8.16817855834961
 20
3.77900195121765
 30
4
 11
8.52887916564941
 21
2.87371373176575
 31
4
 12
8.52887916564941
 22
2.87371373176575
 32
10
 13
8.52887916564941
 23
2.87371373176575
 33
10
 0
3DFACE
 8
STL2DXF
 10
8.52887916564941
 20
2.87371373176575
 30
10
 11
8.52887916564941
 21
2.87371373176575
 31
4
 12
8.78958511352539
 22
1.93473398685455
 32
10
 13
8.78958511352539
 23
1.93473398685455
 33
10
 0
3DFACE
 8
STL2DXF
 10
8.52887916564941
 20
2.87371373176575
 30
4
 11
8.78958511352539
 21
1.93473398685455
 31
4
 12
8.78958511352539
 22
1.93473398685455
 32
10
 13
8.78958511352539
 23
1.93473398685455
 33
10
 0
3DFACE
 8
STL2DXF
 10
8.78958511352539
 20
1.93473398685455
 30
10
 11
8.78958511352539
 21
1.93473398685455
 31
4
 12
8.94724178314209
 22
0.973071157932281
 32
10
 13
8.94724178314209
 23
0.973071157932281
 33
10
 0
3DFACE
 8
STL2DXF
 10
8.78958511352539
 20
1.93473398685455
 30
4
 11
8.94724178314209
 21
0.973071157932281
 31
4
 12
8.94724178314209
 22
0.973071157932281
 32
10
 13
8.94724178314209
 23
0.973071157932281
 33
10
 0
3DFACE
 8
STL2DXF
 10
8.94724178314209
 20
0.973071157932281
 30
10
 11
8.94724178314209
 21
0.973071157932281
 31
4
 12
9
 22
-1.15786464685336E-14
 32
10
 13
9
 23
-1.15786464685336E-14
 33
10
 0
3DFACE
 8
STL2DXF
 10
8.94724178314209
 20
0.973071157932281
 30
4
 11
9
 21
-2.93582974771056E-14
 31
4
 12
9
 22
-1.15786464685336E-14
 32
10
 13
9
 23
-1.15786464685336E-14
 33
10
 0
3DFACE
 8
STL2DXF
 10
9
 20
-1.15786464685336E-14
 30
10
 11
9
 21
-2.93582974771056E-14
 31
4
 12
8.94724178314209
 22
-0.973071157932281
 32
10
 13
8.94724178314209
 23
-0.973071157932281
 33
10
 0
3DFACE
 8
STL2DXF
 10
9
 20
-2.93582974771056E-14
 30
4
 11
8.94724178314209
 21
-0.973071157932281
 31
4
 12
8.94724178314209
 22
-0.973071157932281
 32
10
 13
8.94724178314209
 23
-0.973071157932281
 33
10
 0
3DFACE
 8
STL2DXF
 10
8.94724178314209
 20
-0.973071157932281
 30
10
 11
8.94724178314209
 21
-0.973071157932281
 31
4
 12
8.78958511352539
 22
-1.93473398685455
 32
10
 13
8.78958511352539
 23
-1.93473398685455
 33
10
 0
3DFACE
 8
STL2DXF
 10
8.94724178314209
 20
-0.973071157932281
 30
4
 11
8.78958511352539
 21
-1.93473398685455
 31
4
 12
8.78958511352539
 22
-1.93473398685455
 32
10
 13
8.78958511352539
 23
-1.93473398685455
 33
10
 0
3DFACE
 8
STL2DXF
 10
8.78958511352539
 20
-1.93473398685455
 30
10
 11
8.78958511352539
 21
-1.93473398685455
 31
4
 12
8.52887916564941
 22
-2.87371373176575
 32
10
 13
8.52887916564941
 23
-2.87371373176575
 33
10
 0
3DFACE
 8
STL2DXF
 10
8.78958511352539
 20
-1.93473398685455
 30
4
 11
8.52887916564941
 21
-2.87371373176575
 31
4
 12
8.52887916564941
 22
-2.87371373176575
 32
10
 13
8.52887916564941
 23
-2.87371373176575
 33
10
 0
3DFACE
 8
STL2DXF
 10
8.52887916564941
 20
-2.87371373176575
 30
10
 11
8.52887916564941
 21
-2.87371373176575
 31
4
 12
8.16817855834961
 22
-3.77900195121765
 32
10
 13
8.16817855834961
 23
-3.77900195121765
 33
10
 0
3DFACE
 8
STL2DXF
 10
8.52887916564941
 20
-2.87371373176575
 30
4
 11
8.16817855834961
 21
-3.77900195121765
 31
4
 12
8.16817855834961
 22
-3.77900195121765
 32
10
 13
8.16817855834961
 23
-3.77900195121765
 33
10
 0
3DFACE
 8
STL2DXF
 10
8.16817855834961
 20
-3.77900195121765
 30
10
 11
8.16817855834961
 21
-3.77900195121765
 31
4
 12
7.71171474456787
 22
-4.63998460769653
 32
10
 13
7.71171474456787
 23
-4.63998460769653
 33
10
 0
3DFACE
 8
STL2DXF
 10
8.16817855834961
 20
-3.77900195121765
 30
4
 11
7.71171474456787
 21
-4.63998460769653
 31
4
 12
7.71171474456787
 22
-4.63998460769653
 32
10
 13
7.71171474456787
 23
-4.63998460769653
 33
10
 0
3DFACE
 8
STL2DXF
 10
7.71171474456787
 20
-4.63998460769653
 30
10
 11
7.71171474456787
 21
-4.63998460769653
 31
4
 12
7.16483783721924
 22
-5.44656801223755
 32
10
 13
7.16483783721924
 23
-5.44656801223755
 33
10
 0
3DFACE
 8
STL2DXF
 10
7.71171474456787
 20
-4.63998460769653
 30
4
 11
7.16483783721924
 21
-5.44656801223755
 31
4
 12
7.16483783721924
 22
-5.44656801223755
 32
10
 13
7.16483783721924
 23
-5.44656801223755
 33
10
 0
3DFACE
 8
STL2DXF
 10
7.16483783721924
 20
-5.44656801223755
 30
10
 11
7.16483783721924
 21
-5.44656801223755
 31
4
 12
6.53395938873291
 22
-6.18929529190063
 32
10
 13
6.53395938873291
 23
-6.18929529190063
 33
10
 0
3DFACE
 8
STL2DXF
 10
7.16483783721924
 20
-5.44656801223755
 30
4
 11
6.53395938873291
 21
-6.18929529190063
 31
4
 12
6.53395938873291
 22
-6.18929529190063
 32
10
 13
6.53395938873291
 23
-6.18929529190063
 33
10
 0
3DFACE
 8
STL2DXF
 10
6.53395938873291
 20
-6.18929529190063
 30
10
 11
6.53395938873291
 21
-6.18929529190063
 31
4
 12
5.82647657394409
 22
-6.85945844650269
 32
10
 13
5.82647657394409
 23
-6.85945844650269
 33
10
 0
3DFACE
 8
STL2DXF
 10
6.53395938873291
 20
-6.18929529190063
 30
4
 11
5.82647657394409
 21
-6.85945844650269
 31
4
 12
5.82647657394409
 22
-6.85945844650269
 32
10
 13
5.82647657394409
 23
-6.85945844650269
 33
10
 0
3DFACE
 8
STL2DXF
 10
5.82647657394409
 20
-6.85945844650269
 30
10
 11
5.82647657394409
 21
-6.85945844650269
 31
4
 12
5.05068349838257
 22
-7.44920063018799
 32
10
 13
5.05068349838257
 23
-7.44920063018799
 33
10
 0
3DFACE
 8
STL2DXF
 10
5.82647657394409
 20
-6.85945844650269
 30
4
 11
5.05068349838257
 21
-7.44920063018799
 31
4
 12
5.05068349838257
 22
-7.44920063018799
 32
10
 13
5.05068349838257
 23
-7.44920063018799
 33
10
 0
3DFACE
 8
STL2DXF
 10
5.05068349838257
 20
-7.44920063018799
 30
10
 11
5.05068349838257
 21
-7.44920063018799
 31
4
 12
4.21567583084106
 22
-7.95160865783691
 32
10
 13
4.21567583084106
 23
-7.95160865783691
 33
10
 0
3DFACE
 8
STL2DXF
 10
5.05068349838257
 20
-7.44920063018799
 30
4
 11
4.21567583084106
 21
-7.95160865783691
 31
4
 12
4.21567583084106
 22
-7.95160865783691
 32
10
 13
4.21567583084106
 23
-7.95160865783691
 33
10
 0
3DFACE
 8
STL2DXF
 10
4.21567583084106
 20
-7.95160865783691
 30
10
 11
4.21567583084106
 21
-7.95160865783691
 31
4
 12
3.33124327659607
 22
-8.36079025268555
 32
10
 13
3.33124327659607
 23
-8.36079025268555
 33
10
 0
3DFACE
 8
STL2DXF
 10
4.21567583084106
 20
-7.95160865783691
 30
4
 11
3.33124327659607
 21
-8.36079025268555
 31
4
 12
3.33124327659607
 22
-8.36079025268555
 32
10
 13
3.33124327659607
 23
-8.36079025268555
 33
10
 0
3DFACE
 8
STL2DXF
 10
3.33124327659607
 20
-8.36079025268555
 30
10
 11
3.33124327659607
 21
-8.36079025268555
 31
4
 12
2.40775489807129
 22
-8.67194938659668
 32
10
 13
2.40775489807129
 23
-8.67194938659668
 33
10
 0
3DFACE
 8
STL2DXF
 10
3.33124327659607
 20
-8.36079025268555
 30
4
 11
2.40775489807129
 21
-8.67194938659668
 31
4
 12
2.40775489807129
 22
-8.67194938659668
 32
10
 13
2.40775489807129
 23
-8.67194938659668
 33
10
 0
3DFACE
 8
STL2DXF
 10
2.40775489807129
 20
-8.67194938659668
 30
10
 11
2.40775489807129
 21
-8.67194938659668
 31
4
 12
1.45603799819946
 22
-8.88143825531006
 32
10
 13
1.45603799819946
 23
-8.88143825531006
 33
10
 0
3DFACE
 8
STL2DXF
 10
2.40775489807129
 20
-8.67194938659668
 30
4
 11
1.45603799819946
 21
-8.88143825531006
 31
4
 12
1.45603799819946
 22
-8.88143825531006
 32
10
 13
1.45603799819946
 23
-8.88143825531006
 33
10
 0
3DFACE
 8
STL2DXF
 10
1.45603799819946
 20
-8.88143825531006
 30
10
 11
1.45603799819946
 21
-8.88143825531006
 31
4
 12
0.487250179052353
 22
-8.98680114746094
 32
10
 13
0.487250179052353
 23
-8.98680114746094
 33
10
 0
3DFACE
 8
STL2DXF
 10
1.45603799819946
 20
-8.88143825531006
 30
4
 11
0.487250179052353
 21
-8.98680114746094
 31
4
 12
0.487250179052353
 22
-8.98680114746094
 32
10
 13
0.487250179052353
 23
-8.98680114746094
 33
10
 0
3DFACE
 8
STL2DXF
 10
0.487250179052353
 20
-8.98680114746094
 30
10
 11
0.487250179052353
 21
-8.98680114746094
 31
4
 12
-0.487250179052353
 22
-8.98680114746094
 32
10
 13
-0.487250179052353
 23
-8.98680114746094
 33
10
 0
3DFACE
 8
STL2DXF
 10
0.487250179052353
 20
-8.98680114746094
 30
4
 11
-0.487250179052353
 21
-8.98680114746094
 31
4
 12
-0.487250179052353
 22
-8.98680114746094
 32
10
 13
-0.487250179052353
 23
-8.98680114746094
 33
10
 0
3DFACE
 8
STL2DXF
 10
-0.487250179052353
 20
-8.98680114746094
 30
10
 11
-0.487250179052353
 21
-8.98680114746094
 31
4
 12
-1.45603799819946
 22
-8.88143825531006
 32
10
 13
-1.45603799819946
 23
-8.88143825531006
 33
10
 0
3DFACE
 8
STL2DXF
 10
-0.487250179052353
 20
-8.98680114746094
 30
4
 11
-1.45603799819946
 21
-8.88143825531006
 31
4
 12
-1.45603799819946
 22
-8.88143825531006
 32
10
 13
-1.45603799819946
 23
-8.88143825531006
 33
10
 0
3DFACE
 8
STL2DXF
 10
-1.45603799819946
 20
-8.88143825531006
 30
10
 11
-1.45603799819946
 21
-8.88143825531006
 31
4
 12
-2.40775489807129
 22
-8.67194938659668
 32
10
 13
-2.40775489807129
 23
-8.67194938659668
 33
10
 0
3DFACE
 8
STL2DXF
 10
-1.45603799819946
 20
-8.88143825531006
 30
4
 11
-2.40775489807129
 21
-8.67194938659668
 31
4
 12
-2.40775489807129
 22
-8.67194938659668
 32
10
 13
-2.40775489807129
 23
-8.67194938659668
 33
10
 0
3DFACE
 8
STL2DXF
 10
-2.40775489807129
 20
-8.67194938659668
 30
10
 11
-2.40775489807129
 21
-8.67194938659668
 31
4
 12
-3.33124327659607
 22
-8.36079025268555
 32
10
 13
-3.33124327659607
 23
-8.36079025268555
 33
10
 0
3DFACE
 8
STL2DXF
 10
-2.40775489807129
 20
-8.67194938659668
 30
4
 11
-3.33124327659607
 21
-8.36079025268555
 31
4
 12
-3.33124327659607
 22
-8.36079025268555
 32
10
 13
-3.33124327659607
 23
-8.36079025268555
 33
10
 0
3DFACE
 8
STL2DXF
 10
-3.33124327659607
 20
-8.36079025268555
 30
10
 11
-3.33124327659607
 21
-8.36079025268555
 31
4
 12
-4.21567583084106
 22
-7.95160865783691
 32
10
 13
-4.21567583084106
 23
-7.95160865783691
 33
10
 0
3DFACE
 8
STL2DXF
 10
-3.33124327659607
 20
-8.36079025268555
 30
4
 11
-4.21567583084106
 21
-7.95160865783691
 31
4
 12
-4.21567583084106
 22
-7.95160865783691
 32
10
 13
-4.21567583084106
 23
-7.95160865783691
 33
10
 0
3DFACE
 8
STL2DXF
 10
-4.21567583084106
 20
-7.95160865783691
 30
10
 11
-4.21567583084106
 21
-7.95160865783691
 31
4
 12
-5.05068349838257
 22
-7.44920063018799
 32
10
 13
-5.05068349838257
 23
-7.44920063018799
 33
10
 0
3DFACE
 8
STL2DXF
 10
-4.21567583084106
 20
-7.95160865783691
 30
4
 11
-5.05068349838257
 21
-7.44920063018799
 31
4
 12
-5.05068349838257
 22
-7.44920063018799
 32
10
 13
-5.05068349838257
 23
-7.44920063018799
 33
10
 0
3DFACE
 8
STL2DXF
 10
-5.05068349838257
 20
-7.44920063018799
 30
10
 11
-5.05068349838257
 21
-7.44920063018799
 31
4
 12
-5.82647657394409
 22
-6.85945844650269
 32
10
 13
-5.82647657394409
 23
-6.85945844650269
 33
10
 0
3DFACE
 8
STL2DXF
 10
-5.05068349838257
 20
-7.44920063018799
 30
4
 11
-5.82647657394409
 21
-6.85945844650269
 31
4
 12
-5.82647657394409
 22
-6.85945844650269
 32
10
 13
-5.82647657394409
 23
-6.85945844650269
 33
10
 0
3DFACE
 8
STL2DXF
 10
-5.82647657394409
 20
-6.85945844650269
 30
10
 11
-5.82647657394409
 21
-6.85945844650269
 31
4
 12
-6.53395938873291
 22
-6.18929529190063
 32
10
 13
-6.53395938873291
 23
-6.18929529190063
 33
10
 0
3DFACE
 8
STL2DXF
 10
-5.82647657394409
 20
-6.85945844650269
 30
4
 11
-6.53395938873291
 21
-6.18929529190063
 31
4
 12
-6.53395938873291
 22
-6.18929529190063
 32
10
 13
-6.53395938873291
 23
-6.18929529190063
 33
10
 0
3DFACE
 8
STL2DXF
 10
-6.53395938873291
 20
-6.18929529190063
 30
10
 11
-6.53395938873291
 21
-6.18929529190063
 31
4
 12
-7.16483783721924
 22
-5.44656801223755
 32
10
 13
-7.16483783721924
 23
-5.44656801223755
 33
10
 0
3DFACE
 8
STL2DXF
 10
-6.53395938873291
 20
-6.18929529190063
 30
4
 11
-7.16483783721924
 21
-5.44656801223755
 31
4
 12
-7.16483783721924
 22
-5.44656801223755
 32
10
 13
-7.16483783721924
 23
-5.44656801223755
 33
10
 0
3DFACE
 8
STL2DXF
 10
-7.16483783721924
 20
-5.44656801223755
 30
10
 11
-7.16483783721924
 21
-5.44656801223755
 31
4
 12
-7.71171474456787
 22
-4.63998460769653
 32
10
 13
-7.71171474456787
 23
-4.63998460769653
 33
10
 0
3DFACE
 8
STL2DXF
 10
-7.16483783721924
 20
-5.44656801223755
 30
4
 11
-7.71171474456787
 21
-4.63998460769653
 31
4
 12
-7.71171474456787
 22
-4.63998460769653
 32
10
 13
-7.71171474456787
 23
-4.63998460769653
 33
10
 0
3DFACE
 8
STL2DXF
 10
-7.71171474456787
 20
-4.63998460769653
 30
10
 11
-7.71171474456787
 21
-4.63998460769653
 31
4
 12
-8.16817855834961
 22
-3.77900195121765
 32
10
 13
-8.16817855834961
 23
-3.77900195121765
 33
10
 0
3DFACE
 8
STL2DXF
 10
-7.71171474456787
 20
-4.63998460769653
 30
4
 11
-8.16817855834961
 21
-3.77900195121765
 31
4
 12
-8.16817855834961
 22
-3.77900195121765
 32
10
 13
-8.16817855834961
 23
-3.77900195121765
 33
10
 0
3DFACE
 8
STL2DXF
 10
-8.16817855834961
 20
-3.77900195121765
 30
10
 11
-8.16817855834961
 21
-3.77900195121765
 31
4
 12
-8.52887916564941
 22
-2.87371373176575
 32
10
 13
-8.52887916564941
 23
-2.87371373176575
 33
10
 0
3DFACE
 8
STL2DXF
 10
-8.16817855834961
 20
-3.77900195121765
 30
4
 11
-8.52887916564941
 21
-2.87371373176575
 31
4
 12
-8.52887916564941
 22
-2.87371373176575
 32
10
 13
-8.52887916564941
 23
-2.87371373176575
 33
10
 0
3DFACE
 8
STL2DXF
 10
-8.52887916564941
 20
-2.87371373176575
 30
10
 11
-8.52887916564941
 21
-2.87371373176575
 31
4
 12
-8.78958511352539
 22
-1.93473398685455
 32
10
 13
-8.78958511352539
 23
-1.93473398685455
 33
10
 0
3DFACE
 8
STL2DXF
 10
-8.52887916564941
 20
-2.87371373176575
 30
4
 11
-8.78958511352539
 21
-1.93473398685455
 31
4
 12
-8.78958511352539
 22
-1.93473398685455
 32
10
 13
-8.78958511352539
 23
-1.93473398685455
 33
10
 0
3DFACE
 8
STL2DXF
 10
-8.78958511352539
 20
-1.93473398685455
 30
10
 11
-8.78958511352539
 21
-1.93473398685455
 31
4
 12
-8.94724178314209
 22
-0.973071157932281
 32
10
 13
-8.94724178314209
 23
-0.973071157932281
 33
10
 0
3DFACE
 8
STL2DXF
 10
-8.78958511352539
 20
-1.93473398685455
 30
4
 11
-8.94724178314209
 21
-0.973071157932281
 31
4
 12
-8.94724178314209
 22
-0.973071157932281
 32
10
 13
-8.94724178314209
 23
-0.973071157932281
 33
10
 0
3DFACE
 8
STL2DXF
 10
-8.94724178314209
 20
-0.973071157932281
 30
10
 11
-8.94724178314209
 21
-0.973071157932281
 31
4
 12
-9
 22
4.7271214720368E-14
 32
10
 13
-9
 23
4.7271214720368E-14
 33
10
 0
3DFACE
 8
STL2DXF
 10
-8.94724178314209
 20
-0.973071157932281
 30
4
 11
-9
 21
4.7271214720368E-14
 31
4
 12
-9
 22
4.7271214720368E-14
 32
10
 13
-9
 23
4.7271214720368E-14
 33
10
 0
3DFACE
 8
STL2DXF
 10
-12.934063911438
 20
-1.30766618251801
 30
10
 11
-13.9545097351074
 21
-1.1883932352066
 31
10
 12
-12.934063911438
 22
-1.30766618251801
 32
5.87747175411144E-39
 13
-12.934063911438
 23
-1.30766618251801
 33
5.87747175411144E-39
 0
3DFACE
 8
STL2DXF
 10
-13.9545097351074
 20
-1.1883932352066
 30
10
 11
-13.9545097351074
 21
-1.1883932352066
 31
5.87747175411144E-39
 12
-12.934063911438
 22
-1.30766618251801
 32
5.87747175411144E-39
 13
-12.934063911438
 23
-1.30766618251801
 33
5.87747175411144E-39
 0
3DFACE
 8
STL2DXF
 10
-10.9714221954346
 20
-6.97337055206299
 30
10
 11
-10.9714221954346
 21
-6.97337055206299
 31
5.87747175411144E-39
 12
-10.42760181427
 22
-7.7630615234375
 32
5.87747175411144E-39
 13
-10.42760181427
 23
-7.7630615234375
 33
5.87747175411144E-39
 0
3DFACE
 8
STL2DXF
 10
-10.9714221954346
 20
-6.97337055206299
 30
10
 11
-10.42760181427
 21
-7.7630615234375
 31
5.87747175411144E-39
 12
-10.42760181427
 22
-7.7630615234375
 32
10
 13
-10.42760181427
 23
-7.7630615234375
 33
10
 0
3DFACE
 8
STL2DXF
 10
-10.42760181427
 20
-7.7630615234375
 30
5.87747175411144E-39
 11
-9.82705497741699
 21
-8.51052284240723
 31
5.87747175411144E-39
 12
-10.42760181427
 22
-7.7630615234375
 32
10
 13
-10.42760181427
 23
-7.7630615234375
 33
10
 0
3DFACE
 8
STL2DXF
 10
-10.42760181427
 20
-7.7630615234375
 30
10
 11
-9.82705497741699
 21
-8.51052284240723
 31
5.87747175411144E-39
 12
-9.82705497741699
 22
-8.51052284240723
 32
10
 13
-9.82705497741699
 23
-8.51052284240723
 33
10
 0
3DFACE
 8
STL2DXF
 10
13.0035552978516
 20
5.20078563690186
 30
10
 11
12.1451816558838
 21
4.63622379302979
 31
10
 12
13.0035552978516
 22
5.20078563690186
 32
5.87747175411144E-39
 13
13.0035552978516
 23
5.20078563690186
 33
5.87747175411144E-39
 0
3DFACE
 8
STL2DXF
 10
12.1451816558838
 20
4.63622379302979
 30
10
 11
12.1451816558838
 21
4.63622379302979
 31
5.87747175411144E-39
 12
13.0035552978516
 22
5.20078563690186
 32
5.87747175411144E-39
 13
13.0035552978516
 23
5.20078563690186
 33
5.87747175411144E-39
 0
3DFACE
 8
STL2DXF
 10
-13.5194044113159
 20
-3.65599918365479
 30
10
 11
-12.6012926101685
 21
-3.19490599632263
 31
10
 12
-13.5194044113159
 22
-3.65599918365479
 32
5.87747175411144E-39
 13
-13.5194044113159
 23
-3.65599918365479
 33
5.87747175411144E-39
 0
3DFACE
 8
STL2DXF
 10
-12.6012926101685
 20
-3.19490599632263
 30
10
 11
-12.6012926101685
 21
-3.19490599632263
 31
5.87747175411144E-39
 12
-13.5194044113159
 22
-3.65599918365479
 32
5.87747175411144E-39
 13
-13.5194044113159
 23
-3.65599918365479
 33
5.87747175411144E-39
 0
3DFACE
 8
STL2DXF
 10
-12.2838563919067
 20
-4.25521850585938
 30
10
 11
-12.2838563919067
 21
-4.25521850585938
 31
5.87747175411144E-39
 12
-11.9368085861206
 22
-5.14903688430786
 32
5.87747175411144E-39
 13
-11.9368085861206
 23
-5.14903688430786
 33
5.87747175411144E-39
 0
3DFACE
 8
STL2DXF
 10
-12.2838563919067
 20
-4.25521850585938
 30
10
 11
-11.9368085861206
 21
-5.14903688430786
 31
5.87747175411144E-39
 12
-11.9368085861206
 22
-5.14903688430786
 32
10
 13
-11.9368085861206
 23
-5.14903688430786
 33
10
 0
3DFACE
 8
STL2DXF
 10
-11.9368085861206
 20
-5.14903688430786
 30
5.87747175411144E-39
 11
-11.524827003479
 21
-6.01484489440918
 31
5.87747175411144E-39
 12
-11.9368085861206
 22
-5.14903688430786
 32
10
 13
-11.9368085861206
 23
-5.14903688430786
 33
10
 0
3DFACE
 8
STL2DXF
 10
-11.9368085861206
 20
-5.14903688430786
 30
10
 11
-11.524827003479
 21
-6.01484489440918
 31
5.87747175411144E-39
 12
-11.524827003479
 22
-6.01484489440918
 32
10
 13
-11.524827003479
 23
-6.01484489440918
 33
10
 0
3DFACE
 8
STL2DXF
 10
12.7064962387085
 20
5.8894476890564
 30
10
 11
13.0035552978516
 21
5.20078563690186
 31
10
 12
12.7064962387085
 22
5.8894476890564
 32
5.87747175411144E-39
 13
12.7064962387085
 23
5.8894476890564
 33
5.87747175411144E-39
 0
3DFACE
 8
STL2DXF
 10
13.0035552978516
 20
5.20078563690186
 30
10
 11
13.0035552978516
 21
5.20078563690186
 31
5.87747175411144E-39
 12
12.7064962387085
 22
5.8894476890564
 32
5.87747175411144E-39
 13
12.7064962387085
 23
5.8894476890564
 33
5.87747175411144E-39
 0
3DFACE
 8
STL2DXF
 10
-13.3043012619019
 20
-4.37449169158936
 30
10
 11
-13.5194044113159
 21
-3.65599918365479
 31
10
 12
-13.3043012619019
 22
-4.37449169158936
 32
5.87747175411144E-39
 13
-13.3043012619019
 23
-4.37449169158936
 33
5.87747175411144E-39
 0
3DFACE
 8
STL2DXF
 10
-13.5194044113159
 20
-3.65599918365479
 30
10
 11
-13.5194044113159
 21
-3.65599918365479
 31
5.87747175411144E-39
 12
-13.3043012619019
 22
-4.37449169158936
 32
5.87747175411144E-39
 13
-13.3043012619019
 23
-4.37449169158936
 33
5.87747175411144E-39
 0
3DFACE
 8
STL2DXF
 10
-12.934063911438
 20
-1.30766618251801
 30
10
 11
-12.934063911438
 21
-1.30766618251801
 31
5.87747175411144E-39
 12
-12.8025016784668
 22
-2.25742626190186
 32
5.87747175411144E-39
 13
-12.8025016784668
 23
-2.25742626190186
 33
5.87747175411144E-39
 0
3DFACE
 8
STL2DXF
 10
-12.934063911438
 20
-1.30766618251801
 30
10
 11
-12.8025016784668
 21
-2.25742626190186
 31
5.87747175411144E-39
 12
-12.8025016784668
 22
-2.25742626190186
 32
10
 13
-12.8025016784668
 23
-2.25742626190186
 33
10
 0
3DFACE
 8
STL2DXF
 10
-12.8025016784668
 20
-2.25742626190186
 30
5.87747175411144E-39
 11
-12.6012926101685
 21
-3.19490599632263
 31
5.87747175411144E-39
 12
-12.8025016784668
 22
-2.25742626190186
 32
10
 13
-12.8025016784668
 23
-2.25742626190186
 33
10
 0
3DFACE
 8
STL2DXF
 10
-12.8025016784668
 20
-2.25742626190186
 30
10
 11
-12.6012926101685
 21
-3.19490599632263
 31
5.87747175411144E-39
 12
-12.6012926101685
 22
-3.19490599632263
 32
10
 13
-12.6012926101685
 23
-3.19490599632263
 33
10
 0
3DFACE
 8
STL2DXF
 10
11.7067966461182
 20
5.65251493453979
 30
10
 11
12.7064962387085
 21
5.8894476890564
 31
10
 12
11.7067966461182
 22
5.65251493453979
 32
5.87747175411144E-39
 13
11.7067966461182
 23
5.65251493453979
 33
5.87747175411144E-39
 0
3DFACE
 8
STL2DXF
 10
12.7064962387085
 20
5.8894476890564
 30
10
 11
12.7064962387085
 21
5.8894476890564
 31
5.87747175411144E-39
 12
11.7067966461182
 22
5.65251493453979
 32
5.87747175411144E-39
 13
11.7067966461182
 23
5.65251493453979
 33
5.87747175411144E-39
 0
3DFACE
 8
STL2DXF
 10
-12.2838563919067
 20
-4.25521850585938
 30
10
 11
-13.3043012619019
 21
-4.37449169158936
 31
10
 12
-12.2838563919067
 22
-4.25521850585938
 32
5.87747175411144E-39
 13
-12.2838563919067
 23
-4.25521850585938
 33
5.87747175411144E-39
 0
3DFACE
 8
STL2DXF
 10
-13.3043012619019
 20
-4.37449169158936
 30
10
 11
-13.3043012619019
 21
-4.37449169158936
 31
5.87747175411144E-39
 12
-12.2838563919067
 22
-4.25521850585938
 32
5.87747175411144E-39
 13
-12.2838563919067
 23
-4.25521850585938
 33
5.87747175411144E-39
 0
3DFACE
 8
STL2DXF
 10
-3.92220067977905
 20
-12.3942060470581
 30
10
 11
-3.92220067977905
 21
-12.3942060470581
 31
5.87747175411144E-39
 12
-2.99800634384155
 22
-12.6495838165283
 32
5.87747175411144E-39
 13
-2.99800634384155
 23
-12.6495838165283
 33
5.87747175411144E-39
 0
3DFACE
 8
STL2DXF
 10
-3.92220067977905
 20
-12.3942060470581
 30
10
 11
-2.99800634384155
 21
-12.6495838165283
 31
5.87747175411144E-39
 12
-2.99800634384155
 22
-12.6495838165283
 32
10
 13
-2.99800634384155
 23
-12.6495838165283
 33
10
 0
3DFACE
 8
STL2DXF
 10
-2.99800634384155
 20
-12.6495838165283
 30
5.87747175411144E-39
 11
-2.05750274658203
 21
-12.8361473083496
 31
5.87747175411144E-39
 12
-2.99800634384155
 22
-12.6495838165283
 32
10
 13
-2.99800634384155
 23
-12.6495838165283
 33
10
 0
3DFACE
 8
STL2DXF
 10
-2.99800634384155
 20
-12.6495838165283
 30
10
 11
-2.05750274658203
 21
-12.8361473083496
 31
5.87747175411144E-39
 12
-2.05750274658203
 22
-12.8361473083496
 32
10
 13
-2.05750274658203
 23
-12.8361473083496
 33
10
 0
3DFACE
 8
STL2DXF
 10
11.4536590576172
 20
8.05942440032959
 30
10
 11
10.7486190795898
 21
7.31212568283081
 31
10
 12
11.4536590576172
 22
8.05942440032959
 32
5.87747175411144E-39
 13
11.4536590576172
 23
8.05942440032959
 33
5.87747175411144E-39
 0
3DFACE
 8
STL2DXF
 10
10.7486190795898
 20
7.31212568283081
 30
10
 11
10.7486190795898
 21
7.31212568283081
 31
5.87747175411144E-39
 12
11.4536590576172
 22
8.05942440032959
 32
5.87747175411144E-39
 13
11.4536590576172
 23
8.05942440032959
 33
5.87747175411144E-39
 0
3DFACE
 8
STL2DXF
 10
-12.3118553161621
 20
-6.6752405166626
 30
10
 11
-11.524827003479
 21
-6.01484489440918
 31
10
 12
-12.3118553161621
 22
-6.6752405166626
 32
5.87747175411144E-39
 13
-12.3118553161621
 23
-6.6752405166626
 33
5.87747175411144E-39
 0
3DFACE
 8
STL2DXF
 10
-11.524827003479
 20
-6.01484489440918
 30
10
 11
-11.524827003479
 21
-6.01484489440918
 31
5.87747175411144E-39
 12
-12.3118553161621
 22
-6.6752405166626
 32
5.87747175411144E-39
 13
-12.3118553161621
 23
-6.6752405166626
 33
5.87747175411144E-39
 0
3DFACE
 8
STL2DXF
 10
1.99776518344879
 20
-13.8618021011353
 30
10
 11
1.25283646583557
 21
-13.9488716125488
 31
10
 12
1.99776518344879
 22
-13.8618021011353
 32
5.87747175411144E-39
 13
1.99776518344879
 23
-13.8618021011353
 33
5.87747175411144E-39
 0
3DFACE
 8
STL2DXF
 10
1.25283646583557
 20
-13.9488716125488
 30
10
 11
1.25283646583557
 21
-13.9488716125488
 31
5.87747175411144E-39
 12
1.99776518344879
 22
-13.8618021011353
 32
5.87747175411144E-39
 13
1.99776518344879
 23
-13.8618021011353
 33
5.87747175411144E-39
 0
3DFACE
 8
STL2DXF
 10
2.05750274658203
 20
-12.8361473083496
 30
10
 11
1.99776518344879
 21
-13.8618021011353
 31
10
 12
2.05750274658203
 22
-12.8361473083496
 32
5.87747175411144E-39
 13
2.05750274658203
 23
-12.8361473083496
 33
5.87747175411144E-39
 0
3DFACE
 8
STL2DXF
 10
1.99776518344879
 20
-13.8618021011353
 30
10
 11
1.99776518344879
 21
-13.8618021011353
 31
5.87747175411144E-39
 12
2.05750274658203
 22
-12.8361473083496
 32
5.87747175411144E-39
 13
2.05750274658203
 23
-12.8361473083496
 33
5.87747175411144E-39
 0
3DFACE
 8
STL2DXF
 10
2.05750274658203
 20
-12.8361473083496
 30
10
 11
2.05750274658203
 21
-12.8361473083496
 31
5.87747175411144E-39
 12
2.99800634384155
 22
-12.6495838165283
 32
5.87747175411144E-39
 13
2.99800634384155
 23
-12.6495838165283
 33
5.87747175411144E-39
 0
3DFACE
 8
STL2DXF
 10
2.05750274658203
 20
-12.8361473083496
 30
10
 11
2.99800634384155
 21
-12.6495838165283
 31
5.87747175411144E-39
 12
2.99800634384155
 22
-12.6495838165283
 32
10
 13
2.99800634384155
 23
-12.6495838165283
 33
10
 0
3DFACE
 8
STL2DXF
 10
2.99800634384155
 20
-12.6495838165283
 30
5.87747175411144E-39
 11
3.92220067977905
 21
-12.3942060470581
 31
5.87747175411144E-39
 12
2.99800634384155
 22
-12.6495838165283
 32
10
 13
2.99800634384155
 23
-12.6495838165283
 33
10
 0
3DFACE
 8
STL2DXF
 10
2.99800634384155
 20
-12.6495838165283
 30
10
 11
3.92220067977905
 21
-12.3942060470581
 31
5.87747175411144E-39
 12
3.92220067977905
 22
-12.3942060470581
 32
10
 13
3.92220067977905
 23
-12.3942060470581
 33
10
 0
3DFACE
 8
STL2DXF
 10
8.71175956726074
 20
10.9656677246094
 30
10
 11
9.28629302978516
 21
10.4835767745972
 31
10
 12
8.71175956726074
 22
10.9656677246094
 32
5.87747175411144E-39
 13
8.71175956726074
 23
10.9656677246094
 33
5.87747175411144E-39
 0
3DFACE
 8
STL2DXF
 10
9.28629302978516
 20
10.4835767745972
 30
10
 11
9.28629302978516
 21
10.4835767745972
 31
5.87747175411144E-39
 12
8.71175956726074
 22
10.9656677246094
 32
5.87747175411144E-39
 13
8.71175956726074
 23
10.9656677246094
 33
5.87747175411144E-39
 0
3DFACE
 8
STL2DXF
 10
4.43589735031128
 20
-13.283953666687
 30
10
 11
3.92220067977905
 21
-12.3942060470581
 31
10
 12
4.43589735031128
 22
-13.283953666687
 32
5.87747175411144E-39
 13
4.43589735031128
 23
-13.283953666687
 33
5.87747175411144E-39
 0
3DFACE
 8
STL2DXF
 10
3.92220067977905
 20
-12.3942060470581
 30
10
 11
3.92220067977905
 21
-12.3942060470581
 31
5.87747175411144E-39
 12
4.43589735031128
 22
-13.283953666687
 32
5.87747175411144E-39
 13
4.43589735031128
 23
-13.283953666687
 33
5.87747175411144E-39
 0
3DFACE
 8
STL2DXF
 10
5.14066696166992
 20
-13.0274391174316
 30
10
 11
4.43589735031128
 21
-13.283953666687
 31
10
 12
5.14066696166992
 22
-13.0274391174316
 32
5.87747175411144E-39
 13
5.14066696166992
 23
-13.0274391174316
 33
5.87747175411144E-39
 0
3DFACE
 8
STL2DXF
 10
4.43589735031128
 20
-13.283953666687
 30
10
 11
4.43589735031128
 21
-13.283953666687
 31
5.87747175411144E-39
 12
5.14066696166992
 22
-13.0274391174316
 32
5.87747175411144E-39
 13
5.14066696166992
 23
-13.0274391174316
 33
5.87747175411144E-39
 0
3DFACE
 8
STL2DXF
 10
4.96226167678833
 20
-12.0156545639038
 30
10
 11
5.14066696166992
 21
-13.0274391174316
 31
10
 12
4.96226167678833
 22
-12.0156545639038
 32
5.87747175411144E-39
 13
4.96226167678833
 23
-12.0156545639038
 33
5.87747175411144E-39
 0
3DFACE
 8
STL2DXF
 10
5.14066696166992
 20
-13.0274391174316
 30
10
 11
5.14066696166992
 21
-13.0274391174316
 31
5.87747175411144E-39
 12
4.96226167678833
 22
-12.0156545639038
 32
5.87747175411144E-39
 13
4.96226167678833
 23
-12.0156545639038
 33
5.87747175411144E-39
 0
3DFACE
 8
STL2DXF
 10
4.96226167678833
 20
-12.0156545639038
 30
10
 11
4.96226167678833
 21
-12.0156545639038
 31
5.87747175411144E-39
 12
5.83438968658447
 22
-11.6172246932983
 32
5.87747175411144E-39
 13
5.83438968658447
 23
-11.6172246932983
 33
5.87747175411144E-39
 0
3DFACE
 8
STL2DXF
 10
4.96226167678833
 20
-12.0156545639038
 30
10
 11
5.83438968658447
 21
-11.6172246932983
 31
5.87747175411144E-39
 12
5.83438968658447
 22
-11.6172246932983
 32
10
 13
5.83438968658447
 23
-11.6172246932983
 33
10
 0
3DFACE
 8
STL2DXF
 10
5.83438968658447
 20
-11.6172246932983
 30
5.87747175411144E-39
 11
6.67477798461914
 21
-11.1555967330933
 31
5.87747175411144E-39
 12
5.83438968658447
 22
-11.6172246932983
 32
10
 13
5.83438968658447
 23
-11.6172246932983
 33
10
 0
3DFACE
 8
STL2DXF
 10
5.83438968658447
 20
-11.6172246932983
 30
10
 11
6.67477798461914
 21
-11.1555967330933
 31
5.87747175411144E-39
 12
6.67477798461914
 22
-11.1555967330933
 32
10
 13
6.67477798461914
 23
-11.1555967330933
 33
10
 0
3DFACE
 8
STL2DXF
 10
9.28629302978516
 20
10.4835767745972
 30
10
 11
8.77259635925293
 21
9.59382820129395
 31
10
 12
9.28629302978516
 22
10.4835767745972
 32
5.87747175411144E-39
 13
9.28629302978516
 23
10.4835767745972
 33
5.87747175411144E-39
 0
3DFACE
 8
STL2DXF
 10
8.77259635925293
 20
9.59382820129395
 30
10
 11
8.77259635925293
 21
9.59382820129395
 31
5.87747175411144E-39
 12
9.28629302978516
 22
10.4835767745972
 32
5.87747175411144E-39
 13
9.28629302978516
 23
10.4835767745972
 33
5.87747175411144E-39
 0
3DFACE
 8
STL2DXF
 10
7.37981796264648
 20
-11.9028949737549
 30
10
 11
6.67477798461914
 21
-11.1555967330933
 31
10
 12
7.37981796264648
 22
-11.9028949737549
 32
5.87747175411144E-39
 13
7.37981796264648
 23
-11.9028949737549
 33
5.87747175411144E-39
 0
3DFACE
 8
STL2DXF
 10
6.67477798461914
 20
-11.1555967330933
 30
10
 11
6.67477798461914
 21
-11.1555967330933
 31
5.87747175411144E-39
 12
7.37981796264648
 22
-11.9028949737549
 32
5.87747175411144E-39
 13
7.37981796264648
 23
-11.9028949737549
 33
5.87747175411144E-39
 0
3DFACE
 8
STL2DXF
 10
12.9984188079834
 20
-0.202728942036629
 30
10
 11
12.9984188079834
 21
-0.202728942036629
 31
5.87747175411144E-39
 12
12.978006362915
 22
0.755882740020752
 32
5.87747175411144E-39
 13
12.978006362915
 23
0.755882740020752
 33
5.87747175411144E-39
 0
3DFACE
 8
STL2DXF
 10
12.9984188079834
 20
-0.202728942036629
 30
10
 11
12.978006362915
 21
0.755882740020752
 31
5.87747175411144E-39
 12
12.978006362915
 22
0.755882740020752
 32
10
 13
12.978006362915
 23
0.755882740020752
 33
10
 0
3DFACE
 8
STL2DXF
 10
12.978006362915
 20
0.755882740020752
 30
5.87747175411144E-39
 11
12.8869924545288
 21
1.71038258075714
 31
5.87747175411144E-39
 12
12.978006362915
 22
0.755882740020752
 32
10
 13
12.978006362915
 23
0.755882740020752
 33
10
 0
3DFACE
 8
STL2DXF
 10
12.978006362915
 20
0.755882740020752
 30
10
 11
12.8869924545288
 21
1.71038258075714
 31
5.87747175411144E-39
 12
12.8869924545288
 22
1.71038258075714
 32
10
 13
12.8869924545288
 23
1.71038258075714
 33
10
 0
3DFACE
 8
STL2DXF
 10
8.00643348693848
 20
-11.4907627105713
 30
10
 11
7.37981796264648
 21
-11.9028949737549
 31
10
 12
8.00643348693848
 22
-11.4907627105713
 32
5.87747175411144E-39
 13
8.00643348693848
 23
-11.4907627105713
 33
5.87747175411144E-39
 0
3DFACE
 8
STL2DXF
 10
7.37981796264648
 20
-11.9028949737549
 30
10
 11
7.37981796264648
 21
-11.9028949737549
 31
5.87747175411144E-39
 12
8.00643348693848
 22
-11.4907627105713
 32
5.87747175411144E-39
 13
8.00643348693848
 23
-11.4907627105713
 33
5.87747175411144E-39
 0
3DFACE
 8
STL2DXF
 10
7.59950399398804
 20
-10.5473947525024
 30
10
 11
8.00643348693848
 21
-11.4907627105713
 31
10
 12
7.59950399398804
 22
-10.5473947525024
 32
5.87747175411144E-39
 13
7.59950399398804
 23
-10.5473947525024
 33
5.87747175411144E-39
 0
3DFACE
 8
STL2DXF
 10
8.00643348693848
 20
-11.4907627105713
 30
10
 11
8.00643348693848
 21
-11.4907627105713
 31
5.87747175411144E-39
 12
7.59950399398804
 22
-10.5473947525024
 32
5.87747175411144E-39
 13
7.59950399398804
 23
-10.5473947525024
 33
5.87747175411144E-39
 0
3DFACE
 8
STL2DXF
 10
7.59950399398804
 20
-10.5473947525024
 30
10
 11
7.59950399398804
 21
-10.5473947525024
 31
5.87747175411144E-39
 12
8.35623836517334
 22
-9.95857715606689
 32
5.87747175411144E-39
 13
8.35623836517334
 23
-9.95857715606689
 33
5.87747175411144E-39
 0
3DFACE
 8
STL2DXF
 10
7.59950399398804
 20
-10.5473947525024
 30
10
 11
8.35623836517334
 21
-9.95857715606689
 31
5.87747175411144E-39
 12
8.35623836517334
 22
-9.95857715606689
 32
10
 13
8.35623836517334
 23
-9.95857715606689
 33
10
 0
3DFACE
 8
STL2DXF
 10
8.35623836517334
 20
-9.95857715606689
 30
5.87747175411144E-39
 11
9.06751537322998
 21
-9.31558704376221
 31
5.87747175411144E-39
 12
8.35623836517334
 22
-9.95857715606689
 32
10
 13
8.35623836517334
 23
-9.95857715606689
 33
10
 0
3DFACE
 8
STL2DXF
 10
8.35623836517334
 20
-9.95857715606689
 30
10
 11
9.06751537322998
 21
-9.31558704376221
 31
5.87747175411144E-39
 12
9.06751537322998
 22
-9.31558704376221
 32
10
 13
9.06751537322998
 23
-9.31558704376221
 33
10
 0
3DFACE
 8
STL2DXF
 10
9.92589092254639
 20
-9.88014793395996
 30
10
 11
9.06751537322998
 21
-9.31558704376221
 31
10
 12
9.92589092254639
 22
-9.88014793395996
 32
5.87747175411144E-39
 13
9.92589092254639
 23
-9.88014793395996
 33
5.87747175411144E-39
 0
3DFACE
 8
STL2DXF
 10
9.06751537322998
 20
-9.31558704376221
 30
10
 11
9.06751537322998
 21
-9.31558704376221
 31
5.87747175411144E-39
 12
9.92589092254639
 22
-9.88014793395996
 32
5.87747175411144E-39
 13
9.92589092254639
 23
-9.88014793395996
 33
5.87747175411144E-39
 0
3DFACE
 8
STL2DXF
 10
12.6947975158691
 20
2.800377368927
 30
10
 11
12.6947975158691
 21
2.800377368927
 31
5.87747175411144E-39
 12
12.4538631439209
 22
3.72844219207764
 32
5.87747175411144E-39
 13
12.4538631439209
 23
3.72844219207764
 33
5.87747175411144E-39
 0
3DFACE
 8
STL2DXF
 10
12.6947975158691
 20
2.800377368927
 30
10
 11
12.4538631439209
 21
3.72844219207764
 31
5.87747175411144E-39
 12
12.4538631439209
 22
3.72844219207764
 32
10
 13
12.4538631439209
 23
3.72844219207764
 33
10
 0
3DFACE
 8
STL2DXF
 10
12.4538631439209
 20
3.72844219207764
 30
5.87747175411144E-39
 11
12.1451816558838
 21
4.63622379302979
 31
5.87747175411144E-39
 12
12.4538631439209
 22
3.72844219207764
 32
10
 13
12.4538631439209
 23
3.72844219207764
 33
10
 0
3DFACE
 8
STL2DXF
 10
12.4538631439209
 20
3.72844219207764
 30
10
 11
12.1451816558838
 21
4.63622379302979
 31
5.87747175411144E-39
 12
12.1451816558838
 22
4.63622379302979
 32
10
 13
12.1451816558838
 23
4.63622379302979
 33
10
 0
3DFACE
 8
STL2DXF
 10
10.4405708312988
 20
-9.33461856842041
 30
10
 11
9.92589092254639
 21
-9.88014793395996
 31
10
 12
10.4405708312988
 22
-9.33461856842041
 32
5.87747175411144E-39
 13
10.4405708312988
 23
-9.33461856842041
 33
5.87747175411144E-39
 0
3DFACE
 8
STL2DXF
 10
9.92589092254639
 20
-9.88014793395996
 30
10
 11
9.92589092254639
 21
-9.88014793395996
 31
5.87747175411144E-39
 12
10.4405708312988
 22
-9.33461856842041
 32
5.87747175411144E-39
 13
10.4405708312988
 23
-9.33461856842041
 33
5.87747175411144E-39
 0
3DFACE
 8
STL2DXF
 10
9.82705497741699
 20
-8.51052284240723
 30
10
 11
10.4405708312988
 21
-9.33461856842041
 31
10
 12
9.82705497741699
 22
-8.51052284240723
 32
5.87747175411144E-39
 13
9.82705497741699
 23
-8.51052284240723
 33
5.87747175411144E-39
 0
3DFACE
 8
STL2DXF
 10
10.4405708312988
 20
-9.33461856842041
 30
10
 11
10.4405708312988
 21
-9.33461856842041
 31
5.87747175411144E-39
 12
9.82705497741699
 22
-8.51052284240723
 32
5.87747175411144E-39
 13
9.82705497741699
 23
-8.51052284240723
 33
5.87747175411144E-39
 0
3DFACE
 8
STL2DXF
 10
9.82705497741699
 20
-8.51052284240723
 30
10
 11
9.82705497741699
 21
-8.51052284240723
 31
5.87747175411144E-39
 12
10.42760181427
 22
-7.7630615234375
 32
5.87747175411144E-39
 13
10.42760181427
 23
-7.7630615234375
 33
5.87747175411144E-39
 0
3DFACE
 8
STL2DXF
 10
9.82705497741699
 20
-8.51052284240723
 30
10
 11
10.42760181427
 21
-7.7630615234375
 31
5.87747175411144E-39
 12
10.42760181427
 22
-7.7630615234375
 32
10
 13
10.42760181427
 23
-7.7630615234375
 33
10
 0
3DFACE
 8
STL2DXF
 10
10.42760181427
 20
-7.7630615234375
 30
5.87747175411144E-39
 11
10.9714221954346
 21
-6.97337055206299
 31
5.87747175411144E-39
 12
10.42760181427
 22
-7.7630615234375
 32
10
 13
10.42760181427
 23
-7.7630615234375
 33
10
 0
3DFACE
 8
STL2DXF
 10
10.42760181427
 20
-7.7630615234375
 30
10
 11
10.9714221954346
 21
-6.97337055206299
 31
5.87747175411144E-39
 12
10.9714221954346
 22
-6.97337055206299
 32
10
 13
10.9714221954346
 23
-6.97337055206299
 33
10
 0
3DFACE
 8
STL2DXF
 10
11.9368553161621
 20
-7.3247594833374
 30
10
 11
10.9714221954346
 21
-6.97337055206299
 31
10
 12
11.9368553161621
 22
-7.3247594833374
 32
5.87747175411144E-39
 13
11.9368553161621
 23
-7.3247594833374
 33
5.87747175411144E-39
 0
3DFACE
 8
STL2DXF
 10
10.9714221954346
 20
-6.97337055206299
 30
10
 11
10.9714221954346
 21
-6.97337055206299
 31
5.87747175411144E-39
 12
11.9368553161621
 22
-7.3247594833374
 32
5.87747175411144E-39
 13
11.9368553161621
 23
-7.3247594833374
 33
5.87747175411144E-39
 0
3DFACE
 8
STL2DXF
 10
12.3118553161621
 20
-6.6752405166626
 30
10
 11
11.9368553161621
 21
-7.3247594833374
 31
10
 12
12.3118553161621
 22
-6.6752405166626
 32
5.87747175411144E-39
 13
12.3118553161621
 23
-6.6752405166626
 33
5.87747175411144E-39
 0
3DFACE
 8
STL2DXF
 10
11.9368553161621
 20
-7.3247594833374
 30
10
 11
11.9368553161621
 21
-7.3247594833374
 31
5.87747175411144E-39
 12
12.3118553161621
 22
-6.6752405166626
 32
5.87747175411144E-39
 13
12.3118553161621
 23
-6.6752405166626
 33
5.87747175411144E-39
 0
3DFACE
 8
STL2DXF
 10
10.0876779556274
 20
8.19992351531982
 30
10
 11
10.0876779556274
 21
8.19992351531982
 31
5.87747175411144E-39
 12
9.45585823059082
 22
8.92114162445068
 32
5.87747175411144E-39
 13
9.45585823059082
 23
8.92114162445068
 33
5.87747175411144E-39
 0
3DFACE
 8
STL2DXF
 10
10.0876779556274
 20
8.19992351531982
 30
10
 11
9.45585823059082
 21
8.92114162445068
 31
5.87747175411144E-39
 12
9.45585823059082
 22
8.92114162445068
 32
10
 13
9.45585823059082
 23
8.92114162445068
 33
10
 0
3DFACE
 8
STL2DXF
 10
9.45585823059082
 20
8.92114162445068
 30
5.87747175411144E-39
 11
8.77259635925293
 21
9.59382820129395
 31
5.87747175411144E-39
 12
9.45585823059082
 22
8.92114162445068
 32
10
 13
9.45585823059082
 23
8.92114162445068
 33
10
 0
3DFACE
 8
STL2DXF
 10
9.45585823059082
 20
8.92114162445068
 30
10
 11
8.77259635925293
 21
9.59382820129395
 31
5.87747175411144E-39
 12
8.77259635925293
 22
9.59382820129395
 32
10
 13
8.77259635925293
 23
9.59382820129395
 33
10
 0
3DFACE
 8
STL2DXF
 10
11.524827003479
 20
-6.01484489440918
 30
10
 11
12.3118553161621
 21
-6.6752405166626
 31
10
 12
11.524827003479
 22
-6.01484489440918
 32
5.87747175411144E-39
 13
11.524827003479
 23
-6.01484489440918
 33
5.87747175411144E-39
 0
3DFACE
 8
STL2DXF
 10
12.3118553161621
 20
-6.6752405166626
 30
10
 11
12.3118553161621
 21
-6.6752405166626
 31
5.87747175411144E-39
 12
11.524827003479
 22
-6.01484489440918
 32
5.87747175411144E-39
 13
11.524827003479
 23
-6.01484489440918
 33
5.87747175411144E-39
 0
3DFACE
 8
STL2DXF
 10
11.7067966461182
 20
5.65251493453979
 30
10
 11
11.7067966461182
 21
5.65251493453979
 31
5.87747175411144E-39
 12
11.2583303451538
 22
6.5
 32
5.87747175411144E-39
 13
11.2583303451538
 23
6.5
 33
5.87747175411144E-39
 0
3DFACE
 8
STL2DXF
 10
11.7067966461182
 20
5.65251493453979
 30
10
 11
11.2583303451538
 21
6.5
 31
5.87747175411144E-39
 12
11.2583303451538
 22
6.5
 32
10
 13
11.2583303451538
 23
6.5
 33
10
 0
3DFACE
 8
STL2DXF
 10
11.2583303451538
 20
6.5
 30
5.87747175411144E-39
 11
10.7486190795898
 21
7.31212568283081
 31
5.87747175411144E-39
 12
11.2583303451538
 22
6.5
 32
10
 13
11.2583303451538
 23
6.5
 33
10
 0
3DFACE
 8
STL2DXF
 10
11.2583303451538
 20
6.5
 30
10
 11
10.7486190795898
 21
7.31212568283081
 31
5.87747175411144E-39
 12
10.7486190795898
 22
7.31212568283081
 32
10
 13
10.7486190795898
 23
7.31212568283081
 33
10
 0
3DFACE
 8
STL2DXF
 10
11.524827003479
 20
-6.01484489440918
 30
10
 11
11.524827003479
 21
-6.01484489440918
 31
5.87747175411144E-39
 12
11.9368085861206
 22
-5.14903688430786
 32
5.87747175411144E-39
 13
11.9368085861206
 23
-5.14903688430786
 33
5.87747175411144E-39
 0
3DFACE
 8
STL2DXF
 10
11.524827003479
 20
-6.01484489440918
 30
10
 11
11.9368085861206
 21
-5.14903688430786
 31
5.87747175411144E-39
 12
11.9368085861206
 22
-5.14903688430786
 32
10
 13
11.9368085861206
 23
-5.14903688430786
 33
10
 0
3DFACE
 8
STL2DXF
 10
11.9368085861206
 20
-5.14903688430786
 30
5.87747175411144E-39
 11
12.2838563919067
 21
-4.25521850585938
 31
5.87747175411144E-39
 12
11.9368085861206
 22
-5.14903688430786
 32
10
 13
11.9368085861206
 23
-5.14903688430786
 33
10
 0
3DFACE
 8
STL2DXF
 10
11.9368085861206
 20
-5.14903688430786
 30
10
 11
12.2838563919067
 21
-4.25521850585938
 31
5.87747175411144E-39
 12
12.2838563919067
 22
-4.25521850585938
 32
10
 13
12.2838563919067
 23
-4.25521850585938
 33
10
 0
3DFACE
 8
STL2DXF
 10
13.3043012619019
 20
-4.37449169158936
 30
10
 11
12.2838563919067
 21
-4.25521850585938
 31
10
 12
13.3043012619019
 22
-4.37449169158936
 32
5.87747175411144E-39
 13
13.3043012619019
 23
-4.37449169158936
 33
5.87747175411144E-39
 0
3DFACE
 8
STL2DXF
 10
12.2838563919067
 20
-4.25521850585938
 30
10
 11
12.2838563919067
 21
-4.25521850585938
 31
5.87747175411144E-39
 12
13.3043012619019
 22
-4.37449169158936
 32
5.87747175411144E-39
 13
13.3043012619019
 23
-4.37449169158936
 33
5.87747175411144E-39
 0
3DFACE
 8
STL2DXF
 10
13.5194044113159
 20
-3.65599918365479
 30
10
 11
13.3043012619019
 21
-4.37449169158936
 31
10
 12
13.5194044113159
 22
-3.65599918365479
 32
5.87747175411144E-39
 13
13.5194044113159
 23
-3.65599918365479
 33
5.87747175411144E-39
 0
3DFACE
 8
STL2DXF
 10
13.3043012619019
 20
-4.37449169158936
 30
10
 11
13.3043012619019
 21
-4.37449169158936
 31
5.87747175411144E-39
 12
13.5194044113159
 22
-3.65599918365479
 32
5.87747175411144E-39
 13
13.5194044113159
 23
-3.65599918365479
 33
5.87747175411144E-39
 0
3DFACE
 8
STL2DXF
 10
12.6012926101685
 20
-3.19490599632263
 30
10
 11
13.5194044113159
 21
-3.65599918365479
 31
10
 12
12.6012926101685
 22
-3.19490599632263
 32
5.87747175411144E-39
 13
12.6012926101685
 23
-3.19490599632263
 33
5.87747175411144E-39
 0
3DFACE
 8
STL2DXF
 10
13.5194044113159
 20
-3.65599918365479
 30
10
 11
13.5194044113159
 21
-3.65599918365479
 31
5.87747175411144E-39
 12
12.6012926101685
 22
-3.19490599632263
 32
5.87747175411144E-39
 13
12.6012926101685
 23
-3.19490599632263
 33
5.87747175411144E-39
 0
3DFACE
 8
STL2DXF
 10
12.6012926101685
 20
-3.19490599632263
 30
10
 11
12.6012926101685
 21
-3.19490599632263
 31
5.87747175411144E-39
 12
12.8025016784668
 22
-2.25742626190186
 32
5.87747175411144E-39
 13
12.8025016784668
 23
-2.25742626190186
 33
5.87747175411144E-39
 0
3DFACE
 8
STL2DXF
 10
12.6012926101685
 20
-3.19490599632263
 30
10
 11
12.8025016784668
 21
-2.25742626190186
 31
5.87747175411144E-39
 12
12.8025016784668
 22
-2.25742626190186
 32
10
 13
12.8025016784668
 23
-2.25742626190186
 33
10
 0
3DFACE
 8
STL2DXF
 10
12.8025016784668
 20
-2.25742626190186
 30
5.87747175411144E-39
 11
12.934063911438
 21
-1.30766618251801
 31
5.87747175411144E-39
 12
12.8025016784668
 22
-2.25742626190186
 32
10
 13
12.8025016784668
 23
-2.25742626190186
 33
10
 0
3DFACE
 8
STL2DXF
 10
12.8025016784668
 20
-2.25742626190186
 30
10
 11
12.934063911438
 21
-1.30766618251801
 31
5.87747175411144E-39
 12
12.934063911438
 22
-1.30766618251801
 32
10
 13
12.934063911438
 23
-1.30766618251801
 33
10
 0
3DFACE
 8
STL2DXF
 10
13.9545097351074
 20
-1.1883932352066
 30
10
 11
12.934063911438
 21
-1.30766618251801
 31
10
 12
13.9545097351074
 22
-1.1883932352066
 32
5.87747175411144E-39
 13
13.9545097351074
 23
-1.1883932352066
 33
5.87747175411144E-39
 0
3DFACE
 8
STL2DXF
 10
12.934063911438
 20
-1.30766618251801
 30
10
 11
12.934063911438
 21
-1.30766618251801
 31
5.87747175411144E-39
 12
13.9545097351074
 22
-1.1883932352066
 32
5.87747175411144E-39
 13
13.9545097351074
 23
-1.1883932352066
 33
5.87747175411144E-39
 0
3DFACE
 8
STL2DXF
 10
13.9981184005737
 20
-0.439662039279938
 30
10
 11
13.9545097351074
 21
-1.1883932352066
 31
10
 12
13.9981184005737
 22
-0.439662039279938
 32
5.87747175411144E-39
 13
13.9981184005737
 23
-0.439662039279938
 33
5.87747175411144E-39
 0
3DFACE
 8
STL2DXF
 10
13.9545097351074
 20
-1.1883932352066
 30
10
 11
13.9545097351074
 21
-1.1883932352066
 31
5.87747175411144E-39
 12
13.9981184005737
 22
-0.439662039279938
 32
5.87747175411144E-39
 13
13.9981184005737
 23
-0.439662039279938
 33
5.87747175411144E-39
 0
3DFACE
 8
STL2DXF
 10
12.9984188079834
 20
-0.202728942036629
 30
10
 11
13.9981184005737
 21
-0.439662039279938
 31
10
 12
12.9984188079834
 22
-0.202728942036629
 32
5.87747175411144E-39
 13
12.9984188079834
 23
-0.202728942036629
 33
5.87747175411144E-39
 0
3DFACE
 8
STL2DXF
 10
13.9981184005737
 20
-0.439662039279938
 30
10
 11
13.9981184005737
 21
-0.439662039279938
 31
5.87747175411144E-39
 12
12.9984188079834
 22
-0.202728942036629
 32
5.87747175411144E-39
 13
12.9984188079834
 23
-0.202728942036629
 33
5.87747175411144E-39
 0
3DFACE
 8
STL2DXF
 10
12.6947975158691
 20
2.800377368927
 30
10
 11
13.7221908569336
 21
2.800377368927
 31
10
 12
12.6947975158691
 22
2.800377368927
 32
5.87747175411144E-39
 13
12.6947975158691
 23
2.800377368927
 33
5.87747175411144E-39
 0
3DFACE
 8
STL2DXF
 10
13.7221908569336
 20
2.800377368927
 30
10
 11
13.7221908569336
 21
2.800377368927
 31
5.87747175411144E-39
 12
12.6947975158691
 22
2.800377368927
 32
5.87747175411144E-39
 13
12.6947975158691
 23
2.800377368927
 33
5.87747175411144E-39
 0
ENDSEC
 0
EOF
